SplineFontDB: 3.0
FontName: Stoke-Regular
FullName: Stoke Regular
FamilyName: Stoke
Weight: Book
Copyright: Copyright (c) 2011-2012 by Sorkin Type Co with Reserved Font Name Stoke.\n\nThis Font Software is licensed under the SIL Open Font License, Version 1.1. This license is copied below, and is also available with a FAQ at: http://scripts.sil.org/OFL
Version: 1.002
ItalicAngle: 0
UnderlinePosition: -47
UnderlineWidth: 137
Ascent: 1638
Descent: 410
LayerCount: 2
Layer: 0 1 "Back"  1
Layer: 1 1 "Fore"  0
XUID: [1021 631 1661839179 11216886]
FSType: 0
OS2Version: 3
OS2_WeightWidthSlopeOnly: 0
OS2_UseTypoMetrics: 1
CreationTime: 1335307980
ModificationTime: 1342061096
PfmFamily: 17
TTFWeight: 400
TTFWidth: 5
LineGap: 0
VLineGap: 0
Panose: 2 3 5 2 7 8 0 3 3 3
OS2TypoAscent: 392
OS2TypoAOffset: 1
OS2TypoDescent: -120
OS2TypoDOffset: 1
OS2TypoLinegap: 0
OS2WinAscent: 3
OS2WinAOffset: 1
OS2WinDescent: 4
OS2WinDOffset: 1
HheadAscent: 3
HheadAOffset: 1
HheadDescent: -4
HheadDOffset: 1
OS2SubXSize: 1434
OS2SubYSize: 1331
OS2SubXOff: 0
OS2SubYOff: 287
OS2SupXSize: 1434
OS2SupYSize: 1331
OS2SupXOff: 0
OS2SupYOff: 977
OS2StrikeYSize: 137
OS2StrikeYPos: 512
OS2Vendor: 'STC '
OS2CodePages: 20000093.00000000
OS2UnicodeRanges: a00000af.4000204a.00000000.00000000
DEI: 91125
TtTable: prep
MPPEM
PUSHW_1
 200
GT
IF
PUSHB_2
 1
 1
INSTCTRL
EIF
PUSHW_2
 2048
 2048
MUL
DUP
PUSHB_1
 1
SWAP
WCVTP
DUP
PUSHB_1
 3
SWAP
WCVTF
PUSHB_1
 21
RCVT
DUP
DUP
PUSHB_1
 40
ADD
FLOOR
DUP
ROLL
NEQ
IF
PUSHB_1
 2
CINDEX
SUB
PUSHB_1
 1
RCVT
MUL
SWAP
DIV
PUSHB_1
 2
SWAP
WCVTP
PUSHB_4
 10
 11
 3
 2
CALL
PUSHB_4
 12
 17
 3
 2
CALL
PUSHB_4
 18
 23
 3
 2
CALL
EIF
PUSHB_3
 4
 40
 7
RCVT
GT
WCVTP
PUSHB_4
 12
 17
 4
 2
CALL
PUSHW_1
 511
SCANCTRL
PUSHB_1
 4
SCANTYPE
PUSHB_2
 5
 0
WCVTP
EndTTInstrs
TtTable: fpgm
PUSHB_1
 0
FDEF
DUP
ABS
PUSHB_1
 32
ADD
FLOOR
SWAP
PUSHB_1
 0
LT
IF
NEG
EIF
ENDF
PUSHB_1
 1
FDEF
DUP
ABS
DUP
PUSHB_1
 192
LT
PUSHB_1
 4
MINDEX
AND
PUSHB_1
 4
RCVT
OR
IF
POP
SWAP
POP
ELSE
ROLL
IF
DUP
PUSHB_1
 80

StartChar: .notdef
Encoding: 65536 -1 0
Width: 1528
Flags: W
LayerCount: 2
Fore
SplineSet
166 1308 m 1,0,-1
 1359 1308 l 1,1,-1
 1359 0 l 1,2,-1
 166 0 l 1,3,-1
 166 1308 l 1,0,-1
342 314 m 1,4,5
 342 314 342 314 431 226 c 1,6,-1
 760 554 l 1,7,-1
 1096 217 l 1,8,-1
 1188 308 l 1,9,-1
 851 646 l 1,10,-1
 1180 975 l 1,11,-1
 1091 1063 l 1,12,-1
 763 734 l 1,13,-1
 426 1072 l 1,14,-1
 334 981 l 1,15,-1
 671 643 l 1,16,-1
 342 314 l 1,4,5
EndSplineSet
EndChar

StartChar: exclam
Encoding: 33 33 23
Width: 684
GlyphClass: 2
Flags: W
LayerCount: 2
Fore
SplineSet
472 1587 m 1,0,1
 514 1587 514 1587 514 1547 c 0,2,3
 514 1522 514 1522 505 1474.5 c 128,-1,4
 496 1427 496 1427 488 1375 c 1,5,6
 465 1203 465 1203 453 1110 c 1,7,-1
 412 762 l 2,8,9
 402 678 402 678 395 610.5 c 128,-1,10
 388 543 388 543 376.5 507 c 128,-1,11
 365 471 365 471 341 471 c 128,-1,12
 317 471 317 471 306 507 c 128,-1,13
 295 543 295 543 288.5 609 c 128,-1,14
 282 675 282 675 273 755 c 0,15,16
 235 1093 235 1093 220 1198 c 2,17,-1
 198 1359 l 2,18,19
 190 1414 190 1414 180 1467 c 128,-1,20
 170 1520 170 1520 170 1547 c 0,21,22
 170 1587 170 1587 212 1587 c 1,23,-1
 343 1579 l 1,24,-1
 472 1587 l 1,0,1
204.5 69 m 128,-1,26
 196 94 196 94 196 120 c 128,-1,27
 196 146 196 146 207 173 c 128,-1,28
 218 200 218 200 238 220 c 0,29,30
 280 265 280 265 331 265 c 128,-1,31
 382 265 382 265 409.5 251 c 128,-1,32
 437 237 437 237 455 216 c 0,33,34
 491 172 491 172 491 128 c 128,-1,35
 491 84 491 84 479 58.5 c 128,-1,36
 467 33 467 33 446 14 c 0,37,38
 404 -24 404 -24 354.5 -24 c 128,-1,39
 305 -24 305 -24 277 -10.5 c 128,-1,40
 249 3 249 3 231 23.5 c 128,-1,25
 213 44 213 44 204.5 69 c 128,-1,26
EndSplineSet
EndChar

StartChar: numbersign
Encoding: 35 35 25
Width: 1526
GlyphClass: 2
Flags: W
LayerCount: 2
Fore
SplineSet
303 -1.5 m 128,-1,1
 285 21 285 21 285 37 c 128,-1,2
 285 53 285 53 285.5 60 c 128,-1,3
 286 67 286 67 288 80 c 2,4,-1
 295 114 l 2,5,6
 299 134 299 134 307 166 c 2,7,-1
 387 508 l 1,8,-1
 173 508 l 2,9,10
 138 508 138 508 112 528 c 128,-1,11
 86 548 86 548 86 583.5 c 128,-1,12
 86 619 86 619 113 638 c 128,-1,13
 140 657 140 657 175 657 c 2,14,-1
 422 657 l 1,15,-1
 486 930 l 1,16,-1
 263 930 l 2,17,18
 229 930 229 930 203 950 c 128,-1,19
 177 970 177 970 177 1006 c 128,-1,20
 177 1042 177 1042 204 1060.5 c 128,-1,21
 231 1079 231 1079 265 1079 c 2,22,-1
 521 1079 l 1,23,-1
 607 1445 l 1,24,25
 635 1559 635 1559 676 1580 c 0,26,27
 690 1587 690 1587 711.5 1587 c 128,-1,28
 733 1587 733 1587 753 1569.5 c 128,-1,29
 773 1552 773 1552 773 1532 c 0,30,31
 773 1493 773 1493 761 1435 c 1,32,-1
 679 1079 l 1,33,-1
 1016 1079 l 1,34,-1
 1102 1445 l 1,35,36
 1133 1587 1133 1587 1202 1587 c 0,37,38
 1228 1587 1228 1587 1248 1569.5 c 128,-1,39
 1268 1552 1268 1552 1268 1532 c 0,40,41
 1268 1493 1268 1493 1256 1435 c 1,42,-1
 1173 1079 l 1,43,-1
 1347 1079 l 2,44,45
 1382 1079 1382 1079 1408.5 1060.5 c 128,-1,46
 1435 1042 1435 1042 1435 1006 c 128,-1,47
 1435 970 1435 970 1409.5 950 c 128,-1,48
 1384 930 1384 930 1349 930 c 2,49,-1
 1139 930 l 1,50,-1
 1075 657 l 1,51,-1
 1246 657 l 2,52,53
 1281 657 1281 657 1307.5 638 c 128,-1,54
 1334 619 1334 619 1334 583.5 c 128,-1,55
 1334 548 1334 548 1308.5 528 c 128,-1,56
 1283 508 1283 508 1248 508 c 2,57,-1
 1041 508 l 1,58,-1
 935 49 l 1,59,60
 927 20 927 20 904.5 -2 c 128,-1,61
 882 -24 882 -24 849 -24 c 128,-1,62
 816 -24 816 -24 798 -1.5 c 128,-1,63
 780 21 780 21 780 37 c 128,-1,64
 780 53 780 53 780.5 60 c 128,-1,65
 781 67 781 67 784 80 c 2,66,-1
 790 114 l 2,67,68
 794 134 794 134 802 166 c 2,69,-1
 882 508 l 1,70,-1
 545 508 l 1,71,-1
 439 49 l 2,72,73
 432 20 432 20 409.5 -2 c 128,-1,74
 387 -24 387 -24 354 -24 c 128,-1,0
 321 -24 321 -24 303 -1.5 c 128,-1,1
916 657 m 1,75,-1
 980 930 l 1,76,-1
 644 930 l 1,77,-1
 580 657 l 1,78,-1
 916 657 l 1,75,-1
EndSplineSet
EndChar

StartChar: dollar
Encoding: 36 36 26
Width: 1447
GlyphClass: 2
Flags: W
LayerCount: 2
Fore
SplineSet
645 -21 m 1,0,1
 433 -6 433 -6 175 130 c 1,2,-1
 175 479 l 2,3,4
 175 601 175 601 216 601 c 0,5,6
 247 601 247 601 255.5 525 c 128,-1,7
 264 449 264 449 293 374.5 c 128,-1,8
 322 300 322 300 370 245 c 0,9,10
 469 132 469 132 645 110 c 1,11,-1
 645 684 l 1,12,13
 395 747 395 747 274 878 c 0,14,15
 167 994 167 994 167 1155 c 0,16,17
 167 1318 167 1318 282 1434 c 0,18,19
 412 1565 412 1565 645 1584 c 1,20,-1
 645 1771 l 2,21,22
 645 1851 645 1851 699 1851 c 128,-1,23
 753 1851 753 1851 753 1772 c 2,24,-1
 753 1586 l 1,25,26
 901 1581 901 1581 1013 1540 c 0,27,28
 1033 1532 1033 1532 1038 1532 c 0,29,30
 1053 1530 1053 1530 1076 1560 c 0,31,32
 1113 1610 1113 1610 1129.5 1610 c 128,-1,33
 1146 1610 1146 1610 1152.5 1598.5 c 128,-1,34
 1159 1587 1159 1587 1162 1548 c 0,35,36
 1168 1449 1168 1449 1191 1357 c 0,37,38
 1224 1224 1224 1224 1224 1181.5 c 128,-1,39
 1224 1139 1224 1139 1194 1139 c 0,40,41
 1180 1139 1180 1139 1170 1152.5 c 128,-1,42
 1160 1166 1160 1166 1146 1195 c 0,43,44
 1029 1434 1029 1434 753 1458 c 1,45,-1
 753 927 l 1,46,47
 1176 822 1176 822 1266 592 c 0,48,49
 1295 517 1295 517 1295 424 c 128,-1,50
 1295 331 1295 331 1258 249.5 c 128,-1,51
 1221 168 1221 168 1151 110 c 0,52,53
 1006 -12 1006 -12 753 -22 c 1,54,-1
 753 -210 l 2,55,56
 753 -288 753 -288 702 -288 c 0,57,58
 645 -288 645 -288 645 -207 c 2,59,-1
 645 -21 l 1,0,1
645 1457 m 1,60,61
 379 1430 379 1430 379 1251 c 0,62,63
 379 1105 379 1105 512 1020 c 0,64,65
 563 987 563 987 645 959 c 1,66,-1
 645 1457 l 1,60,61
753 107 m 1,67,68
 1015 115 1015 115 1060 253 c 0,69,70
 1075 297 1075 297 1075 349.5 c 128,-1,71
 1075 402 1075 402 1058.5 446 c 128,-1,72
 1042 490 1042 490 1004 529 c 0,73,74
 927 610 927 610 753 658 c 1,75,-1
 753 107 l 1,67,68
EndSplineSet
EndChar

StartChar: percent
Encoding: 37 37 27
Width: 1876
GlyphClass: 2
Flags: W
LayerCount: 2
Fore
SplineSet
322.5 -8 m 128,-1,1
 306 8 306 8 306 31 c 0,2,3
 306 70 306 70 374 158 c 2,4,-1
 1416 1495 l 1,5,6
 1453 1545 1453 1545 1478 1566 c 128,-1,7
 1503 1587 1503 1587 1530.5 1587 c 128,-1,8
 1558 1587 1558 1587 1576 1571.5 c 128,-1,9
 1594 1556 1594 1556 1594 1535 c 0,10,11
 1594 1495 1594 1495 1546 1433 c 2,12,-1
 468 47 l 2,13,14
 412 -24 412 -24 375.5 -24 c 128,-1,0
 339 -24 339 -24 322.5 -8 c 128,-1,1
481 863 m 0,15,16
 389 863 389 863 315 896.5 c 128,-1,17
 241 930 241 930 196 982 c 0,18,19
 110 1081 110 1081 110 1224 c 0,20,21
 110 1372 110 1372 222 1480 c 0,22,23
 333 1587 333 1587 495 1587 c 0,24,25
 666 1587 666 1587 775 1485 c 0,26,27
 878 1388 878 1388 878 1236 c 0,28,29
 878 1064 878 1064 764 960 c 1,30,31
 656 863 656 863 481 863 c 0,15,16
456.5 976 m 128,-1,33
 498 951 498 951 533 951 c 128,-1,34
 568 951 568 951 592.5 961 c 128,-1,35
 617 971 617 971 636 995 c 0,36,37
 678 1048 678 1048 678 1140 c 128,-1,38
 678 1232 678 1232 659.5 1294 c 128,-1,39
 641 1356 641 1356 610 1401 c 0,40,41
 546 1496 546 1496 460 1496 c 0,42,43
 357 1496 357 1496 322 1378 c 0,44,45
 310 1338 310 1338 310 1275 c 128,-1,46
 310 1212 310 1212 330 1151 c 128,-1,47
 350 1090 350 1090 382.5 1045.5 c 128,-1,32
 415 1001 415 1001 456.5 976 c 128,-1,33
999 344 m 0,48,49
 999 412 999 412 1028.5 477.5 c 128,-1,50
 1058 543 1058 543 1110 592 c 0,51,52
 1223 700 1223 700 1384 700 c 0,53,54
 1558 700 1558 700 1664 598 c 0,55,56
 1766 500 1766 500 1766 350 c 0,57,58
 1766 179 1766 179 1652 74 c 1,59,60
 1544 -24 1544 -24 1386 -24 c 0,61,62
 1188 -24 1188 -24 1084 96 c 0,63,64
 999 194 999 194 999 344 c 0,48,49
1212 492 m 0,65,66
 1200 451 1200 451 1200 388.5 c 128,-1,67
 1200 326 1200 326 1220 265 c 128,-1,68
 1240 204 1240 204 1272 159 c 0,69,70
 1340 63 1340 63 1430 63 c 0,71,72
 1523 63 1523 63 1554 172 c 0,73,74
 1566 211 1566 211 1566 277.5 c 128,-1,75
 1566 344 1566 344 1547.5 406.5 c 128,-1,76
 1529 469 1529 469 1498 514 c 0,77,78
 1433 610 1433 610 1349 610 c 0,79,80
 1245 610 1245 610 1212 492 c 0,65,66
EndSplineSet
EndChar

StartChar: ampersand
Encoding: 38 38 28
Width: 1881
GlyphClass: 2
Flags: W
LayerCount: 2
Fore
SplineSet
1176 207 m 1,0,1
 944 -23 944 -23 677 -23 c 0,2,3
 447 -23 447 -23 306 94 c 0,4,5
 171 206 171 206 171 376 c 0,6,7
 171 526 171 526 257 629 c 0,8,9
 346 736 346 736 550 826 c 1,10,11
 390 1002 390 1002 364 1142 c 0,12,13
 356 1188 356 1188 356 1246 c 128,-1,14
 356 1304 356 1304 384.5 1368.5 c 128,-1,15
 413 1433 413 1433 470 1482 c 0,16,17
 596 1592 596 1592 812 1592 c 0,18,19
 1004 1592 1004 1592 1111 1502 c 0,20,21
 1211 1418 1211 1418 1211 1284 c 0,22,23
 1211 1002 1211 1002 848 846 c 1,24,25
 924 765 924 765 1024 670 c 2,26,-1
 1249 458 l 1,27,28
 1412 663 1412 663 1412 783 c 0,29,30
 1412 832 1412 832 1345 832 c 1,31,-1
 1279 826 l 1,32,33
 1259 826 1259 826 1244.5 843 c 128,-1,34
 1230 860 1230 860 1230 892 c 0,35,36
 1230 957 1230 957 1344 957 c 0,37,38
 1400 957 1400 957 1446 949.5 c 128,-1,39
 1492 942 1492 942 1533 942 c 128,-1,40
 1574 942 1574 942 1608 949.5 c 128,-1,41
 1642 957 1642 957 1673.5 957 c 128,-1,42
 1705 957 1705 957 1721.5 951.5 c 128,-1,43
 1738 946 1738 946 1748 937 c 0,44,45
 1766 921 1766 921 1766 891 c 128,-1,46
 1766 861 1766 861 1750 842 c 128,-1,47
 1734 823 1734 823 1718 823 c 1,48,-1
 1669 829 l 1,49,50
 1596 827 1596 827 1536 702 c 1,51,52
 1433 516 1433 516 1326 386 c 1,53,-1
 1611 104 l 1,54,55
 1642 71 1642 71 1701 71 c 1,56,-1
 1752 80 l 1,57,58
 1769 80 1769 80 1780 70.5 c 128,-1,59
 1791 61 1791 61 1791 47 c 0,60,61
 1791 -8 1791 -8 1682 -8 c 1,62,-1
 1539 0 l 1,63,-1
 1437 -5 l 1,64,65
 1398 -5 1398 -5 1357 33 c 1,66,-1
 1176 207 l 1,0,1
777 924 m 1,67,68
 885 984 885 984 944 1078 c 1,69,70
 989 1152 989 1152 989 1219.5 c 128,-1,71
 989 1287 989 1287 969.5 1336 c 128,-1,72
 950 1385 950 1385 920 1414 c 0,73,74
 867 1467 867 1467 781 1467 c 256,75,76
 695 1467 695 1467 636 1409 c 0,77,78
 577 1352 577 1352 577 1266 c 0,79,80
 577 1185 577 1185 614 1126 c 0,81,82
 629 1103 629 1103 652 1074 c 2,83,-1
 777 924 l 1,67,68
414 394 m 0,84,85
 414 337 414 337 437 284.5 c 128,-1,86
 460 232 460 232 502 196 c 0,87,88
 585 126 585 126 735 126 c 0,89,90
 940 126 940 126 1100 280 c 1,91,-1
 621 752 l 1,92,93
 414 626 414 626 414 394 c 0,84,85
EndSplineSet
EndChar

StartChar: quotesingle
Encoding: 39 39 29
Width: 679
GlyphClass: 2
Flags: W
LayerCount: 2
Fore
SplineSet
271 1121 m 2,0,-1
 242 1264 l 2,1,2
 214 1405 214 1405 214 1461 c 128,-1,3
 214 1517 214 1517 253 1552 c 128,-1,4
 292 1587 292 1587 348 1587 c 128,-1,5
 404 1587 404 1587 440.5 1552 c 128,-1,6
 477 1517 477 1517 477 1468.5 c 128,-1,7
 477 1420 477 1420 469 1373 c 128,-1,8
 461 1326 461 1326 448 1264 c 1,9,-1
 415 1121 l 2,10,11
 396 1040 396 1040 374 936 c 1,12,-1
 304 936 l 1,13,14
 287 1040 287 1040 271 1121 c 2,0,-1
EndSplineSet
EndChar

StartChar: parenleft
Encoding: 40 40 30
Width: 1026
GlyphClass: 2
Flags: W
LayerCount: 2
Fore
SplineSet
785 -195 m 1,0,-1
 846 -190 l 1,1,2
 867 -190 867 -190 876 -224 c 0,3,4
 879 -233 879 -233 879 -240 c 0,5,6
 879 -259 879 -259 850 -273.5 c 128,-1,7
 821 -288 821 -288 767 -288 c 0,8,9
 648 -288 648 -288 539.5 -224 c 128,-1,10
 431 -160 431 -160 348 -33 c 0,11,12
 166 245 166 245 166 727 c 128,-1,13
 166 1209 166 1209 348 1487 c 0,14,15
 431 1614 431 1614 539.5 1678 c 128,-1,16
 648 1742 648 1742 767 1742 c 0,17,18
 821 1742 821 1742 850 1728 c 128,-1,19
 879 1714 879 1714 879 1694 c 0,20,21
 879 1666 879 1666 866 1655 c 128,-1,22
 853 1644 853 1644 846 1644 c 2,23,-1
 785 1649 l 1,24,25
 533 1649 533 1649 449 1156 c 0,26,27
 419 981 419 981 419 727 c 0,28,29
 419 253 419 253 529 12 c 0,30,31
 624 -195 624 -195 785 -195 c 1,0,-1
EndSplineSet
EndChar

StartChar: asterisk
Encoding: 42 42 32
Width: 1024
GlyphClass: 2
Flags: W
LayerCount: 2
Fore
SplineSet
823 1129 m 2,0,-1
 719 1130 l 2,1,2
 643 1130 643 1130 582 1122 c 1,3,4
 634 1067 634 1067 678 1034 c 2,5,-1
 756 976 l 2,6,7
 789 951 789 951 807.5 927.5 c 128,-1,8
 826 904 826 904 825.5 872 c 128,-1,9
 825 840 825 840 813 817.5 c 128,-1,10
 801 795 801 795 782 780 c 1,11,12
 744 747 744 747 708.5 747 c 128,-1,13
 673 747 673 747 654 755.5 c 128,-1,14
 635 764 635 764 619 784 c 0,15,16
 589 823 589 823 575 878 c 128,-1,17
 561 933 561 933 555 952.5 c 128,-1,18
 549 972 549 972 541 992.5 c 128,-1,19
 533 1013 533 1013 524 1034 c 1,20,-1
 505 1072 l 1,21,22
 470 1005 470 1005 450.5 941.5 c 128,-1,23
 431 878 431 878 415.5 844 c 128,-1,24
 400 810 400 810 384 790 c 0,25,26
 357 757 357 757 319 757 c 128,-1,27
 281 757 281 757 258 765.5 c 128,-1,28
 235 774 235 774 217 790 c 0,29,30
 178 825 178 825 178 863 c 128,-1,31
 178 901 178 901 189 922 c 128,-1,32
 200 943 200 943 217 960 c 0,33,34
 242 986 242 986 285 1010 c 0,35,36
 358 1052 358 1052 433 1129 c 1,37,38
 371 1140 371 1140 244 1140 c 0,39,40
 70 1140 70 1140 70 1252 c 0,41,42
 70 1340 70 1340 137 1374 c 0,43,44
 157 1384 157 1384 188 1384 c 128,-1,45
 219 1384 219 1384 256.5 1361 c 128,-1,46
 294 1338 294 1338 330 1308 c 2,47,-1
 398 1252 l 2,48,49
 432 1224 432 1224 464 1216 c 1,50,51
 459 1269 459 1269 436 1344 c 0,52,53
 395 1477 395 1477 395 1522.5 c 128,-1,54
 395 1568 395 1568 429.5 1597.5 c 128,-1,55
 464 1627 464 1627 514.5 1627 c 128,-1,56
 565 1627 565 1627 599 1599 c 128,-1,57
 633 1571 633 1571 633 1523.5 c 128,-1,58
 633 1476 633 1476 620.5 1439 c 128,-1,59
 608 1402 608 1402 592 1366 c 0,60,61
 552 1270 552 1270 552 1210 c 1,62,63
 618 1238 618 1238 664 1274 c 2,64,-1
 732 1326 l 1,65,66
 793 1370 793 1370 828.5 1370 c 128,-1,67
 864 1370 864 1370 885 1359 c 128,-1,68
 906 1348 906 1348 921 1330 c 0,69,70
 953 1292 953 1292 953 1240.5 c 128,-1,71
 953 1189 953 1189 918 1159 c 128,-1,72
 883 1129 883 1129 823 1129 c 2,0,-1
EndSplineSet
EndChar

StartChar: plus
Encoding: 43 43 33
Width: 1285
GlyphClass: 2
Flags: W
LayerCount: 2
Fore
SplineSet
566 580 m 1,0,-1
 140 580 l 1,1,-1
 140 729 l 1,2,-1
 566 729 l 1,3,-1
 566 1168 l 1,4,-1
 718 1168 l 1,5,-1
 718 729 l 1,6,-1
 1145 729 l 1,7,-1
 1145 580 l 1,8,-1
 718 580 l 1,9,-1
 718 143 l 1,10,-1
 566 143 l 1,11,-1
 566 580 l 1,0,-1
EndSplineSet
EndChar

StartChar: comma
Encoding: 44 44 34
Width: 684
GlyphClass: 2
Flags: W
LayerCount: 2
Fore
SplineSet
227 -345 m 0,0,1
 173 -345 173 -345 173 -301 c 0,2,3
 173 -269 173 -269 215 -249.5 c 128,-1,4
 257 -230 257 -230 283 -210.5 c 128,-1,5
 309 -191 309 -191 326 -170 c 0,6,7
 363 -125 363 -125 363 -94 c 128,-1,8
 363 -63 363 -63 349.5 -46.5 c 128,-1,9
 336 -30 336 -30 284 -14 c 1,10,11
 169 19 169 19 169 126 c 0,12,13
 169 227 169 227 260 265 c 0,14,15
 289 277 289 277 325 277 c 0,16,17
 413 277 413 277 463.5 215.5 c 128,-1,18
 514 154 514 154 514 36 c 0,19,20
 514 -94 514 -94 418.5 -219.5 c 128,-1,21
 323 -345 323 -345 227 -345 c 0,0,1
EndSplineSet
EndChar

StartChar: hyphen
Encoding: 45 45 35
Width: 875
GlyphClass: 2
Flags: W
LayerCount: 2
Fore
SplineSet
152.5 578.5 m 128,-1,1
 132 598 132 598 132 633.5 c 128,-1,2
 132 669 132 669 153.5 688 c 128,-1,3
 175 707 175 707 210 707 c 2,4,-1
 664 707 l 2,5,6
 699 707 699 707 721 688 c 128,-1,7
 743 669 743 669 743 633.5 c 128,-1,8
 743 598 743 598 722 578.5 c 128,-1,9
 701 559 701 559 666 559 c 2,10,-1
 208 559 l 2,11,0
 173 559 173 559 152.5 578.5 c 128,-1,1
EndSplineSet
EndChar

StartChar: period
Encoding: 46 46 36
Width: 684
GlyphClass: 2
Flags: W
LayerCount: 2
Fore
SplineSet
181 84 m 128,-1,1
 171 113 171 113 171 143 c 128,-1,2
 171 173 171 173 183.5 204 c 128,-1,3
 196 235 196 235 220 259 c 0,4,5
 270 311 270 311 346 311 c 0,6,7
 424 311 424 311 471 254 c 0,8,9
 512 204 512 204 512 136 c 0,10,11
 512 77 512 77 466 29 c 0,12,13
 414 -24 414 -24 355.5 -24 c 128,-1,14
 297 -24 297 -24 265 -8.5 c 128,-1,15
 233 7 233 7 212 31 c 128,-1,0
 191 55 191 55 181 84 c 128,-1,1
EndSplineSet
EndChar

StartChar: slash
Encoding: 47 47 37
Width: 1008
GlyphClass: 2
Flags: W
LayerCount: 2
Fore
SplineSet
112.5 -265.5 m 128,-1,1
 91 -243 91 -243 91 -215.5 c 128,-1,2
 91 -188 91 -188 146 -38 c 1,3,-1
 729 1590 l 1,4,5
 773 1708 773 1708 818 1724 c 0,6,7
 832 1730 832 1730 853.5 1730 c 128,-1,8
 875 1730 875 1730 896 1712.5 c 128,-1,9
 917 1695 917 1695 917 1676 c 0,10,11
 917 1634 917 1634 895 1578 c 1,12,-1
 252 -216 l 1,13,14
 225 -288 225 -288 179.5 -288 c 128,-1,0
 134 -288 134 -288 112.5 -265.5 c 128,-1,1
EndSplineSet
EndChar

StartChar: zero
Encoding: 48 48 38
Width: 1534
GlyphClass: 2
Flags: W
LayerCount: 2
Fore
SplineSet
140 800 m 0,0,1
 140 946 140 946 184 1096.5 c 128,-1,2
 228 1247 228 1247 311 1357 c 0,3,4
 488 1591 488 1591 787 1591 c 0,5,6
 1078 1591 1078 1591 1251 1358 c 0,7,8
 1412 1140 1412 1140 1412 831 c 0,9,10
 1412 421 1412 421 1228 188 c 1,11,12
 1060 -23 1060 -23 792 -23 c 0,13,14
 619 -23 619 -23 468 79 c 0,15,16
 140 301 140 301 140 800 c 0,0,1
680.5 180 m 128,-1,18
 765 126 765 126 839.5 126 c 128,-1,19
 914 126 914 126 968.5 153.5 c 128,-1,20
 1023 181 1023 181 1066 246 c 0,21,22
 1161 388 1161 388 1161 678 c 0,23,24
 1161 1025 1161 1025 1036 1238 c 0,25,26
 915 1446 915 1446 723 1446 c 0,27,28
 572 1446 572 1446 482 1320 c 1,29,30
 388 1186 388 1186 388 966.5 c 128,-1,31
 388 747 388 747 427 594.5 c 128,-1,32
 466 442 466 442 531 338 c 128,-1,17
 596 234 596 234 680.5 180 c 128,-1,18
EndSplineSet
EndChar

StartChar: one
Encoding: 49 49 39
Width: 852
GlyphClass: 2
Flags: W
LayerCount: 2
Fore
SplineSet
678 82 m 1,0,-1
 744 89 l 1,1,2
 761 89 761 89 771 74.5 c 128,-1,3
 781 60 781 60 781 48.5 c 128,-1,4
 781 37 781 37 776.5 26.5 c 128,-1,5
 772 16 772 16 762 7 c 0,6,7
 728 -22 728 -22 616 -12 c 0,8,9
 586 -10 586 -10 559 -8 c 1,10,-1
 506 -2 l 2,11,12
 480 0 480 0 448 0 c 128,-1,13
 416 0 416 0 388 -2 c 2,14,-1
 330 -8 l 1,15,16
 242 -15 242 -15 203 -15 c 128,-1,17
 164 -15 164 -15 144.5 -8.5 c 128,-1,18
 125 -2 125 -2 112 7 c 0,19,20
 87 24 87 24 87 42 c 128,-1,21
 87 60 87 60 97 76 c 128,-1,22
 107 92 107 92 125 92 c 1,23,-1
 220 82 l 1,24,25
 316 82 316 82 328 207 c 0,26,27
 333 251 333 251 333 314 c 2,28,-1
 333 1074 l 2,29,30
 333 1200 333 1200 312.5 1258 c 128,-1,31
 292 1316 292 1316 239 1316 c 0,32,33
 216 1316 216 1316 183 1309 c 128,-1,34
 150 1302 150 1302 108.5 1302 c 128,-1,35
 67 1302 67 1302 67 1332 c 0,36,37
 67 1358 67 1358 133.5 1383 c 128,-1,38
 200 1408 200 1408 244 1426 c 128,-1,39
 288 1444 288 1444 331 1464 c 0,40,41
 425 1506 425 1506 468 1537 c 2,42,-1
 525 1578 l 2,43,44
 539 1587 539 1587 553 1587 c 0,45,46
 579 1587 579 1587 579 1557 c 128,-1,47
 579 1527 579 1527 577 1504 c 128,-1,48
 575 1481 575 1481 572 1448 c 0,49,50
 566 1362 566 1362 566 1256 c 2,51,-1
 566 314 l 2,52,53
 566 183 566 183 583 145.5 c 128,-1,54
 600 108 600 108 621.5 95 c 128,-1,55
 643 82 643 82 678 82 c 1,0,-1
EndSplineSet
EndChar

StartChar: two
Encoding: 50 50 40
Width: 1368
GlyphClass: 2
Flags: W
LayerCount: 2
Fore
SplineSet
1215 405 m 0,0,1
 1241 405 1241 405 1241 378 c 0,2,3
 1241 353 1241 353 1218 305.5 c 128,-1,4
 1195 258 1195 258 1182 227 c 128,-1,5
 1169 196 1169 196 1158 163 c 0,6,7
 1137 101 1137 101 1114 0 c 1,8,-1
 186 0 l 2,9,10
 167 0 167 0 153.5 11.5 c 128,-1,11
 140 23 140 23 140 61.5 c 128,-1,12
 140 100 140 100 159 163 c 128,-1,13
 178 226 178 226 230 304 c 0,14,15
 340 467 340 467 610 702 c 0,16,17
 795 862 795 862 862 968 c 0,18,19
 934 1080 934 1080 934 1213 c 0,20,21
 934 1326 934 1326 858 1388 c 1,22,23
 785 1446 785 1446 651 1446 c 0,24,25
 516 1446 516 1446 412 1364 c 1,26,27
 303 1280 303 1280 270 1143 c 1,28,29
 263 1107 263 1107 246.5 1095 c 128,-1,30
 230 1083 230 1083 223 1083 c 0,31,32
 184 1083 184 1083 184 1132 c 2,33,-1
 184 1413 l 1,34,35
 300 1506 300 1506 388 1538 c 0,36,37
 534 1591 534 1591 673.5 1591 c 128,-1,38
 813 1591 813 1591 907.5 1564.5 c 128,-1,39
 1002 1538 1002 1538 1068 1489 c 0,40,41
 1207 1387 1207 1387 1207 1213 c 0,42,43
 1207 1076 1207 1076 1108 946 c 1,44,45
 1008 812 1008 812 759 625 c 1,46,47
 569 481 569 481 492 401 c 0,48,49
 373 278 373 278 333 199 c 1,50,-1
 711 199 l 2,51,52
 1002 199 1002 199 1165 369 c 1,53,54
 1201 405 1201 405 1215 405 c 0,0,1
EndSplineSet
EndChar

StartChar: three
Encoding: 51 51 41
Width: 1364
GlyphClass: 2
Flags: W
LayerCount: 2
Fore
SplineSet
657 -24 m 0,0,1
 376 -24 376 -24 181 113 c 1,2,-1
 181 416 l 2,3,4
 181 464 181 464 208.5 464 c 128,-1,5
 236 464 236 464 252.5 396.5 c 128,-1,6
 269 329 269 329 311.5 276 c 128,-1,7
 354 223 354 223 410 190 c 0,8,9
 517 127 517 127 664 127 c 0,10,11
 804 127 804 127 896 194 c 1,12,13
 1001 272 1001 272 1001 407 c 0,14,15
 1001 563 1001 563 876 672 c 0,16,17
 757 776 757 776 606 776 c 0,18,19
 586 776 586 776 563 770 c 0,20,21
 519 757 519 757 502.5 757 c 128,-1,22
 486 757 486 757 478.5 763 c 128,-1,23
 471 769 471 769 466 778 c 0,24,25
 456 794 456 794 456 815 c 0,26,27
 456 855 456 855 606 899 c 0,28,29
 914 990 914 990 914 1215 c 0,30,31
 914 1325 914 1325 833 1387 c 0,32,33
 756 1446 756 1446 624 1446 c 0,34,35
 426 1446 426 1446 328 1309 c 0,36,37
 293 1261 293 1261 279 1210.5 c 128,-1,38
 265 1160 265 1160 255.5 1146.5 c 128,-1,39
 246 1133 246 1133 234 1133 c 0,40,41
 205 1133 205 1133 205 1182 c 2,42,-1
 205 1450 l 1,43,44
 354 1550 354 1550 548 1582 c 0,45,46
 609 1592 609 1592 693.5 1592 c 128,-1,47
 778 1592 778 1592 867 1568 c 128,-1,48
 956 1544 956 1544 1018 1500 c 0,49,50
 1148 1407 1148 1407 1148 1246 c 0,51,52
 1148 1149 1148 1149 1066 1052 c 0,53,54
 984 956 984 956 859 899 c 1,55,56
 1019 870 1019 870 1118 763 c 1,57,58
 1225 649 1225 649 1225 482 c 0,59,60
 1225 263 1225 263 1040 115 c 0,61,62
 866 -24 866 -24 657 -24 c 0,0,1
EndSplineSet
EndChar

StartChar: four
Encoding: 52 52 42
Width: 1370
GlyphClass: 2
Flags: W
LayerCount: 2
Fore
SplineSet
1069 82 m 1,0,-1
 1133 89 l 1,1,2
 1152 89 1152 89 1162 74.5 c 128,-1,3
 1172 60 1172 60 1172 48.5 c 128,-1,4
 1172 37 1172 37 1167.5 26.5 c 128,-1,5
 1163 16 1163 16 1152 7 c 0,6,7
 1119 -22 1119 -22 1008 -12 c 0,8,9
 977 -10 977 -10 950 -8 c 2,10,-1
 896 -2 l 2,11,12
 870 0 870 0 838 0 c 128,-1,13
 806 0 806 0 778 -2 c 2,14,-1
 720 -8 l 1,15,16
 632 -15 632 -15 593 -15 c 128,-1,17
 554 -15 554 -15 534.5 -8.5 c 128,-1,18
 515 -2 515 -2 502 7 c 0,19,20
 477 24 477 24 477 42 c 128,-1,21
 477 60 477 60 487 76 c 128,-1,22
 497 92 497 92 515 92 c 1,23,-1
 610 82 l 1,24,25
 677 82 677 82 701 143 c 0,26,27
 722 197 722 197 722 329 c 2,28,-1
 722 466 l 1,29,-1
 121 466 l 2,30,31
 67 466 67 466 48.5 480 c 128,-1,32
 30 494 30 494 30 510 c 0,33,34
 30 541 30 541 82 602 c 1,35,-1
 825 1509 l 1,36,-1
 825 1508 l 1,37,38
 854 1542 854 1542 879 1568.5 c 128,-1,39
 904 1595 904 1595 922 1595 c 0,40,41
 957 1595 957 1595 957 1528 c 2,42,-1
 957 607 l 1,43,-1
 1095 607 l 2,44,45
 1198 607 1198 607 1264 640 c 0,46,47
 1284 651 1284 651 1301 662 c 0,48,49
 1329 679 1329 679 1342 679 c 0,50,51
 1368 679 1368 679 1368 655 c 0,52,53
 1368 641 1368 641 1348.5 612 c 128,-1,54
 1329 583 1329 583 1314.5 544.5 c 128,-1,55
 1300 506 1300 506 1288 472 c 0,56,57
 1261 393 1261 393 1249 393 c 0,58,59
 1243 393 1243 393 1237 398.5 c 128,-1,60
 1231 404 1231 404 1220 412 c 128,-1,61
 1209 420 1209 420 1190.5 429.5 c 128,-1,62
 1172 439 1172 439 1142 447 c 0,63,64
 1069 466 1069 466 957 466 c 1,65,-1
 957 329 l 2,66,67
 957 196 957 196 974 154 c 128,-1,68
 991 112 991 112 1012.5 97 c 128,-1,69
 1034 82 1034 82 1069 82 c 1,0,-1
275 665 m 2,70,71
 248 631 248 631 248 614 c 0,72,73
 248 607 248 607 288 607 c 2,74,-1
 722 607 l 1,75,-1
 722 1212 l 1,76,-1
 275 665 l 2,70,71
EndSplineSet
EndChar

StartChar: five
Encoding: 53 53 43
Width: 1364
GlyphClass: 2
Flags: W
LayerCount: 2
Fore
SplineSet
332 989 m 1,0,1
 464 1053 464 1053 626 1053 c 128,-1,2
 788 1053 788 1053 895 1011 c 128,-1,3
 1002 969 1002 969 1076 896 c 0,4,5
 1226 747 1226 747 1226 514 c 0,6,7
 1226 263 1226 263 1026 112 c 0,8,9
 847 -24 847 -24 608 -24 c 0,10,11
 428 -24 428 -24 253 52 c 0,12,13
 193 78 193 78 142 113 c 1,14,-1
 142 416 l 2,15,16
 142 464 142 464 171 464 c 0,17,18
 184 464 184 464 193.5 450 c 128,-1,19
 203 436 203 436 223 386.5 c 128,-1,20
 243 337 243 337 285.5 283 c 128,-1,21
 328 229 328 229 385 192 c 0,22,23
 501 115 501 115 662 115 c 0,24,25
 916 115 916 115 978 333 c 0,26,27
 993 386 993 386 993 471.5 c 128,-1,28
 993 557 993 557 963 639 c 128,-1,29
 933 721 933 721 880 779 c 0,30,31
 769 901 769 901 591 901 c 0,32,33
 400 901 400 901 315 823 c 1,34,-1
 285 798 l 2,35,36
 272 787 272 787 261 787 c 0,37,38
 228 787 228 787 228 834 c 2,39,-1
 228 1520 l 1,40,41
 235 1561 235 1561 275 1561 c 2,42,-1
 588 1561 l 2,43,44
 784 1561 784 1561 849 1574 c 0,45,46
 957 1597 957 1597 1009 1647 c 1,47,48
 1044 1678 1044 1678 1057 1678 c 0,49,50
 1083 1678 1083 1678 1083 1651 c 0,51,52
 1083 1636 1083 1636 1072 1602 c 2,53,-1
 1046 1528 l 1,54,55
 1007 1413 1007 1413 1001 1362 c 1,56,-1
 332 1362 l 1,57,-1
 332 989 l 1,0,1
EndSplineSet
EndChar

StartChar: six
Encoding: 54 54 44
Width: 1365
GlyphClass: 2
Flags: W
LayerCount: 2
Fore
SplineSet
697 -24 m 0,0,1
 414 -24 414 -24 248 188 c 0,2,3
 78 405 78 405 78 783 c 0,4,5
 78 1114 78 1114 278 1352 c 0,6,7
 404 1502 404 1502 583 1562 c 0,8,9
 672 1591 672 1591 759 1591 c 128,-1,10
 846 1591 846 1591 905.5 1577.5 c 128,-1,11
 965 1564 965 1564 1009.5 1541.5 c 128,-1,12
 1054 1519 1054 1519 1085 1490 c 128,-1,13
 1116 1461 1116 1461 1135 1430 c 0,14,15
 1171 1373 1171 1373 1171 1316 c 0,16,17
 1171 1277 1171 1277 1158.5 1264.5 c 128,-1,18
 1146 1252 1146 1252 1134 1252 c 0,19,20
 1108 1252 1108 1252 1087 1295 c 1,21,22
 1008 1446 1008 1446 770 1446 c 0,23,24
 576 1446 576 1446 459 1286 c 0,25,26
 335 1117 335 1117 323 797 c 1,27,28
 408 980 408 980 632 1036 c 0,29,30
 702 1053 702 1053 794.5 1053 c 128,-1,31
 887 1053 887 1053 975.5 1016.5 c 128,-1,32
 1064 980 1064 980 1127 916 c 0,33,34
 1259 780 1259 780 1259 570 c 0,35,36
 1259 292 1259 292 1073 124 c 0,37,38
 908 -24 908 -24 697 -24 c 0,0,1
341 534 m 1,39,40
 382 332 382 332 498 224 c 0,41,42
 609 121 609 121 758 121 c 0,43,44
 878 121 878 121 952 206.5 c 128,-1,45
 1026 292 1026 292 1026 421.5 c 128,-1,46
 1026 551 1026 551 995 639 c 128,-1,47
 964 727 964 727 914 786 c 0,48,49
 817 901 817 901 684 901 c 0,50,51
 564 901 564 901 471 808 c 0,52,53
 372 709 372 709 341 534 c 1,39,40
EndSplineSet
EndChar

StartChar: seven
Encoding: 55 55 45
Width: 1195
GlyphClass: 2
Flags: W
LayerCount: 2
Fore
SplineSet
512 0 m 1,0,-1
 404 -8 l 1,1,2
 371 -8 371 -8 362 16 c 0,3,4
 352 40 352 40 428 219 c 1,5,6
 587 586 587 586 665 749 c 2,7,-1
 815 1060 l 1,8,-1
 967 1362 l 1,9,-1
 391 1362 l 2,10,11
 250 1362 250 1362 132 1219 c 1,12,13
 107 1194 107 1194 92 1194 c 0,14,15
 68 1194 68 1194 68 1219.5 c 128,-1,16
 68 1245 68 1245 76 1273 c 2,17,-1
 128 1444 l 2,18,19
 145 1503 145 1503 153 1553.5 c 128,-1,20
 161 1604 161 1604 171 1614 c 128,-1,21
 181 1624 181 1624 193 1624 c 0,22,23
 213 1624 213 1624 245 1584 c 0,24,25
 264 1561 264 1561 354 1561 c 2,26,-1
 1101 1561 l 2,27,28
 1136 1561 1136 1561 1150.5 1557.5 c 128,-1,29
 1165 1554 1165 1554 1165 1540 c 128,-1,30
 1165 1526 1165 1526 1158 1513 c 0,31,32
 1090 1377 1090 1377 987.5 1113.5 c 128,-1,33
 885 850 885 850 827 672 c 0,34,35
 716 332 716 332 666 31 c 0,36,37
 659 -8 659 -8 624 -8 c 1,38,-1
 512 0 l 1,0,-1
EndSplineSet
EndChar

StartChar: eight
Encoding: 56 56 46
Width: 1366
GlyphClass: 2
Flags: W
LayerCount: 2
Fore
SplineSet
971 846 m 1,0,1
 1300 676 1300 676 1300 441 c 0,2,3
 1300 250 1300 250 1136 116 c 1,4,5
 962 -24 962 -24 691 -24 c 0,6,7
 379 -24 379 -24 212 118 c 0,8,9
 70 239 70 239 70 423 c 0,10,11
 70 565 70 565 170 682 c 0,12,13
 264 791 264 791 409 837 c 1,14,15
 159 1000 159 1000 159 1206 c 0,16,17
 159 1274 159 1274 194 1343 c 128,-1,18
 229 1412 229 1412 296 1467 c 0,19,20
 449 1591 449 1591 689 1591 c 0,21,22
 925 1591 925 1591 1076 1478 c 0,23,24
 1216 1373 1216 1373 1216 1222 c 0,25,26
 1216 1106 1216 1106 1146 1001 c 0,27,28
 1081 902 1081 902 971 846 c 1,0,1
1007 1187 m 0,29,30
 1007 1445 1007 1445 667 1445 c 0,31,32
 534 1445 534 1445 463 1399 c 128,-1,33
 392 1353 392 1353 392 1267 c 0,34,35
 392 1194 392 1194 478 1108 c 0,36,37
 584 1002 584 1002 799 920 c 0,38,39
 825 910 825 910 851 900 c 1,40,41
 969 970 969 970 998 1111 c 0,42,43
 1007 1151 1007 1151 1007 1187 c 0,29,30
307 560 m 0,44,45
 288 506 288 506 288 437.5 c 128,-1,46
 288 369 288 369 322 311 c 128,-1,47
 356 253 356 253 416 212 c 0,48,49
 542 127 542 127 745 127 c 0,50,51
 967 127 967 127 1032 252 c 0,52,53
 1054 295 1054 295 1054 359 c 128,-1,54
 1054 423 1054 423 1014.5 477.5 c 128,-1,55
 975 532 975 532 911 578 c 0,56,57
 810 652 810 652 602 737 c 1,58,-1
 534 769 l 1,59,60
 363 716 363 716 307 560 c 0,44,45
EndSplineSet
EndChar

StartChar: nine
Encoding: 57 57 47
Width: 1366
GlyphClass: 2
Flags: W
LayerCount: 2
Fore
SplineSet
193 162.5 m 128,-1,1
 169 209 169 209 169 232 c 128,-1,2
 169 255 169 255 171 266.5 c 128,-1,3
 173 278 173 278 177 288 c 0,4,5
 186 311 186 311 203 311 c 0,6,7
 233 311 233 311 253 267 c 0,8,9
 286 193 286 193 356 159.5 c 128,-1,10
 426 126 426 126 526.5 126 c 128,-1,11
 627 126 627 126 710 158.5 c 128,-1,12
 793 191 793 191 860 264 c 0,13,14
 1006 423 1006 423 1017 735 c 1,15,16
 911 587 911 587 730 542 c 0,17,18
 669 526 669 526 584.5 526 c 128,-1,19
 500 526 500 526 409 564.5 c 128,-1,20
 318 603 318 603 249 672 c 0,21,22
 99 824 99 824 99 1051 c 0,23,24
 99 1294 99 1294 264 1446 c 0,25,26
 421 1591 421 1591 645 1591 c 0,27,28
 932 1591 932 1591 1100 1383 c 0,29,30
 1266 1178 1266 1178 1266 838 c 0,31,32
 1266 460 1266 460 1084 222 c 0,33,34
 897 -24 897 -24 586 -24 c 0,35,36
 387 -24 387 -24 268 74 c 0,37,0
 217 116 217 116 193 162.5 c 128,-1,1
568.5 718.5 m 128,-1,39
 629 688 629 688 689 688 c 128,-1,40
 749 688 749 688 798.5 704 c 128,-1,41
 848 720 848 720 886 752 c 0,42,43
 956 812 956 812 1001 947 c 1,44,45
 976 1200 976 1200 873 1328 c 0,46,47
 778 1446 778 1446 630 1446 c 0,48,49
 421 1446 421 1446 360 1282 c 0,50,51
 340 1226 340 1226 340 1132 c 128,-1,52
 340 1038 340 1038 373 952 c 128,-1,53
 406 866 406 866 457 807.5 c 128,-1,38
 508 749 508 749 568.5 718.5 c 128,-1,39
EndSplineSet
EndChar

StartChar: less
Encoding: 60 60 50
Width: 1026
GlyphClass: 2
Flags: W
LayerCount: 2
Fore
SplineSet
160 588 m 1,0,-1
 866 1016 l 1,1,-1
 866 839 l 1,2,-1
 403 558 l 1,3,-1
 866 270 l 1,4,-1
 866 88 l 1,5,-1
 160 521 l 1,6,-1
 160 588 l 1,0,-1
EndSplineSet
EndChar

StartChar: equal
Encoding: 61 61 51
Width: 1285
GlyphClass: 2
Flags: W
LayerCount: 2
Fore
SplineSet
140 873 m 1,0,-1
 1145 873 l 1,1,-1
 1145 724 l 1,2,-1
 140 724 l 1,3,-1
 140 873 l 1,0,-1
140 540 m 1,4,-1
 1145 540 l 1,5,-1
 1145 391 l 1,6,-1
 140 391 l 1,7,-1
 140 540 l 1,4,-1
EndSplineSet
EndChar

StartChar: greater
Encoding: 62 62 52
Width: 1026
GlyphClass: 2
Flags: W
LayerCount: 2
Fore
SplineSet
160 270 m 1,0,-1
 623 558 l 1,1,-1
 160 839 l 1,2,-1
 160 1016 l 1,3,-1
 866 588 l 1,4,-1
 866 521 l 1,5,-1
 160 88 l 1,6,-1
 160 270 l 1,0,-1
EndSplineSet
EndChar

StartChar: question
Encoding: 63 63 53
Width: 1034
GlyphClass: 2
Flags: W
LayerCount: 2
Fore
SplineSet
592 500 m 0,0,1
 592 448 592 448 523 448 c 0,2,3
 469 448 469 448 440 477 c 0,4,5
 385 530 385 530 385 603 c 0,6,7
 385 742 385 742 575 971 c 0,8,9
 715 1139 715 1139 715 1277 c 0,10,11
 715 1421 715 1421 587 1457 c 0,12,13
 548 1468 548 1468 501 1468 c 0,14,15
 405 1468 405 1468 331.5 1403 c 128,-1,16
 258 1338 258 1338 225 1213 c 1,17,18
 221 1193 221 1193 207 1173.5 c 128,-1,19
 193 1154 193 1154 177 1154 c 0,20,21
 139 1154 139 1154 139 1202 c 2,22,-1
 139 1483 l 1,23,24
 322 1587 322 1587 527 1587 c 0,25,26
 745 1587 745 1587 858 1500 c 0,27,28
 961 1420 961 1420 961 1287 c 0,29,30
 961 1124 961 1124 792 956 c 0,31,32
 737 900 737 900 660 836 c 0,33,34
 484 691 484 691 484 599 c 0,35,36
 484 575 484 575 501 566 c 128,-1,37
 518 557 518 557 538 551 c 128,-1,38
 558 545 558 545 575 535.5 c 128,-1,39
 592 526 592 526 592 500 c 0,0,1
368 69 m 128,-1,41
 359 94 359 94 359 120 c 128,-1,42
 359 146 359 146 370 173 c 128,-1,43
 381 200 381 200 401 220 c 0,44,45
 444 265 444 265 495 265 c 128,-1,46
 546 265 546 265 573 251 c 128,-1,47
 600 237 600 237 618 216 c 0,48,49
 654 172 654 172 654 128 c 128,-1,50
 654 84 654 84 642 58.5 c 128,-1,51
 630 33 630 33 610 14 c 0,52,53
 567 -24 567 -24 518 -24 c 128,-1,54
 469 -24 469 -24 441 -10.5 c 128,-1,55
 413 3 413 3 395 23.5 c 128,-1,40
 377 44 377 44 368 69 c 128,-1,41
EndSplineSet
EndChar

StartChar: at
Encoding: 64 64 54
Width: 2325
GlyphClass: 2
Flags: W
LayerCount: 2
Fore
SplineSet
1549 130 m 1,0,-1
 1548 126 l 1,1,2
 1548 120 1548 120 1553 120 c 0,3,4
 1654 120 1654 120 1758 186 c 0,5,6
 1935 297 1935 297 1992 528 c 0,7,8
 2013 609 2013 609 2013 665 c 0,9,10
 2013 735 2013 735 2011 763 c 0,11,12
 1995 1007 1995 1007 1834 1144 c 0,13,14
 1676 1279 1676 1279 1412 1279 c 0,15,16
 1105 1279 1105 1279 858 1120 c 0,17,18
 635 976 635 976 505 734 c 0,19,20
 381 503 381 503 381 254 c 0,21,22
 381 -59 381 -59 549 -236 c 0,23,24
 712 -407 712 -407 1020 -407 c 0,25,26
 1163 -407 1163 -407 1267 -376 c 0,27,28
 1448 -323 1448 -323 1468 -281 c 0,29,30
 1471 -275 1471 -275 1471 -265.5 c 128,-1,31
 1471 -256 1471 -256 1476 -246 c 0,32,33
 1489 -220 1489 -220 1514 -220 c 128,-1,34
 1539 -220 1539 -220 1562.5 -231.5 c 128,-1,35
 1586 -243 1586 -243 1595 -268 c 128,-1,36
 1604 -293 1604 -293 1586 -331.5 c 128,-1,37
 1568 -370 1568 -370 1514.5 -410 c 128,-1,38
 1461 -450 1461 -450 1382 -476 c 0,39,40
 1226 -526 1226 -526 1025.5 -526 c 128,-1,41
 825 -526 825 -526 684 -487 c 128,-1,42
 543 -448 543 -448 431 -366 c 0,43,44
 162 -171 162 -171 162 214 c 0,45,46
 162 521 162 521 326 790 c 0,47,48
 492 1064 492 1064 782 1224 c 0,49,50
 1091 1394 1091 1394 1475 1394 c 0,51,52
 1798 1394 1798 1394 1999 1246 c 0,53,54
 2206 1093 2206 1093 2224 816 c 0,55,56
 2225 805 2225 805 2225 796 c 2,57,-1
 2225 775 l 2,58,59
 2225 579 2225 579 2114 396 c 0,60,61
 2012 227 2012 227 1852 119 c 0,62,63
 1694 12 1694 12 1547 12 c 1,64,-1
 1472 16 l 1,65,-1
 1359 10 l 1,66,67
 1298 10 1298 10 1293 91 c 0,68,69
 1293 98 1293 98 1292.5 104.5 c 128,-1,70
 1292 111 1292 111 1292 119 c 1,71,72
 1154 -14 1154 -14 1004 -14 c 0,73,74
 832 -14 832 -14 753 82 c 0,75,76
 689 161 689 161 689 283 c 2,77,-1
 689 300 l 2,78,79
 689 409 689 409 732 514 c 128,-1,80
 775 619 775 619 855 701.5 c 128,-1,81
 935 784 935 784 1050.5 834.5 c 128,-1,82
 1166 885 1166 885 1310 885 c 0,83,84
 1533 885 1533 885 1655 766 c 1,85,-1
 1549 130 l 1,0,-1
959 297 m 2,86,87
 959 107 959 107 1084 107 c 0,88,89
 1169 107 1169 107 1264 211 c 0,90,91
 1293 242 1293 242 1318 278 c 1,92,-1
 1395 724 l 1,93,94
 1344 780 1344 780 1282.5 780 c 128,-1,95
 1221 780 1221 780 1165.5 743.5 c 128,-1,96
 1110 707 1110 707 1064 644 c 1,97,98
 959 496 959 496 959 314 c 2,99,-1
 959 297 l 2,86,87
EndSplineSet
EndChar

StartChar: A
Encoding: 65 65 55
Width: 1707
GlyphClass: 2
Flags: W
LayerCount: 2
Fore
SplineSet
196 0 m 1,0,-1
 53 -15 l 1,1,2
 11 -15 11 -15 -9.5 5 c 128,-1,3
 -30 25 -30 25 -30 43 c 0,4,5
 -30 89 -30 89 9 89 c 1,6,-1
 58 83 l 1,7,8
 104 83 104 83 132 118 c 0,9,10
 182 182 182 182 268 367 c 2,11,-1
 804 1526 l 2,12,13
 833 1588 833 1588 844.5 1594.5 c 128,-1,14
 856 1601 856 1601 865.5 1601 c 128,-1,15
 875 1601 875 1601 885.5 1593.5 c 128,-1,16
 896 1586 896 1586 909 1566 c 0,17,18
 935 1527 935 1527 979 1430 c 2,19,-1
 1508 275 l 2,20,21
 1559 164 1559 164 1591 131 c 0,22,23
 1638 83 1638 83 1678 83 c 1,24,-1
 1728 90 l 1,25,26
 1748 90 1748 90 1757 75.5 c 128,-1,27
 1766 61 1766 61 1766 42 c 128,-1,28
 1766 23 1766 23 1745.5 4 c 128,-1,29
 1725 -15 1725 -15 1680 -15 c 1,30,-1
 1483 0 l 1,31,-1
 1235 -15 l 1,32,33
 1162 -15 1162 -15 1140 26 c 0,34,35
 1135 37 1135 37 1135 46 c 0,36,37
 1135 89 1135 89 1172 89 c 1,38,-1
 1244 80 l 1,39,40
 1305 80 1305 80 1305 115 c 0,41,42
 1305 157 1305 157 1264 246 c 1,43,-1
 1195 378 l 1,44,45
 1181 407 1181 407 1155.5 421.5 c 128,-1,46
 1130 436 1130 436 1077 436 c 2,47,-1
 553 436 l 2,48,49
 450 436 450 436 423 372 c 1,50,-1
 394 286 l 1,51,52
 341 161 341 161 339 127 c 1,53,54
 339 83 339 83 411 83 c 1,55,-1
 461 90 l 1,56,57
 478 90 478 90 488.5 76.5 c 128,-1,58
 499 63 499 63 499 42.5 c 128,-1,59
 499 22 499 22 473.5 3.5 c 128,-1,60
 448 -15 448 -15 397 -15 c 1,61,-1
 196 0 l 1,0,-1
986 564 m 2,62,63
 1098 564 1098 564 1098 591 c 0,64,65
 1098 597 1098 597 1090 615 c 2,66,-1
 875 1139 l 1,67,68
 838 1233 838 1233 821 1233 c 0,69,70
 803 1233 803 1233 774 1164 c 1,71,-1
 542 634 l 2,72,73
 528 603 528 603 528 591 c 0,74,75
 528 564 528 564 639 564 c 2,76,-1
 986 564 l 2,62,63
EndSplineSet
EndChar

StartChar: B
Encoding: 66 66 56
Width: 1581
GlyphClass: 2
Flags: W
LayerCount: 2
Fore
SplineSet
444 0 m 1,0,-1
 198 -14 l 1,1,2
 126 -14 126 -14 108 28 c 0,3,4
 104 39 104 39 104 50.5 c 128,-1,5
 104 62 104 62 114 76 c 128,-1,6
 124 90 124 90 143 90 c 1,7,-1
 207 84 l 1,8,9
 276 84 276 84 299 138 c 0,10,11
 320 187 320 187 320 316 c 2,12,-1
 320 1232 l 2,13,14
 320 1365 320 1365 301.5 1406 c 128,-1,15
 283 1447 283 1447 257.5 1462 c 128,-1,16
 232 1477 232 1477 192 1477 c 1,17,-1
 143 1471 l 1,18,19
 124 1471 124 1471 114 1484 c 128,-1,20
 104 1497 104 1497 104 1510 c 128,-1,21
 104 1523 104 1523 108.5 1533.5 c 128,-1,22
 113 1544 113 1544 124 1553 c 0,23,24
 149 1575 149 1575 193.5 1575 c 128,-1,25
 238 1575 238 1575 265 1573 c 128,-1,26
 292 1571 292 1571 316 1568 c 0,27,28
 374 1561 374 1561 436.5 1561 c 128,-1,29
 499 1561 499 1561 553.5 1566 c 128,-1,30
 608 1571 608 1571 659 1576 c 2,31,-1
 758 1587 l 2,32,33
 805 1592 805 1592 875 1592 c 128,-1,34
 945 1592 945 1592 1020.5 1578 c 128,-1,35
 1096 1564 1096 1564 1151.5 1539.5 c 128,-1,36
 1207 1515 1207 1515 1244 1481 c 128,-1,37
 1281 1447 1281 1447 1304 1408 c 0,38,39
 1345 1336 1345 1336 1345 1229 c 128,-1,40
 1345 1122 1345 1122 1274 1026.5 c 128,-1,41
 1203 931 1203 931 1072 874 c 1,42,43
 1258 830 1258 830 1369 722 c 0,44,45
 1482 612 1482 612 1482 470 c 0,46,47
 1482 257 1482 257 1327 122 c 0,48,49
 1161 -24 1161 -24 870 -24 c 0,50,51
 823 -24 823 -24 722 -16 c 0,52,53
 522 0 522 0 444 0 c 1,0,-1
553 925 m 1,54,55
 654 906 654 906 750 906 c 128,-1,56
 846 906 846 906 904.5 923 c 128,-1,57
 963 940 963 940 1006 976 c 0,58,59
 1097 1052 1097 1052 1097 1202 c 0,60,61
 1097 1426 1097 1426 797 1426 c 0,62,63
 665 1426 665 1426 623.5 1411.5 c 128,-1,64
 582 1397 582 1397 567.5 1378 c 128,-1,65
 553 1359 553 1359 553 1329 c 2,66,-1
 553 925 l 1,54,55
945 760 m 0,67,68
 855 779 855 779 751 779 c 128,-1,69
 647 779 647 779 553 764 c 1,70,-1
 553 265 l 2,71,72
 553 194 553 194 626.5 160.5 c 128,-1,73
 700 127 700 127 819 127 c 128,-1,74
 938 127 938 127 1005.5 142.5 c 128,-1,75
 1073 158 1073 158 1122 196 c 0,76,77
 1228 277 1228 277 1228 460 c 0,78,79
 1228 702 1228 702 945 760 c 0,67,68
EndSplineSet
EndChar

StartChar: C
Encoding: 67 67 57
Width: 1667
GlyphClass: 2
Flags: W
LayerCount: 2
Fore
SplineSet
1546 208 m 1,0,1
 1303 -23 1303 -23 943 -23 c 0,2,3
 558 -23 558 -23 324 210 c 1,4,5
 215 317 215 317 157 460 c 128,-1,6
 99 603 99 603 99 747 c 128,-1,7
 99 891 99 891 128 1001.5 c 128,-1,8
 157 1112 157 1112 210 1204 c 128,-1,9
 263 1296 263 1296 338.5 1368.5 c 128,-1,10
 414 1441 414 1441 506 1490 c 0,11,12
 696 1592 696 1592 932 1592 c 0,13,14
 1102 1592 1102 1592 1259 1516 c 0,15,16
 1288 1502 1288 1502 1312 1502 c 128,-1,17
 1336 1502 1336 1502 1375.5 1542 c 128,-1,18
 1415 1582 1415 1582 1429.5 1595 c 128,-1,19
 1444 1608 1444 1608 1458 1608 c 0,20,21
 1486 1608 1486 1608 1486 1563.5 c 128,-1,22
 1486 1519 1486 1519 1487.5 1489 c 128,-1,23
 1489 1459 1489 1459 1493 1430 c 0,24,25
 1501 1373 1501 1373 1518 1310 c 0,26,27
 1553 1175 1553 1175 1553 1150 c 128,-1,28
 1553 1125 1553 1125 1540 1114.5 c 128,-1,29
 1527 1104 1527 1104 1514 1104 c 0,30,31
 1482 1104 1482 1104 1468 1130 c 0,32,33
 1296 1446 1296 1446 879 1446 c 0,34,35
 775 1446 775 1446 677.5 1399.5 c 128,-1,36
 580 1353 580 1353 504 1270 c 0,37,38
 336 1088 336 1088 336 832 c 0,39,40
 336 505 336 505 540 308 c 0,41,42
 733 123 733 123 1027 123 c 0,43,44
 1259 123 1259 123 1380 314 c 0,45,46
 1426 386 1426 386 1454 498 c 0,47,48
 1470 561 1470 561 1509 561 c 0,49,50
 1546 561 1546 561 1546 497 c 2,51,-1
 1546 208 l 1,0,1
EndSplineSet
EndChar

StartChar: D
Encoding: 68 68 58
Width: 1838
GlyphClass: 2
Flags: W
LayerCount: 2
Fore
SplineSet
193 1477 m 1,0,-1
 143 1471 l 1,1,2
 124 1471 124 1471 114 1484 c 128,-1,3
 104 1497 104 1497 104 1510 c 128,-1,4
 104 1523 104 1523 108.5 1533.5 c 128,-1,5
 113 1544 113 1544 124 1553 c 0,6,7
 151 1575 151 1575 195.5 1575 c 128,-1,8
 240 1575 240 1575 268 1573 c 128,-1,9
 296 1571 296 1571 322 1568 c 0,10,11
 383 1561 383 1561 446.5 1561 c 128,-1,12
 510 1561 510 1561 560.5 1566 c 128,-1,13
 611 1571 611 1571 660 1576 c 0,14,15
 798 1592 798 1592 874 1592 c 0,16,17
 1337 1592 1337 1592 1576 1368 c 0,18,19
 1799 1159 1799 1159 1799 785 c 0,20,21
 1799 554 1799 554 1676 366 c 0,22,23
 1559 186 1559 186 1352 81 c 0,24,25
 1144 -24 1144 -24 891 -24 c 0,26,27
 772 -24 772 -24 684 -16 c 2,28,-1
 549 -4 l 2,29,30
 502 0 502 0 457 0 c 128,-1,31
 412 0 412 0 384.5 -2.5 c 128,-1,32
 357 -5 357 -5 329 -8 c 0,33,34
 254 -16 254 -16 212.5 -16 c 128,-1,35
 171 -16 171 -16 153 -9.5 c 128,-1,36
 135 -3 135 -3 124 6 c 0,37,38
 104 22 104 22 104 41 c 0,39,40
 104 88 104 88 143 88 c 1,41,-1
 208 82 l 1,42,43
 276 82 276 82 299 136 c 0,44,45
 320 185 320 185 320 314 c 2,46,-1
 320 1232 l 2,47,48
 320 1363 320 1363 301.5 1405 c 128,-1,49
 283 1447 283 1447 258 1462 c 128,-1,50
 233 1477 233 1477 193 1477 c 1,0,-1
559 269 m 2,51,52
 559 184 559 184 624 154 c 0,53,54
 689 125 689 125 863.5 125 c 128,-1,55
 1038 125 1038 125 1160 156 c 128,-1,56
 1282 187 1282 187 1367 261 c 0,57,58
 1541 412 1541 412 1541 763 c 0,59,60
 1541 1105 1541 1105 1356 1280 c 0,61,62
 1180 1446 1180 1446 851 1446 c 0,63,64
 702 1446 702 1446 650 1428 c 128,-1,65
 598 1410 598 1410 578.5 1387.5 c 128,-1,66
 559 1365 559 1365 559 1331 c 2,67,-1
 559 269 l 2,51,52
EndSplineSet
EndChar

StartChar: E
Encoding: 69 69 59
Width: 1440
GlyphClass: 2
Flags: W
LayerCount: 2
Fore
SplineSet
555 264 m 2,0,1
 555 129 555 129 649 129 c 2,2,-1
 858 129 l 2,3,4
 1105 129 1105 129 1229 240 c 0,5,6
 1265 273 1265 273 1297 308 c 2,7,-1
 1332 346 l 1,8,9
 1365 379 1365 379 1376.5 381 c 128,-1,10
 1388 383 1388 383 1396 384 c 0,11,12
 1448 387 1448 387 1389 272 c 1,13,14
 1329 152 1329 152 1289 0 c 1,15,-1
 455 0 l 2,16,17
 414 0 414 0 384 -2 c 2,18,-1
 268 -12 l 2,19,20
 238 -15 238 -15 204.5 -15 c 128,-1,21
 171 -15 171 -15 152.5 -8.5 c 128,-1,22
 134 -2 134 -2 124 7 c 0,23,24
 104 24 104 24 104 42.5 c 128,-1,25
 104 61 104 61 114 75.5 c 128,-1,26
 124 90 124 90 143 90 c 1,27,-1
 207 83 l 1,28,29
 276 83 276 83 300 144 c 0,30,31
 320 194 320 194 320 330 c 2,32,-1
 320 1233 l 2,33,34
 320 1366 320 1366 301.5 1407 c 128,-1,35
 283 1448 283 1448 257.5 1463 c 128,-1,36
 232 1478 232 1478 192 1478 c 1,37,-1
 143 1472 l 1,38,39
 124 1472 124 1472 114 1485 c 128,-1,40
 104 1498 104 1498 104 1511 c 128,-1,41
 104 1524 104 1524 108.5 1534.5 c 128,-1,42
 113 1545 113 1545 124 1554 c 0,43,44
 149 1576 149 1576 193.5 1576 c 128,-1,45
 238 1576 238 1576 264 1574 c 2,46,-1
 316 1568 l 1,47,48
 389 1561 389 1561 444 1561 c 2,49,-1
 1271 1561 l 1,50,51
 1278 1488 1278 1488 1297 1407 c 2,52,-1
 1324 1294 l 2,53,54
 1331 1261 1331 1261 1331 1247 c 0,55,56
 1331 1219 1331 1219 1310 1219 c 0,57,58
 1297 1219 1297 1219 1262 1258 c 2,59,-1
 1202 1324 l 1,60,61
 1146 1383 1146 1383 1112.5 1398.5 c 128,-1,62
 1079 1414 1079 1414 1052 1420 c 0,63,64
 1002 1431 1002 1431 919 1431 c 2,65,-1
 649 1431 l 2,66,67
 595 1431 595 1431 575 1408 c 128,-1,68
 555 1385 555 1385 555 1342 c 2,69,-1
 555 916 l 2,70,71
 555 863 555 863 643 863 c 2,72,-1
 890 863 l 2,73,74
 960 863 960 863 1018 933 c 0,75,76
 1038 957 1038 957 1048 980.5 c 128,-1,77
 1058 1004 1058 1004 1064.5 1012 c 128,-1,78
 1071 1020 1071 1020 1083 1020 c 0,79,80
 1115 1020 1115 1020 1115 964 c 1,81,-1
 1107 803 l 1,82,-1
 1115 634 l 1,83,84
 1115 578 1115 578 1083 578 c 0,85,86
 1071 578 1071 578 1065 586.5 c 128,-1,87
 1059 595 1059 595 1049 618.5 c 128,-1,88
 1039 642 1039 642 1018.5 665.5 c 128,-1,89
 998 689 998 689 976 704 c 0,90,91
 934 734 934 734 890 734 c 2,92,-1
 642 734 l 2,93,94
 600 734 600 734 577.5 716 c 128,-1,95
 555 698 555 698 555 672 c 2,96,-1
 555 264 l 2,0,1
EndSplineSet
EndChar

StartChar: F
Encoding: 70 70 60
Width: 1411
GlyphClass: 2
Flags: W
LayerCount: 2
Fore
SplineSet
728 -14 m 1,0,-1
 439 0 l 1,1,2
 389 0 389 0 344 -5 c 0,3,4
 263 -14 263 -14 217.5 -14 c 128,-1,5
 172 -14 172 -14 154 -7.5 c 128,-1,6
 136 -1 136 -1 125 8 c 0,7,8
 105 24 105 24 105 43 c 0,9,10
 105 90 105 90 144 90 c 1,11,-1
 208 84 l 1,12,13
 277 84 277 84 300 138 c 0,14,15
 320 185 320 185 320 316 c 2,16,-1
 320 1233 l 2,17,18
 320 1368 320 1368 302 1408 c 128,-1,19
 284 1448 284 1448 259 1463 c 128,-1,20
 234 1478 234 1478 193 1478 c 1,21,-1
 144 1472 l 1,22,23
 125 1472 125 1472 115 1485 c 128,-1,24
 105 1498 105 1498 105 1511 c 128,-1,25
 105 1524 105 1524 109.5 1534.5 c 128,-1,26
 114 1545 114 1545 125 1554 c 0,27,28
 152 1576 152 1576 196 1576 c 128,-1,29
 240 1576 240 1576 271 1574 c 2,30,-1
 388 1564 l 2,31,32
 416 1561 416 1561 452 1561 c 2,33,-1
 1290 1561 l 1,34,35
 1297 1514 1297 1514 1310 1466 c 2,36,-1
 1335 1371 l 2,37,38
 1364 1264 1364 1264 1364 1228.5 c 128,-1,39
 1364 1193 1364 1193 1342 1193 c 0,40,41
 1325 1193 1325 1193 1298 1227 c 128,-1,42
 1271 1261 1271 1261 1238 1298.5 c 128,-1,43
 1205 1336 1205 1336 1164 1366 c 1,44,45
 1071 1431 1071 1431 939 1431 c 2,46,-1
 649 1431 l 2,47,48
 605 1431 605 1431 580.5 1402 c 128,-1,49
 556 1373 556 1373 556 1322 c 2,50,-1
 556 912 l 2,51,52
 556 859 556 859 643 859 c 2,53,-1
 918 859 l 2,54,55
 986 859 986 859 1044 929 c 0,56,57
 1064 953 1064 953 1074 976.5 c 128,-1,58
 1084 1000 1084 1000 1090.5 1008 c 128,-1,59
 1097 1016 1097 1016 1111 1016 c 0,60,61
 1141 1016 1141 1016 1141 960 c 1,62,-1
 1133 787 l 1,63,-1
 1141 630 l 1,64,65
 1141 574 1141 574 1111 574 c 0,66,67
 1090 574 1090 574 1079 604 c 1,68,69
 1037 697 1037 697 959 722 c 0,70,71
 937 729 937 729 918 729 c 2,72,-1
 642 729 l 2,73,74
 601 729 601 729 578.5 711.5 c 128,-1,75
 556 694 556 694 556 668 c 2,76,-1
 556 316 l 2,77,78
 556 186 556 186 572 148 c 128,-1,79
 588 110 588 110 610 97 c 128,-1,80
 632 84 632 84 668 84 c 1,81,-1
 795 93 l 1,82,83
 812 93 812 93 822 77.5 c 128,-1,84
 832 62 832 62 832 50.5 c 128,-1,85
 832 39 832 39 826 28 c 128,-1,86
 820 17 820 17 808 8 c 0,87,88
 777 -14 777 -14 728 -14 c 1,0,-1
EndSplineSet
EndChar

StartChar: G
Encoding: 71 71 61
Width: 1827
GlyphClass: 2
Flags: W
LayerCount: 2
Fore
SplineSet
1767 736 m 1,0,-1
 1696 745 l 1,1,2
 1645 745 1645 745 1644 589 c 0,3,4
 1643 548 1643 548 1643 512 c 2,5,-1
 1643 203 l 1,6,-1
 1553 156 l 2,7,8
 1515 136 1515 136 1480 111 c 128,-1,9
 1445 86 1445 86 1392 59.5 c 128,-1,10
 1339 33 1339 33 1276 14 c 0,11,12
 1148 -23 1148 -23 957 -23 c 128,-1,13
 766 -23 766 -23 603 37.5 c 128,-1,14
 440 98 440 98 328 202 c 0,15,16
 98 416 98 416 98 744 c 0,17,18
 98 926 98 926 163 1081.5 c 128,-1,19
 228 1237 228 1237 346 1350 c 0,20,21
 599 1592 599 1592 998 1592 c 0,22,23
 1155 1592 1155 1592 1299 1535 c 0,24,25
 1339 1519 1339 1519 1358 1519 c 0,26,27
 1388 1519 1388 1519 1424 1558 c 1,28,29
 1483 1619 1483 1619 1503 1619 c 0,30,31
 1533 1619 1533 1619 1533 1570 c 128,-1,32
 1533 1521 1533 1521 1543 1467 c 128,-1,33
 1553 1413 1553 1413 1566 1362 c 1,34,-1
 1588 1268 l 2,35,36
 1598 1225 1598 1225 1598 1203 c 0,37,38
 1598 1156 1598 1156 1571 1156 c 0,39,40
 1548 1156 1548 1156 1535 1179 c 0,41,42
 1463 1309 1463 1309 1299 1380 c 0,43,44
 1147 1446 1147 1446 986 1446 c 128,-1,45
 825 1446 825 1446 711 1398.5 c 128,-1,46
 597 1351 597 1351 516 1267 c 0,47,48
 345 1090 345 1090 345 816 c 0,49,50
 345 501 345 501 549 308 c 1,51,52
 746 123 746 123 1047 123 c 0,53,54
 1172 123 1172 123 1284 174 c 0,55,56
 1412 232 1412 232 1412 322 c 2,57,-1
 1412 512 l 2,58,59
 1412 642 1412 642 1395.5 680.5 c 128,-1,60
 1379 719 1379 719 1357 732 c 128,-1,61
 1335 745 1335 745 1300 745 c 1,62,-1
 1226 734 l 1,63,64
 1207 734 1207 734 1197 750 c 128,-1,65
 1187 766 1187 766 1187 777.5 c 128,-1,66
 1187 789 1187 789 1191.5 800 c 128,-1,67
 1196 811 1196 811 1206 820 c 0,68,69
 1231 843 1231 843 1277 843 c 128,-1,70
 1323 843 1323 843 1355 840.5 c 128,-1,71
 1387 838 1387 838 1414 835 c 0,72,73
 1488 827 1488 827 1526 827 c 1,74,-1
 1712 843 l 1,75,76
 1784 843 1784 843 1802 800 c 0,77,78
 1806 789 1806 789 1806 777.5 c 128,-1,79
 1806 766 1806 766 1796 751 c 128,-1,80
 1786 736 1786 736 1767 736 c 1,0,-1
EndSplineSet
EndChar

StartChar: H
Encoding: 72 72 62
Width: 1937
GlyphClass: 2
Flags: W
LayerCount: 2
Fore
SplineSet
668 83 m 1,0,-1
 732 89 l 1,1,2
 751 89 751 89 761 75 c 128,-1,3
 771 61 771 61 771 49.5 c 128,-1,4
 771 38 771 38 766.5 27 c 128,-1,5
 762 16 762 16 751 7 c 0,6,7
 716 -22 716 -22 606 -12 c 0,8,9
 575 -10 575 -10 548 -8 c 2,10,-1
 494 -2 l 2,11,12
 468 0 468 0 437 0 c 256,13,14
 406 0 406 0 380 -2 c 2,15,-1
 327 -8 l 1,16,17
 246 -15 246 -15 208.5 -15 c 128,-1,18
 171 -15 171 -15 153 -8.5 c 128,-1,19
 135 -2 135 -2 124 7 c 0,20,21
 104 23 104 23 104 42 c 128,-1,22
 104 61 104 61 114 75 c 128,-1,23
 124 89 124 89 142 89 c 1,24,-1
 208 83 l 1,25,26
 276 83 276 83 299 137 c 0,27,28
 320 186 320 186 320 315 c 2,29,-1
 320 1245 l 2,30,31
 320 1375 320 1375 303.5 1413.5 c 128,-1,32
 287 1452 287 1452 265 1465 c 128,-1,33
 243 1478 243 1478 208 1478 c 1,34,-1
 142 1472 l 1,35,36
 124 1472 124 1472 114 1485.5 c 128,-1,37
 104 1499 104 1499 104 1511 c 128,-1,38
 104 1523 104 1523 108.5 1533.5 c 128,-1,39
 113 1544 113 1544 124 1554 c 0,40,41
 150 1576 150 1576 194 1576 c 128,-1,42
 238 1576 238 1576 269 1573.5 c 128,-1,43
 300 1571 300 1571 327 1568 c 2,44,-1
 380 1564 l 1,45,46
 406 1561 406 1561 437 1561 c 256,47,48
 468 1561 468 1561 494 1564 c 1,49,-1
 548 1568 l 1,50,51
 629 1576 629 1576 666.5 1576 c 128,-1,52
 704 1576 704 1576 722 1569.5 c 128,-1,53
 740 1563 740 1563 751 1554 c 0,54,55
 771 1536 771 1536 771 1518 c 0,56,57
 771 1472 771 1472 732 1472 c 1,58,-1
 668 1478 l 1,59,60
 599 1478 599 1478 576 1424 c 0,61,62
 556 1377 556 1377 556 1245 c 2,63,-1
 556 1023 l 2,64,65
 556 972 556 972 662 972 c 2,66,-1
 1276 972 l 2,67,68
 1382 972 1382 972 1382 1023 c 2,69,-1
 1382 1245 l 2,70,71
 1382 1375 1382 1375 1365.5 1413.5 c 128,-1,72
 1349 1452 1349 1452 1327 1465 c 128,-1,73
 1305 1478 1305 1478 1270 1478 c 1,74,75
 1270 1478 1270 1478 1204 1472 c 1,76,77
 1187 1472 1187 1472 1177 1485.5 c 128,-1,78
 1167 1499 1167 1499 1167 1511 c 128,-1,79
 1167 1523 1167 1523 1171.5 1533.5 c 128,-1,80
 1176 1544 1176 1544 1186 1554 c 0,81,82
 1211 1576 1211 1576 1256 1576 c 128,-1,83
 1301 1576 1301 1576 1331.5 1573.5 c 128,-1,84
 1362 1571 1362 1571 1389 1568 c 2,85,-1
 1442 1564 l 1,86,87
 1468 1561 1468 1561 1499.5 1561 c 128,-1,88
 1531 1561 1531 1561 1558 1564 c 2,89,-1
 1611 1568 l 1,90,91
 1692 1576 1692 1576 1729 1576 c 128,-1,92
 1766 1576 1766 1576 1784.5 1569.5 c 128,-1,93
 1803 1563 1803 1563 1814 1554 c 1,94,95
 1833 1536 1833 1536 1833 1517.5 c 128,-1,96
 1833 1499 1833 1499 1822.5 1485.5 c 128,-1,97
 1812 1472 1812 1472 1795 1472 c 1,98,-1
 1730 1478 l 1,99,100
 1662 1478 1662 1478 1638 1424 c 1,101,102
 1617 1374 1617 1374 1617 1245 c 2,103,-1
 1617 315 l 2,104,105
 1617 187 1617 187 1634 148 c 128,-1,106
 1651 109 1651 109 1673 96 c 128,-1,107
 1695 83 1695 83 1730 83 c 1,108,-1
 1795 89 l 1,109,110
 1812 89 1812 89 1822.5 75 c 128,-1,111
 1833 61 1833 61 1833 49.5 c 128,-1,112
 1833 38 1833 38 1828.5 27 c 128,-1,113
 1824 16 1824 16 1814 7 c 0,114,115
 1780 -22 1780 -22 1668 -12 c 0,116,117
 1638 -10 1638 -10 1611 -8 c 1,118,-1
 1558 -2 l 1,119,120
 1531 0 1531 0 1499.5 0 c 128,-1,121
 1468 0 1468 0 1442 -2 c 2,122,-1
 1389 -8 l 1,123,124
 1308 -15 1308 -15 1270.5 -15 c 128,-1,125
 1233 -15 1233 -15 1215 -8.5 c 128,-1,126
 1197 -2 1197 -2 1186 7 c 0,127,128
 1167 24 1167 24 1167 42.5 c 128,-1,129
 1167 61 1167 61 1177 75 c 128,-1,130
 1187 89 1187 89 1204 89 c 1,131,-1
 1270 83 l 1,132,133
 1338 83 1338 83 1361 137 c 0,134,135
 1382 186 1382 186 1382 315 c 2,136,-1
 1382 766 l 2,137,138
 1382 792 1382 792 1357 810.5 c 128,-1,139
 1332 829 1332 829 1276 829 c 2,140,-1
 662 829 l 2,141,142
 605 829 605 829 580.5 810.5 c 128,-1,143
 556 792 556 792 556 766 c 2,144,-1
 556 315 l 2,145,146
 556 184 556 184 572 146.5 c 128,-1,147
 588 109 588 109 610 96 c 128,-1,148
 632 83 632 83 668 83 c 1,0,-1
EndSplineSet
EndChar

StartChar: I
Encoding: 73 73 63
Width: 876
GlyphClass: 2
Flags: W
LayerCount: 2
Fore
SplineSet
668 84 m 1,0,-1
 733 90 l 1,1,2
 752 90 752 90 761.5 76 c 128,-1,3
 771 62 771 62 771 50.5 c 128,-1,4
 771 39 771 39 766.5 28 c 128,-1,5
 762 17 762 17 752 8 c 0,6,7
 726 -14 726 -14 681.5 -14 c 128,-1,8
 637 -14 637 -14 606.5 -12 c 128,-1,9
 576 -10 576 -10 549 -7 c 0,10,11
 438 5 438 5 370 -2 c 0,12,13
 265 -14 265 -14 218.5 -14 c 128,-1,14
 172 -14 172 -14 153.5 -7.5 c 128,-1,15
 135 -1 135 -1 124 8 c 0,16,17
 105 25 105 25 105 43.5 c 128,-1,18
 105 62 105 62 115 76 c 128,-1,19
 125 90 125 90 144 90 c 1,20,-1
 208 84 l 1,21,22
 276 84 276 84 299 138 c 0,23,24
 320 187 320 187 320 316 c 2,25,-1
 320 1245 l 2,26,27
 320 1375 320 1375 303.5 1413.5 c 128,-1,28
 287 1452 287 1452 265 1465 c 128,-1,29
 243 1478 243 1478 208 1478 c 1,30,-1
 144 1472 l 1,31,32
 125 1472 125 1472 115 1485.5 c 128,-1,33
 105 1499 105 1499 105 1511 c 128,-1,34
 105 1523 105 1523 109.5 1533.5 c 128,-1,35
 114 1544 114 1544 124 1554 c 0,36,37
 149 1576 149 1576 194 1576 c 128,-1,38
 239 1576 239 1576 270 1573.5 c 128,-1,39
 301 1571 301 1571 328 1568 c 2,40,-1
 381 1564 l 1,41,42
 407 1561 407 1561 438.5 1561 c 128,-1,43
 470 1561 470 1561 496 1564 c 1,44,-1
 549 1568 l 1,45,46
 630 1576 630 1576 667.5 1576 c 128,-1,47
 705 1576 705 1576 723 1569.5 c 128,-1,48
 741 1563 741 1563 752 1554 c 1,49,50
 771 1536 771 1536 771 1517 c 0,51,52
 771 1472 771 1472 733 1472 c 1,53,-1
 668 1478 l 1,54,55
 600 1478 600 1478 577 1424 c 0,56,57
 556 1375 556 1375 556 1245 c 2,58,-1
 556 316 l 2,59,60
 556 187 556 187 572.5 148.5 c 128,-1,61
 589 110 589 110 611 97 c 128,-1,62
 633 84 633 84 668 84 c 1,0,-1
EndSplineSet
EndChar

StartChar: J
Encoding: 74 74 64
Width: 1421
GlyphClass: 2
Flags: W
LayerCount: 2
Fore
SplineSet
1348 1472 m 1,0,-1
 1283 1478 l 1,1,2
 1215 1478 1215 1478 1192 1424 c 0,3,4
 1171 1375 1171 1375 1171 1245 c 2,5,-1
 1171 489 l 2,6,7
 1171 244 1171 244 984 102 c 1,8,9
 817 -23 817 -23 583 -23 c 0,10,11
 435 -23 435 -23 270 46 c 0,12,13
 211 70 211 70 156 106 c 1,14,-1
 156 481 l 2,15,16
 156 603 156 603 205 603 c 0,17,18
 238 603 238 603 253 543 c 0,19,20
 340 201 340 201 521 136 c 0,21,22
 575 116 575 116 634 116 c 128,-1,23
 693 116 693 116 748.5 138.5 c 128,-1,24
 804 161 804 161 845 210 c 0,25,26
 935 316 935 316 935 524 c 2,27,-1
 935 1245 l 2,28,29
 935 1374 935 1374 915.5 1413 c 128,-1,30
 896 1452 896 1452 872.5 1465 c 128,-1,31
 849 1478 849 1478 813 1478 c 1,32,-1
 738 1472 l 1,33,34
 720 1472 720 1472 710 1485.5 c 128,-1,35
 700 1499 700 1499 700 1511 c 128,-1,36
 700 1523 700 1523 704.5 1533.5 c 128,-1,37
 709 1544 709 1544 720 1554 c 0,38,39
 744 1576 744 1576 788.5 1576 c 128,-1,40
 833 1576 833 1576 866 1574 c 2,41,-1
 992 1564 l 2,42,43
 1022 1561 1022 1561 1053.5 1561 c 128,-1,44
 1085 1561 1085 1561 1111 1564 c 1,45,-1
 1164 1568 l 1,46,47
 1245 1576 1245 1576 1282.5 1576 c 128,-1,48
 1320 1576 1320 1576 1338 1569.5 c 128,-1,49
 1356 1563 1356 1563 1367 1554 c 0,50,51
 1387 1536 1387 1536 1387 1518 c 0,52,53
 1387 1472 1387 1472 1348 1472 c 1,0,-1
EndSplineSet
EndChar

StartChar: K
Encoding: 75 75 65
Width: 1625
GlyphClass: 2
Flags: W
LayerCount: 2
Fore
SplineSet
668 84 m 1,0,-1
 732 90 l 1,1,2
 751 90 751 90 761 76 c 128,-1,3
 771 62 771 62 771 50.5 c 128,-1,4
 771 39 771 39 766.5 28 c 128,-1,5
 762 17 762 17 751 8 c 0,6,7
 724 -14 724 -14 680.5 -14 c 128,-1,8
 637 -14 637 -14 606.5 -12 c 128,-1,9
 576 -10 576 -10 549 -7 c 0,10,11
 486 0 486 0 437 0 c 0,12,13
 389 0 389 0 344 -5 c 0,14,15
 263 -14 263 -14 217 -14 c 128,-1,16
 171 -14 171 -14 153 -7.5 c 128,-1,17
 135 -1 135 -1 124 8 c 0,18,19
 104 24 104 24 104 43 c 0,20,21
 104 90 104 90 143 90 c 1,22,-1
 208 84 l 1,23,24
 276 84 276 84 299 138 c 0,25,26
 320 187 320 187 320 316 c 2,27,-1
 320 1245 l 2,28,29
 320 1375 320 1375 303.5 1413.5 c 128,-1,30
 287 1452 287 1452 265 1465 c 128,-1,31
 243 1478 243 1478 208 1478 c 1,32,-1
 143 1472 l 1,33,34
 124 1472 124 1472 114 1485.5 c 128,-1,35
 104 1499 104 1499 104 1511 c 128,-1,36
 104 1523 104 1523 108.5 1533.5 c 128,-1,37
 113 1544 113 1544 124 1554 c 0,38,39
 150 1576 150 1576 194 1576 c 128,-1,40
 238 1576 238 1576 268.5 1573.5 c 128,-1,41
 299 1571 299 1571 326 1568 c 2,42,-1
 380 1564 l 1,43,44
 406 1561 406 1561 437 1561 c 256,45,46
 468 1561 468 1561 495 1563.5 c 128,-1,47
 522 1566 522 1566 549 1568 c 0,48,49
 630 1576 630 1576 667 1576 c 128,-1,50
 704 1576 704 1576 722 1569.5 c 128,-1,51
 740 1563 740 1563 751 1554 c 0,52,53
 771 1536 771 1536 771 1518 c 0,54,55
 771 1472 771 1472 732 1472 c 1,56,-1
 668 1478 l 1,57,58
 599 1478 599 1478 576 1424 c 0,59,60
 555 1375 555 1375 555 1245 c 2,61,-1
 555 898 l 1,62,63
 638 923 638 923 727 987 c 0,64,65
 883 1101 883 1101 1074 1282 c 1,66,67
 1204 1407 1204 1407 1204 1450 c 0,68,69
 1204 1478 1204 1478 1162 1478 c 1,70,-1
 1097 1481 l 2,71,72
 1080 1481 1080 1481 1069 1494.5 c 128,-1,73
 1058 1508 1058 1508 1058 1523 c 0,74,75
 1058 1575 1058 1575 1143 1575 c 1,76,-1
 1363 1561 l 1,77,-1
 1520 1575 l 1,78,79
 1612 1575 1612 1575 1612 1523 c 0,80,81
 1612 1494 1612 1494 1597.5 1482.5 c 128,-1,82
 1583 1471 1583 1471 1574 1471 c 2,83,-1
 1508 1477 l 1,84,85
 1455 1477 1455 1477 1330 1355 c 0,86,87
 906 941 906 941 690 838 c 1,88,89
 894 804 894 804 1020 713 c 0,90,91
 1161 610 1161 610 1271 391 c 1,92,93
 1338 253 1338 253 1418 170 c 1,94,95
 1485 102 1485 102 1535 102 c 1,96,-1
 1584 112 l 1,97,98
 1614 112 1614 112 1623 66 c 0,99,100
 1625 56 1625 56 1625 46.5 c 128,-1,101
 1625 37 1625 37 1615.5 25.5 c 128,-1,102
 1606 14 1606 14 1590 6 c 0,103,104
 1554 -12 1554 -12 1485.5 -12 c 128,-1,105
 1417 -12 1417 -12 1341 13.5 c 128,-1,106
 1265 39 1265 39 1198 92 c 0,107,108
 1070 195 1070 195 959 420 c 1,109,110
 839 660 839 660 670 714 c 0,111,112
 616 732 616 732 555 738 c 1,113,-1
 555 316 l 2,114,115
 555 187 555 187 571.5 148.5 c 128,-1,116
 588 110 588 110 610 97 c 128,-1,117
 632 84 632 84 668 84 c 1,0,-1
EndSplineSet
EndChar

StartChar: L
Encoding: 76 76 66
Width: 1394
GlyphClass: 2
Flags: W
LayerCount: 2
Fore
SplineSet
1317 406 m 0,0,1
 1341 406 1341 406 1341 379 c 0,2,3
 1341 368 1341 368 1332 349.5 c 128,-1,4
 1323 331 1323 331 1310 274 c 0,5,6
 1281 138 1281 138 1281 85.5 c 128,-1,7
 1281 33 1281 33 1284 0 c 1,8,-1
 505 0 l 2,9,10
 436 0 436 0 370 -5 c 2,11,-1
 272 -12 l 2,12,13
 239 -15 239 -15 205 -15 c 128,-1,14
 171 -15 171 -15 153 -8.5 c 128,-1,15
 135 -2 135 -2 124 7 c 0,16,17
 105 24 105 24 105 42.5 c 128,-1,18
 105 61 105 61 115 75.5 c 128,-1,19
 125 90 125 90 143 90 c 1,20,-1
 208 83 l 1,21,22
 277 83 277 83 301 144 c 0,23,24
 320 192 320 192 320 330 c 2,25,-1
 320 1245 l 2,26,27
 320 1375 320 1375 303.5 1413.5 c 128,-1,28
 287 1452 287 1452 265 1465 c 128,-1,29
 243 1478 243 1478 208 1478 c 1,30,-1
 143 1472 l 1,31,32
 125 1472 125 1472 115 1485.5 c 128,-1,33
 105 1499 105 1499 105 1511 c 128,-1,34
 105 1523 105 1523 109.5 1533.5 c 128,-1,35
 114 1544 114 1544 124 1554 c 0,36,37
 149 1576 149 1576 194 1576 c 128,-1,38
 239 1576 239 1576 269.5 1573.5 c 128,-1,39
 300 1571 300 1571 327 1568 c 2,40,-1
 380 1564 l 1,41,42
 406 1561 406 1561 437.5 1561 c 128,-1,43
 469 1561 469 1561 496 1564 c 2,44,-1
 549 1568 l 1,45,46
 630 1576 630 1576 667 1576 c 128,-1,47
 704 1576 704 1576 722.5 1569.5 c 128,-1,48
 741 1563 741 1563 752 1554 c 0,49,50
 772 1536 772 1536 772 1517.5 c 128,-1,51
 772 1499 772 1499 761.5 1485.5 c 128,-1,52
 751 1472 751 1472 733 1472 c 1,53,-1
 668 1478 l 1,54,55
 601 1478 601 1478 576 1424 c 1,56,57
 555 1376 555 1376 555 1245 c 2,58,-1
 555 264 l 2,59,60
 555 129 555 129 648 129 c 2,61,-1
 851 129 l 2,62,63
 968 129 968 129 1033.5 164.5 c 128,-1,64
 1099 200 1099 200 1150.5 247.5 c 128,-1,65
 1202 295 1202 295 1266 372 c 1,66,67
 1298 406 1298 406 1317 406 c 0,0,1
EndSplineSet
EndChar

StartChar: M
Encoding: 77 77 67
Width: 2115
GlyphClass: 2
Flags: W
LayerCount: 2
Fore
SplineSet
553 -15 m 1,0,-1
 369 0 l 1,1,2
 346 0 346 0 326 -2 c 2,3,-1
 285 -8 l 1,4,5
 222 -15 222 -15 190.5 -15 c 128,-1,6
 159 -15 159 -15 140.5 -8.5 c 128,-1,7
 122 -2 122 -2 112 7 c 0,8,9
 92 24 92 24 92 42.5 c 128,-1,10
 92 61 92 61 102 75 c 128,-1,11
 112 89 112 89 131 89 c 1,12,-1
 195 83 l 1,13,14
 261 83 261 83 282 137 c 0,15,16
 297 178 297 178 297 315 c 2,17,-1
 298 1164 l 2,18,19
 298 1256 298 1256 279.5 1301 c 128,-1,20
 261 1346 261 1346 234.5 1383.5 c 128,-1,21
 208 1421 208 1421 175.5 1445 c 128,-1,22
 143 1469 143 1469 117 1482.5 c 128,-1,23
 91 1496 91 1496 75 1503.5 c 128,-1,24
 59 1511 59 1511 59 1520.5 c 128,-1,25
 59 1530 59 1530 62 1539 c 128,-1,26
 65 1548 65 1548 72 1556 c 0,27,28
 87 1575 87 1575 122 1575 c 128,-1,29
 157 1575 157 1575 189.5 1573 c 128,-1,30
 222 1571 222 1571 256 1568 c 0,31,32
 337 1561 337 1561 426 1561 c 1,33,-1
 1077 541 l 1,34,-1
 1603 1562 l 1,35,36
 1692 1562 1692 1562 1761 1568 c 0,37,38
 1892 1578 1892 1578 1932.5 1578 c 128,-1,39
 1973 1578 1973 1578 1991 1571.5 c 128,-1,40
 2009 1565 2009 1565 2020 1556 c 0,41,42
 2040 1538 2040 1538 2040 1519.5 c 128,-1,43
 2040 1501 2040 1501 2029.5 1487 c 128,-1,44
 2019 1473 2019 1473 2002 1473 c 1,45,-1
 1937 1480 l 1,46,47
 1872 1480 1872 1480 1852 1431 c 1,48,49
 1832 1385 1832 1385 1832 1243 c 2,50,-1
 1832 315 l 2,51,52
 1832 184 1832 184 1848 146.5 c 128,-1,53
 1864 109 1864 109 1886 96 c 128,-1,54
 1908 83 1908 83 1944 83 c 1,55,-1
 2009 89 l 1,56,57
 2027 89 2027 89 2037 75 c 128,-1,58
 2047 61 2047 61 2047 49.5 c 128,-1,59
 2047 38 2047 38 2042.5 27 c 128,-1,60
 2038 16 2038 16 2028 7 c 0,61,62
 1994 -22 1994 -22 1882 -12 c 0,63,64
 1851 -10 1851 -10 1824 -8 c 2,65,-1
 1770 -2 l 2,66,67
 1744 0 1744 0 1713 0 c 256,68,69
 1682 0 1682 0 1656 -2 c 2,70,-1
 1603 -8 l 1,71,72
 1522 -15 1522 -15 1484.5 -15 c 128,-1,73
 1447 -15 1447 -15 1429 -8.5 c 128,-1,74
 1411 -2 1411 -2 1400 7 c 0,75,76
 1381 24 1381 24 1381 42 c 0,77,78
 1381 89 1381 89 1419 89 c 1,79,-1
 1484 83 l 1,80,81
 1552 83 1552 83 1575 138 c 0,82,83
 1596 187 1596 187 1596 315 c 1,84,-1
 1606 1263 l 1,85,-1
 1078 255 l 2,86,87
 1049 199 1049 199 1018 199 c 0,88,89
 1002 199 1002 199 988.5 216.5 c 128,-1,90
 975 234 975 234 931 302 c 1,91,-1
 822 476 l 1,92,93
 504 1004 504 1004 431 1115 c 1,94,-1
 431 315 l 2,95,96
 431 186 431 186 447.5 147.5 c 128,-1,97
 464 109 464 109 486 96 c 128,-1,98
 508 83 508 83 544 83 c 1,99,-1
 608 89 l 1,100,101
 626 89 626 89 636.5 75 c 128,-1,102
 647 61 647 61 647 49.5 c 128,-1,103
 647 38 647 38 642.5 27 c 128,-1,104
 638 16 638 16 627 7 c 0,105,106
 600 -15 600 -15 553 -15 c 1,0,-1
EndSplineSet
EndChar

StartChar: N
Encoding: 78 78 68
Width: 1766
GlyphClass: 2
Flags: W
LayerCount: 2
Fore
SplineSet
552 -15 m 1,0,-1
 361 0 l 1,1,2
 340 0 340 0 320 -2 c 2,3,-1
 278 -8 l 1,4,5
 214 -15 214 -15 182.5 -15 c 128,-1,6
 151 -15 151 -15 133 -8.5 c 128,-1,7
 115 -2 115 -2 104 7 c 0,8,9
 84 23 84 23 84 42 c 0,10,11
 84 89 84 89 123 89 c 1,12,-1
 187 83 l 1,13,14
 254 83 254 83 274 137 c 0,15,16
 290 178 290 178 290 315 c 2,17,-1
 291 1189 l 2,18,19
 291 1253 291 1253 257 1315.5 c 128,-1,20
 223 1378 223 1378 184 1419.5 c 128,-1,21
 145 1461 145 1461 108 1478 c 0,22,23
 50 1506 50 1506 50 1537 c 0,24,25
 50 1547 50 1547 63 1561 c 128,-1,26
 76 1575 76 1575 109 1575 c 1,27,-1
 372 1561 l 1,28,-1
 1440 390 l 1,29,-1
 1440 1246 l 2,30,31
 1440 1376 1440 1376 1423 1415 c 128,-1,32
 1406 1454 1406 1454 1384 1467 c 128,-1,33
 1362 1480 1362 1480 1327 1480 c 1,34,-1
 1254 1473 l 1,35,36
 1236 1473 1236 1473 1225.5 1487 c 128,-1,37
 1215 1501 1215 1501 1215 1512.5 c 128,-1,38
 1215 1524 1215 1524 1220 1534.5 c 128,-1,39
 1225 1545 1225 1545 1236 1554 c 0,40,41
 1262 1577 1262 1577 1311 1577 c 1,42,-1
 1502 1562 l 1,43,44
 1524 1562 1524 1562 1544 1564 c 2,45,-1
 1584 1570 l 1,46,47
 1647 1577 1647 1577 1679.5 1577 c 128,-1,48
 1712 1577 1712 1577 1730.5 1570.5 c 128,-1,49
 1749 1564 1749 1564 1760 1554 c 0,50,51
 1779 1537 1779 1537 1779 1519 c 128,-1,52
 1779 1501 1779 1501 1769 1487 c 128,-1,53
 1759 1473 1759 1473 1742 1473 c 1,54,-1
 1676 1480 l 1,55,56
 1610 1480 1610 1480 1590 1426 c 0,57,58
 1574 1385 1574 1385 1574 1246 c 2,59,-1
 1571 142 l 2,60,61
 1571 65 1571 65 1585 46 c 128,-1,62
 1599 27 1599 27 1610 19 c 0,63,64
 1624 9 1624 9 1624 -9 c 0,65,66
 1624 -39 1624 -39 1591 -39 c 0,67,68
 1554 -39 1554 -39 1482 11 c 1,69,-1
 424 1158 l 1,70,-1
 424 315 l 2,71,72
 424 186 424 186 440.5 147.5 c 128,-1,73
 457 109 457 109 479 96 c 128,-1,74
 501 83 501 83 536 83 c 1,75,-1
 610 89 l 1,76,77
 629 89 629 89 639 75 c 128,-1,78
 649 61 649 61 649 49.5 c 128,-1,79
 649 38 649 38 644 27 c 128,-1,80
 639 16 639 16 628 7 c 0,81,82
 601 -15 601 -15 552 -15 c 1,0,-1
EndSplineSet
EndChar

StartChar: O
Encoding: 79 79 69
Width: 1847
GlyphClass: 2
Flags: W
LayerCount: 2
Fore
SplineSet
99 792 m 0,0,1
 99 936 99 936 158 1090 c 128,-1,2
 217 1244 217 1244 328 1356 c 0,3,4
 562 1592 562 1592 950 1592 c 0,5,6
 1175 1592 1175 1592 1362 1482 c 1,7,8
 1538 1377 1538 1377 1642 1196 c 0,9,10
 1747 1014 1747 1014 1747 802 c 0,11,12
 1747 547 1747 547 1630 354 c 1,13,14
 1523 175 1523 175 1328 74 c 0,15,16
 1141 -23 1141 -23 912 -23 c 0,17,18
 672 -23 672 -23 482 84 c 1,19,20
 99 297 99 297 99 792 c 0,0,1
320 902 m 0,21,22
 320 775 320 775 348.5 667 c 128,-1,23
 377 559 377 559 426.5 472 c 128,-1,24
 476 385 476 385 544 320.5 c 128,-1,25
 612 256 612 256 690 213 c 0,26,27
 848 127 848 127 1026 127 c 0,28,29
 1231 127 1231 127 1360 256 c 1,30,31
 1501 399 1501 399 1501 662 c 0,32,33
 1501 1010 1501 1010 1299 1232 c 0,34,35
 1105 1445 1105 1445 836 1445 c 0,36,37
 613 1445 613 1445 470 1300 c 0,38,39
 320 1149 320 1149 320 902 c 0,21,22
EndSplineSet
EndChar

StartChar: P
Encoding: 80 80 70
Width: 1487
GlyphClass: 2
Flags: W
LayerCount: 2
Fore
SplineSet
810 593 m 0,0,1
 711 593 711 593 575 631 c 1,2,-1
 575 316 l 2,3,4
 575 188 575 188 591.5 149 c 128,-1,5
 608 110 608 110 630 97 c 128,-1,6
 652 84 652 84 677.5 84 c 128,-1,7
 703 84 703 84 715 85.5 c 128,-1,8
 727 87 727 87 738 88 c 1,9,-1
 759 92 l 1,10,11
 770 93 770 93 785.5 93 c 128,-1,12
 801 93 801 93 811 77.5 c 128,-1,13
 821 62 821 62 821 50.5 c 128,-1,14
 821 39 821 39 815 28 c 128,-1,15
 809 17 809 17 796 8 c 0,16,17
 766 -14 766 -14 719.5 -14 c 128,-1,18
 673 -14 673 -14 639.5 -12 c 128,-1,19
 606 -10 606 -10 576 -7 c 0,20,21
 457 5 457 5 388 -2 c 0,22,23
 213 -22 213 -22 184 -11.5 c 128,-1,24
 155 -1 155 -1 144 8 c 0,25,26
 125 25 125 25 125 43.5 c 128,-1,27
 125 62 125 62 135 76 c 128,-1,28
 145 90 145 90 163 90 c 1,29,-1
 228 84 l 1,30,31
 296 84 296 84 319 138 c 0,32,33
 340 187 340 187 340 316 c 2,34,-1
 340 1233 l 2,35,36
 340 1366 340 1366 321.5 1407 c 128,-1,37
 303 1448 303 1448 277.5 1463 c 128,-1,38
 252 1478 252 1478 212 1478 c 1,39,-1
 163 1472 l 1,40,41
 145 1472 145 1472 135 1485 c 128,-1,42
 125 1498 125 1498 125 1511 c 128,-1,43
 125 1524 125 1524 129.5 1534.5 c 128,-1,44
 134 1545 134 1545 144 1554 c 0,45,46
 170 1576 170 1576 215 1576 c 128,-1,47
 260 1576 260 1576 288.5 1573.5 c 128,-1,48
 317 1571 317 1571 342 1568 c 0,49,50
 419 1561 419 1561 468 1561 c 128,-1,51
 517 1561 517 1561 551.5 1563.5 c 128,-1,52
 586 1566 586 1566 615 1569 c 128,-1,53
 644 1572 644 1572 670 1576.5 c 128,-1,54
 696 1581 696 1581 726 1584 c 0,55,56
 806 1592 806 1592 918.5 1592 c 128,-1,57
 1031 1592 1031 1592 1137 1557 c 128,-1,58
 1243 1522 1243 1522 1310 1460 c 0,59,60
 1436 1342 1436 1342 1436 1129 c 0,61,62
 1436 873 1436 873 1250 726 c 0,63,64
 1081 593 1081 593 810 593 c 0,0,1
775 1445 m 0,65,66
 575 1445 575 1445 575 1331 c 2,67,-1
 575 803 l 1,68,69
 703 733 703 733 854 733 c 0,70,71
 1009 733 1009 733 1096 824 c 0,72,73
 1180 911 1180 911 1180 1059 c 0,74,75
 1180 1352 1180 1352 940 1423 c 0,76,77
 865 1445 865 1445 775 1445 c 0,65,66
EndSplineSet
EndChar

StartChar: Q
Encoding: 81 81 71
Width: 1847
GlyphClass: 2
Flags: W
LayerCount: 2
Fore
SplineSet
673.5 -146.5 m 128,-1,1
 661 -130 661 -130 661 -110.5 c 128,-1,2
 661 -91 661 -91 697 -62 c 128,-1,3
 733 -33 733 -33 805 -13 c 1,4,5
 480 19 480 19 290 225 c 0,6,7
 99 431 99 431 99 749 c 0,8,9
 99 1120 99 1120 328 1352 c 1,10,11
 563 1592 563 1592 950 1592 c 0,12,13
 1291 1592 1291 1592 1521 1359 c 0,14,15
 1666 1212 1666 1212 1720 1012 c 0,16,17
 1747 913 1747 913 1747 776 c 128,-1,18
 1747 639 1747 639 1697.5 502.5 c 128,-1,19
 1648 366 1648 366 1562 264 c 0,20,21
 1388 59 1388 59 1107 1 c 1,22,23
 1295 -27 1295 -27 1440 -148 c 2,24,-1
 1521 -216 l 1,25,26
 1605 -291 1605 -291 1715 -291 c 0,27,28
 1762 -291 1762 -291 1789 -276 c 1,29,-1
 1827 -253 l 2,30,31
 1839 -246 1839 -246 1850.5 -246 c 128,-1,32
 1862 -246 1862 -246 1870 -251.5 c 128,-1,33
 1878 -257 1878 -257 1884 -265 c 0,34,35
 1899 -283 1899 -283 1899 -300.5 c 128,-1,36
 1899 -318 1899 -318 1881 -342.5 c 128,-1,37
 1863 -367 1863 -367 1830 -389 c 0,38,39
 1752 -441 1752 -441 1660 -441 c 128,-1,40
 1568 -441 1568 -441 1498.5 -422 c 128,-1,41
 1429 -403 1429 -403 1364 -368 c 0,42,43
 1247 -304 1247 -304 1109 -173 c 0,44,45
 1047 -115 1047 -115 1019 -104 c 1,46,47
 973 -84 973 -84 919 -84 c 128,-1,48
 865 -84 865 -84 828.5 -98.5 c 128,-1,49
 792 -113 792 -113 764 -132 c 2,50,-1
 728 -158 l 2,51,52
 719 -164 719 -164 702.5 -163.5 c 128,-1,0
 686 -163 686 -163 673.5 -146.5 c 128,-1,1
320 908 m 0,53,54
 320 781 320 781 348.5 672 c 128,-1,55
 377 563 377 563 426.5 476 c 128,-1,56
 476 389 476 389 544 323.5 c 128,-1,57
 612 258 612 258 690 214 c 0,58,59
 848 127 848 127 1026 127 c 0,60,61
 1230 127 1230 127 1360 258 c 1,62,63
 1501 402 1501 402 1501 667 c 0,64,65
 1501 1015 1501 1015 1299 1234 c 1,66,67
 1106 1445 1106 1445 836 1445 c 0,68,69
 614 1445 614 1445 470 1302 c 0,70,71
 320 1154 320 1154 320 908 c 0,53,54
EndSplineSet
EndChar

StartChar: R
Encoding: 82 82 72
Width: 1618
GlyphClass: 2
Flags: W
LayerCount: 2
Fore
SplineSet
668 83 m 1,0,-1
 732 89 l 1,1,2
 750 89 750 89 760.5 75 c 128,-1,3
 771 61 771 61 771 49.5 c 128,-1,4
 771 38 771 38 766.5 27 c 128,-1,5
 762 16 762 16 751 7 c 0,6,7
 724 -15 724 -15 680.5 -15 c 128,-1,8
 637 -15 637 -15 606.5 -12.5 c 128,-1,9
 576 -10 576 -10 549 -7.5 c 128,-1,10
 522 -5 522 -5 495 -2.5 c 128,-1,11
 468 0 468 0 436.5 0 c 128,-1,12
 405 0 405 0 378 -2 c 1,13,-1
 325 -8 l 1,14,15
 244 -15 244 -15 207.5 -15 c 128,-1,16
 171 -15 171 -15 152.5 -8.5 c 128,-1,17
 134 -2 134 -2 123 7 c 0,18,19
 103 23 103 23 103 42 c 128,-1,20
 103 61 103 61 113.5 75 c 128,-1,21
 124 89 124 89 142 89 c 1,22,-1
 206 83 l 1,23,24
 274 83 274 83 298 137 c 0,25,26
 320 185 320 185 320 315 c 2,27,-1
 320 1232 l 2,28,29
 320 1366 320 1366 301 1406.5 c 128,-1,30
 282 1447 282 1447 257 1462 c 128,-1,31
 232 1477 232 1477 192 1477 c 1,32,-1
 142 1471 l 1,33,34
 124 1471 124 1471 113.5 1484 c 128,-1,35
 103 1497 103 1497 103 1510 c 128,-1,36
 103 1523 103 1523 107.5 1533.5 c 128,-1,37
 112 1544 112 1544 123 1553 c 0,38,39
 150 1575 150 1575 194 1575 c 128,-1,40
 238 1575 238 1575 266 1573 c 128,-1,41
 294 1571 294 1571 320 1568 c 0,42,43
 379 1561 379 1561 440.5 1561 c 128,-1,44
 502 1561 502 1561 560 1566 c 0,45,46
 851 1592 851 1592 954.5 1592 c 128,-1,47
 1058 1592 1058 1592 1161.5 1554.5 c 128,-1,48
 1265 1517 1265 1517 1330 1456 c 0,49,50
 1455 1337 1455 1337 1455 1154 c 0,51,52
 1455 932 1455 932 1294 807 c 0,53,54
 1149 695 1149 695 921 695 c 2,55,-1
 905 695 l 1,56,57
 1001 640 1001 640 1060 576 c 0,58,59
 1161 468 1161 468 1226 357.5 c 128,-1,60
 1291 247 1291 247 1329 205 c 128,-1,61
 1367 163 1367 163 1400 140 c 0,62,63
 1456 102 1456 102 1517 102 c 1,64,-1
 1574 115 l 1,65,66
 1603 113 1603 113 1610 99 c 1,67,68
 1618 80 1618 80 1618 62 c 128,-1,69
 1618 44 1618 44 1608.5 32 c 128,-1,70
 1599 20 1599 20 1580 10 c 0,71,72
 1501 -30 1501 -30 1332 -3 c 0,73,74
 1218 15 1218 15 1132 92 c 1,75,76
 1044 169 1044 169 966.5 292 c 128,-1,77
 889 415 889 415 844.5 492 c 128,-1,78
 800 569 800 569 775 601.5 c 128,-1,79
 750 634 750 634 719 655 c 0,80,81
 658 696 658 696 554 696 c 1,82,-1
 554 315 l 2,83,84
 554 185 554 185 571 147 c 128,-1,85
 588 109 588 109 610 96 c 128,-1,86
 632 83 632 83 668 83 c 1,0,-1
733 798 m 1,87,-1
 842 799 l 1,88,89
 1083 799 1083 799 1170 966 c 0,90,91
 1199 1023 1199 1023 1199 1100 c 128,-1,92
 1199 1177 1199 1177 1176 1240 c 128,-1,93
 1153 1303 1153 1303 1102 1348 c 0,94,95
 995 1445 995 1445 780 1445 c 0,96,97
 645 1445 645 1445 609.5 1427 c 128,-1,98
 574 1409 574 1409 564 1386.5 c 128,-1,99
 554 1364 554 1364 554 1330 c 2,100,-1
 554 828 l 1,101,102
 622 798 622 798 733 798 c 1,87,-1
EndSplineSet
EndChar

StartChar: S
Encoding: 83 83 73
Width: 1404
GlyphClass: 2
Flags: W
LayerCount: 2
Fore
SplineSet
1183 1143 m 0,0,1
 1169 1143 1169 1143 1159.5 1157 c 128,-1,2
 1150 1171 1150 1171 1127 1218.5 c 128,-1,3
 1104 1266 1104 1266 1059 1312.5 c 128,-1,4
 1014 1359 1014 1359 958 1389 c 0,5,6
 850 1446 850 1446 689 1446 c 0,7,8
 539 1446 539 1446 459 1382 c 0,9,10
 390 1328 390 1328 390 1244 c 0,11,12
 390 1138 390 1138 456 1069 c 0,13,14
 537 984 537 984 715.5 937.5 c 128,-1,15
 894 891 894 891 1002.5 841.5 c 128,-1,16
 1111 792 1111 792 1178 730 c 0,17,18
 1307 613 1307 613 1307 432 c 0,19,20
 1307 223 1307 223 1158 100 c 1,21,22
 1007 -23 1007 -23 743 -23 c 0,23,24
 474 -23 474 -23 266 74 c 2,25,-1
 153 127 l 1,26,-1
 153 481 l 2,27,28
 153 603 153 603 195 603 c 0,29,30
 224 603 224 603 233 543 c 1,31,32
 254 353 254 353 412 229 c 0,33,34
 557 116 557 116 736 116 c 0,35,36
 1087 116 1087 116 1087 354 c 0,37,38
 1087 463 1087 463 1018 537 c 0,39,40
 925 636 925 636 705 687 c 0,41,42
 437 748 437 748 301 878 c 0,43,44
 177 996 177 996 177 1159 c 0,45,46
 177 1336 177 1336 306 1455 c 0,47,48
 454 1592 454 1592 717 1592 c 0,49,50
 890 1592 890 1592 1002 1546 c 0,51,52
 1023 1537 1023 1537 1025.5 1537 c 128,-1,53
 1028 1537 1028 1537 1032.5 1538 c 128,-1,54
 1037 1539 1037 1539 1043 1544 c 0,55,56
 1053 1551 1053 1551 1070 1574 c 0,57,58
 1102 1616 1102 1616 1119 1616 c 0,59,60
 1159 1616 1159 1616 1161 1564 c 0,61,62
 1166 1418 1166 1418 1184 1343 c 0,63,64
 1213 1222 1213 1222 1213 1182.5 c 128,-1,65
 1213 1143 1213 1143 1183 1143 c 0,0,1
EndSplineSet
EndChar

StartChar: T
Encoding: 84 84 74
Width: 1539
GlyphClass: 2
Flags: W
LayerCount: 2
Fore
SplineSet
73 1171 m 0,0,1
 49 1171 49 1171 49 1206 c 128,-1,2
 49 1241 49 1241 53.5 1270 c 128,-1,3
 58 1299 58 1299 65 1325 c 128,-1,4
 72 1351 72 1351 81 1376 c 2,5,-1
 100 1428 l 2,6,7
 124 1496 124 1496 133 1550 c 128,-1,8
 142 1604 142 1604 152 1614.5 c 128,-1,9
 162 1625 162 1625 174 1625 c 0,10,11
 194 1625 194 1625 226 1583 c 1,12,13
 242 1564 242 1564 273.5 1562.5 c 128,-1,14
 305 1561 305 1561 334 1561 c 2,15,-1
 1346 1561 l 2,16,17
 1409 1561 1409 1561 1441 1583 c 128,-1,18
 1473 1605 1473 1605 1485 1615 c 128,-1,19
 1497 1625 1497 1625 1505 1625 c 128,-1,20
 1513 1625 1513 1625 1519.5 1624 c 128,-1,21
 1526 1623 1526 1623 1532 1619 c 0,22,23
 1549 1609 1549 1609 1534.5 1574.5 c 128,-1,24
 1520 1540 1520 1540 1502 1486.5 c 128,-1,25
 1484 1433 1484 1433 1469 1382 c 0,26,27
 1442 1289 1442 1289 1431 1238 c 0,28,29
 1417 1168 1417 1168 1392 1168 c 0,30,31
 1366 1168 1366 1168 1360.5 1199.5 c 128,-1,32
 1355 1231 1355 1231 1348 1255.5 c 128,-1,33
 1341 1280 1341 1280 1330 1300 c 0,34,35
 1262 1420 1262 1420 908 1420 c 1,36,-1
 908 336 l 2,37,38
 908 204 908 204 924.5 160 c 128,-1,39
 941 116 941 116 963 99.5 c 128,-1,40
 985 83 985 83 1010.5 83 c 128,-1,41
 1036 83 1036 83 1048 84 c 0,42,43
 1077 88 1077 88 1090 90 c 128,-1,44
 1103 92 1103 92 1118.5 92 c 128,-1,45
 1134 92 1134 92 1144 76.5 c 128,-1,46
 1154 61 1154 61 1154 49.5 c 128,-1,47
 1154 38 1154 38 1148 27 c 128,-1,48
 1142 16 1142 16 1129 7 c 0,49,50
 1097 -15 1097 -15 1051.5 -15 c 128,-1,51
 1006 -15 1006 -15 972.5 -12.5 c 128,-1,52
 939 -10 939 -10 910 -8 c 2,53,-1
 852 -2 l 2,54,55
 824 0 824 0 791 0 c 256,56,57
 758 0 758 0 730 -2 c 2,58,-1
 672 -8 l 1,59,60
 585 -15 585 -15 544.5 -15 c 128,-1,61
 504 -15 504 -15 484.5 -8.5 c 128,-1,62
 465 -2 465 -2 452 7 c 0,63,64
 427 25 427 25 427 43 c 128,-1,65
 427 61 427 61 437 76.5 c 128,-1,66
 447 92 447 92 463 92 c 128,-1,67
 479 92 479 92 489.5 90.5 c 128,-1,68
 500 89 500 89 510 88 c 0,69,70
 542 83 542 83 569 83 c 128,-1,71
 596 83 596 83 618 99 c 128,-1,72
 640 115 640 115 652 147 c 0,73,74
 673 203 673 203 673 336 c 2,75,-1
 673 1421 l 1,76,77
 475 1421 475 1421 388 1393 c 0,78,79
 375 1389 375 1389 338 1380 c 128,-1,80
 301 1371 301 1371 254 1335.5 c 128,-1,81
 207 1300 207 1300 171 1263.5 c 128,-1,82
 135 1227 135 1227 110.5 1199 c 128,-1,83
 86 1171 86 1171 73 1171 c 0,0,1
EndSplineSet
EndChar

StartChar: U
Encoding: 85 85 75
Width: 1874
GlyphClass: 2
Flags: W
LayerCount: 2
Fore
SplineSet
1411 -6 m 1,0,1
 1348 -6 1348 -6 1339 115 c 1,2,3
 1138 -23 1138 -23 908 -23 c 0,4,5
 601 -23 601 -23 436 131 c 0,6,7
 272 283 272 283 272 557 c 2,8,-1
 272 1245 l 2,9,10
 272 1374 272 1374 255 1413 c 128,-1,11
 238 1452 238 1452 216 1465 c 128,-1,12
 194 1478 194 1478 159 1478 c 1,13,-1
 94 1472 l 1,14,15
 76 1472 76 1472 66 1485.5 c 128,-1,16
 56 1499 56 1499 56 1511 c 128,-1,17
 56 1523 56 1523 60.5 1533.5 c 128,-1,18
 65 1544 65 1544 76 1554 c 0,19,20
 100 1576 100 1576 144.5 1576 c 128,-1,21
 189 1576 189 1576 220 1573.5 c 128,-1,22
 251 1571 251 1571 278 1568 c 2,23,-1
 332 1564 l 1,24,25
 358 1561 358 1561 389 1561 c 256,26,27
 420 1561 420 1561 446 1564 c 1,28,-1
 499 1568 l 1,29,30
 580 1576 580 1576 618 1576 c 128,-1,31
 656 1576 656 1576 674 1569.5 c 128,-1,32
 692 1563 692 1563 702 1554 c 0,33,34
 722 1536 722 1536 722 1517.5 c 128,-1,35
 722 1499 722 1499 712 1485.5 c 128,-1,36
 702 1472 702 1472 685 1472 c 1,37,-1
 619 1478 l 1,38,39
 550 1478 550 1478 527 1424 c 0,40,41
 507 1377 507 1377 507 1245 c 2,42,-1
 507 538 l 2,43,44
 507 337 507 337 627 228 c 0,45,46
 740 126 740 126 950.5 126 c 128,-1,47
 1161 126 1161 126 1338 277 c 1,48,-1
 1338 1245 l 2,49,50
 1338 1375 1338 1375 1321.5 1413.5 c 128,-1,51
 1305 1452 1305 1452 1283 1465 c 128,-1,52
 1261 1478 1261 1478 1226 1478 c 1,53,-1
 1161 1472 l 1,54,55
 1143 1472 1143 1472 1133 1485.5 c 128,-1,56
 1123 1499 1123 1499 1123 1511 c 128,-1,57
 1123 1523 1123 1523 1127.5 1533.5 c 128,-1,58
 1132 1544 1132 1544 1143 1554 c 0,59,60
 1169 1576 1169 1576 1213 1576 c 128,-1,61
 1257 1576 1257 1576 1288 1573.5 c 128,-1,62
 1319 1571 1319 1571 1346 1568 c 2,63,-1
 1399 1564 l 1,64,65
 1425 1561 1425 1561 1456.5 1561 c 128,-1,66
 1488 1561 1488 1561 1514 1564 c 1,67,-1
 1567 1568 l 1,68,69
 1648 1576 1648 1576 1685.5 1576 c 128,-1,70
 1723 1576 1723 1576 1741 1569.5 c 128,-1,71
 1759 1563 1759 1563 1770 1554 c 1,72,73
 1789 1536 1789 1536 1789 1517 c 0,74,75
 1789 1472 1789 1472 1752 1472 c 1,76,-1
 1686 1478 l 1,77,78
 1590 1478 1590 1478 1578 1346 c 0,79,80
 1574 1303 1574 1303 1574 1245 c 2,81,-1
 1577 355 l 2,82,83
 1577 182 1577 182 1590 143 c 128,-1,84
 1603 104 1603 104 1623.5 91.5 c 128,-1,85
 1644 79 1644 79 1672.5 79 c 128,-1,86
 1701 79 1701 79 1715.5 85 c 128,-1,87
 1730 91 1730 91 1742.5 91 c 128,-1,88
 1755 91 1755 91 1765.5 79.5 c 128,-1,89
 1776 68 1776 68 1776 57 c 128,-1,90
 1776 46 1776 46 1771.5 34.5 c 128,-1,91
 1767 23 1767 23 1756 14 c 0,92,93
 1728 -9 1728 -9 1693.5 -9 c 128,-1,94
 1659 -9 1659 -9 1638 -8 c 2,95,-1
 1594 -4 l 2,96,97
 1572 -3 1572 -3 1552.5 -1.5 c 128,-1,98
 1533 0 1533 0 1521 0 c 2,99,-1
 1411 -6 l 1,0,1
EndSplineSet
EndChar

StartChar: V
Encoding: 86 86 76
Width: 1707
GlyphClass: 2
Flags: W
LayerCount: 2
Fore
SplineSet
1728 1471 m 1,0,-1
 1671 1478 l 1,1,2
 1621 1478 1621 1478 1591 1442 c 0,3,4
 1536 1374 1536 1374 1457 1204 c 1,5,-1
 1043 274 l 1,6,7
 970 103 970 103 970 49 c 0,8,9
 970 24 970 24 986 12 c 1,10,-1
 1010 -4 l 1,11,12
 1017 -10 1017 -10 1017 -19 c 0,13,14
 1017 -38 1017 -38 994 -38 c 128,-1,15
 971 -38 971 -38 937.5 -26 c 128,-1,16
 904 -14 904 -14 860 26 c 0,17,18
 754 121 754 121 654 340 c 1,19,-1
 222 1275 l 1,20,21
 165 1402 165 1402 138 1433.5 c 128,-1,22
 111 1465 111 1465 95.5 1471.5 c 128,-1,23
 80 1478 80 1478 64 1478 c 1,24,-1
 9 1471 l 1,25,26
 -9 1471 -9 1471 -19.5 1483.5 c 128,-1,27
 -30 1496 -30 1496 -30 1509 c 128,-1,28
 -30 1522 -30 1522 -24 1533 c 128,-1,29
 -18 1544 -18 1544 -6 1554 c 0,30,31
 20 1575 20 1575 66.5 1575 c 128,-1,32
 113 1575 113 1575 160 1568 c 128,-1,33
 207 1561 207 1561 264 1561 c 1,34,-1
 533 1575 l 1,35,36
 584 1575 584 1575 610 1555.5 c 128,-1,37
 636 1536 636 1536 636 1512 c 0,38,39
 636 1472 636 1472 599 1472 c 1,40,-1
 521 1480 l 1,41,42
 458 1480 458 1480 458 1434 c 0,43,44
 458 1396 458 1396 500 1305 c 2,45,-1
 867 495 l 1,46,47
 902 411 902 411 910.5 406 c 128,-1,48
 919 401 919 401 923 401 c 0,49,50
 931 401 931 401 955 459 c 1,51,-1
 1328 1265 l 1,52,53
 1369 1358 1369 1358 1369 1444 c 0,54,55
 1369 1481 1369 1481 1315 1481 c 1,56,-1
 1228 1472 l 1,57,58
 1211 1472 1211 1472 1200.5 1484.5 c 128,-1,59
 1190 1497 1190 1497 1190 1515 c 128,-1,60
 1190 1533 1190 1533 1214 1554 c 128,-1,61
 1238 1575 1238 1575 1298.5 1575 c 128,-1,62
 1359 1575 1359 1575 1419 1568 c 128,-1,63
 1479 1561 1479 1561 1517 1561 c 1,64,-1
 1683 1575 l 1,65,66
 1717 1575 1717 1575 1741.5 1555.5 c 128,-1,67
 1766 1536 1766 1536 1766 1516 c 0,68,69
 1766 1471 1766 1471 1728 1471 c 1,0,-1
EndSplineSet
EndChar

StartChar: W
Encoding: 87 87 77
Width: 2389
GlyphClass: 2
Flags: W
LayerCount: 2
Fore
SplineSet
684 -35 m 0,0,1
 669 -35 669 -35 669 -17 c 0,2,3
 669 -3 669 -3 680 5 c 0,4,5
 696 16 696 16 696 32 c 128,-1,6
 696 48 696 48 691 68.5 c 128,-1,7
 686 89 686 89 678 118 c 0,8,9
 660 178 660 178 592 338 c 2,10,-1
 198 1272 l 1,11,12
 121 1444 121 1444 72 1470 c 0,13,14
 56 1479 56 1479 41 1479 c 1,15,-1
 -15 1472 l 1,16,17
 -34 1472 -34 1472 -44 1484.5 c 128,-1,18
 -54 1497 -54 1497 -54 1510 c 128,-1,19
 -54 1523 -54 1523 -48 1534 c 128,-1,20
 -42 1545 -42 1545 -30 1554 c 0,21,22
 -4 1576 -4 1576 41.5 1576 c 128,-1,23
 87 1576 87 1576 134.5 1568.5 c 128,-1,24
 182 1561 182 1561 227.5 1561 c 128,-1,25
 273 1561 273 1561 302 1564 c 2,26,-1
 423 1574 l 2,27,28
 454 1576 454 1576 497 1576 c 128,-1,29
 540 1576 540 1576 566 1556.5 c 128,-1,30
 592 1537 592 1537 592 1513 c 0,31,32
 592 1473 592 1473 554 1473 c 1,33,-1
 478 1481 l 1,34,35
 413 1481 413 1481 413 1435 c 0,36,37
 413 1407 413 1407 454 1306 c 2,38,-1
 800 462 l 2,39,40
 822 406 822 406 839 389 c 0,41,42
 861 368 861 368 870 368 c 0,43,44
 897 368 897 368 917 426 c 2,45,-1
 1176 1159 l 1,46,-1
 1128 1276 l 1,47,48
 1083 1406 1083 1406 1056 1436.5 c 128,-1,49
 1029 1467 1029 1467 1011 1473 c 128,-1,50
 993 1479 993 1479 972 1479 c 1,51,-1
 916 1472 l 1,52,53
 897 1472 897 1472 887 1484.5 c 128,-1,54
 877 1497 877 1497 877 1510 c 128,-1,55
 877 1523 877 1523 883 1534 c 128,-1,56
 889 1545 889 1545 900 1554 c 0,57,58
 927 1576 927 1576 972 1576 c 1,59,-1
 1163 1561 l 1,60,61
 1196 1561 1196 1561 1226 1564 c 2,62,-1
 1346 1574 l 2,63,64
 1377 1576 1377 1576 1420 1576 c 128,-1,65
 1463 1576 1463 1576 1489 1556.5 c 128,-1,66
 1515 1537 1515 1537 1515 1513 c 0,67,68
 1515 1473 1515 1473 1477 1473 c 1,69,-1
 1401 1481 l 1,70,71
 1366 1481 1366 1481 1353.5 1470.5 c 128,-1,72
 1341 1460 1341 1460 1341 1442 c 0,73,74
 1341 1415 1341 1415 1376 1306 c 2,75,-1
 1651 472 l 2,76,77
 1670 413 1670 413 1686 397 c 0,78,79
 1718 367 1718 367 1732 390 c 0,80,81
 1739 402 1739 402 1752 437 c 2,82,-1
 2044 1285 l 2,83,84
 2086 1404 2086 1404 2086 1443 c 128,-1,85
 2086 1482 2086 1482 2023 1482 c 1,86,-1
 1945 1473 l 1,87,88
 1928 1473 1928 1473 1917.5 1485.5 c 128,-1,89
 1907 1498 1907 1498 1907 1516 c 128,-1,90
 1907 1534 1907 1534 1931.5 1555 c 128,-1,91
 1956 1576 1956 1576 2017 1576 c 128,-1,92
 2078 1576 2078 1576 2135.5 1568.5 c 128,-1,93
 2193 1561 2193 1561 2232.5 1561 c 128,-1,94
 2272 1561 2272 1561 2312 1568.5 c 128,-1,95
 2352 1576 2352 1576 2382.5 1576 c 128,-1,96
 2413 1576 2413 1576 2428.5 1570.5 c 128,-1,97
 2444 1565 2444 1565 2455 1556 c 0,98,99
 2480 1537 2480 1537 2480 1517.5 c 128,-1,100
 2480 1498 2480 1498 2469.5 1485 c 128,-1,101
 2459 1472 2459 1472 2441 1472 c 1,102,-1
 2385 1479 l 1,103,104
 2359 1479 2359 1479 2337 1473.5 c 128,-1,105
 2315 1468 2315 1468 2292 1442 c 0,106,107
 2246 1388 2246 1388 2181 1205 c 1,108,-1
 1921 451 l 1,109,-1
 1830 205 l 2,110,111
 1791 99 1791 99 1791 77.5 c 128,-1,112
 1791 56 1791 56 1798 47 c 128,-1,113
 1805 38 1805 38 1813 32 c 0,114,115
 1835 16 1835 16 1835 5 c 0,116,117
 1835 -38 1835 -38 1797 -38 c 0,118,119
 1777 -38 1777 -38 1735.5 -18 c 128,-1,120
 1694 2 1694 2 1646 42 c 0,121,122
 1528 142 1528 142 1475 287 c 1,123,-1
 1251 918 l 1,124,-1
 1029 300 l 2,125,126
 940 52 940 52 762 -18 c 0,127,128
 718 -35 718 -35 684 -35 c 0,0,1
EndSplineSet
EndChar

StartChar: X
Encoding: 88 88 78
Width: 1569
GlyphClass: 2
Flags: W
LayerCount: 2
Fore
SplineSet
230 0 m 1,0,-1
 64 -14 l 1,1,2
 30 -14 30 -14 5.5 5 c 128,-1,3
 -19 24 -19 24 -19 43.5 c 128,-1,4
 -19 63 -19 63 -8.5 76.5 c 128,-1,5
 2 90 2 90 19 90 c 1,6,-1
 76 83 l 1,7,8
 122 83 122 83 208 190 c 1,9,-1
 678 756 l 1,10,-1
 181 1425 l 2,11,12
 157 1457 157 1457 142.5 1468 c 128,-1,13
 128 1479 128 1479 105 1479 c 1,14,15
 105 1479 105 1479 49 1472 c 1,16,17
 11 1472 11 1472 11 1513 c 0,18,19
 11 1553 11 1553 63 1570 c 0,20,21
 81 1576 81 1576 105 1576 c 256,22,23
 129 1576 129 1576 152 1574 c 0,24,25
 271 1561 271 1561 305 1561 c 1,26,-1
 574 1576 l 1,27,28
 625 1576 625 1576 650.5 1556.5 c 128,-1,29
 676 1537 676 1537 676 1513 c 0,30,31
 676 1473 676 1473 639 1473 c 1,32,-1
 562 1481 l 1,33,34
 497 1481 497 1481 497 1444 c 0,35,36
 497 1423 497 1423 518 1394 c 2,37,-1
 855 929 l 1,38,-1
 1075 1198 l 2,39,40
 1212 1366 1212 1366 1212 1445 c 0,41,42
 1212 1482 1212 1482 1148 1482 c 1,43,-1
 1072 1473 l 1,44,45
 1055 1473 1055 1473 1044.5 1485.5 c 128,-1,46
 1034 1498 1034 1498 1034 1516 c 128,-1,47
 1034 1534 1034 1534 1058 1555 c 128,-1,48
 1082 1576 1082 1576 1142.5 1576 c 128,-1,49
 1203 1576 1203 1576 1255.5 1568.5 c 128,-1,50
 1308 1561 1308 1561 1347.5 1561 c 128,-1,51
 1387 1561 1387 1561 1427 1568.5 c 128,-1,52
 1467 1576 1467 1576 1506.5 1576 c 128,-1,53
 1546 1576 1546 1576 1570.5 1556.5 c 128,-1,54
 1595 1537 1595 1537 1595 1518 c 0,55,56
 1595 1472 1595 1472 1557 1472 c 1,57,-1
 1500 1479 l 1,58,59
 1477 1479 1477 1479 1446 1448.5 c 128,-1,60
 1415 1418 1415 1418 1369 1362 c 1,61,-1
 945 815 l 1,62,-1
 1446 137 l 1,63,64
 1479 90 1479 90 1503 85 c 0,65,66
 1512 83 1512 83 1524 83 c 1,67,-1
 1579 90 l 1,68,69
 1597 90 1597 90 1607 77 c 128,-1,70
 1617 64 1617 64 1617 46 c 128,-1,71
 1617 28 1617 28 1594 7 c 128,-1,72
 1571 -14 1571 -14 1523.5 -14 c 128,-1,73
 1476 -14 1476 -14 1430 -7 c 128,-1,74
 1384 0 1384 0 1324 0 c 1,75,-1
 1054 -14 l 1,76,77
 1003 -14 1003 -14 977.5 5 c 128,-1,78
 952 24 952 24 952 49 c 0,79,80
 952 89 952 89 989 89 c 0,81,82
 997 89 997 89 1001 87.5 c 128,-1,83
 1005 86 1005 86 1012 84 c 0,84,85
 1027 81 1027 81 1078.5 81 c 128,-1,86
 1130 81 1130 81 1130 117 c 0,87,88
 1130 167 1130 167 1072 245 c 1,89,-1
 768 631 l 1,90,-1
 532 360 l 1,91,92
 374 167 374 167 374 116 c 0,93,94
 374 80 374 80 438 80 c 1,95,-1
 516 89 l 1,96,97
 532 89 532 89 542.5 76 c 128,-1,98
 553 63 553 63 553 45 c 128,-1,99
 553 27 553 27 529 6.5 c 128,-1,100
 505 -14 505 -14 443 -14 c 128,-1,101
 381 -14 381 -14 324 -7 c 128,-1,102
 267 0 267 0 230 0 c 1,0,-1
EndSplineSet
EndChar

StartChar: Y
Encoding: 89 89 79
Width: 1539
GlyphClass: 2
Flags: W
LayerCount: 2
Fore
SplineSet
1551 1481 m 2,0,-1
 1485 1478 l 1,1,2
 1431 1478 1431 1478 1404 1443 c 1,3,-1
 895 677 l 1,4,-1
 895 330 l 2,5,6
 895 200 895 200 911 162 c 128,-1,7
 927 124 927 124 949 111 c 128,-1,8
 971 98 971 98 997 98 c 128,-1,9
 1023 98 1023 98 1035 99.5 c 128,-1,10
 1047 101 1047 101 1057.5 102.5 c 128,-1,11
 1068 104 1068 104 1078.5 105.5 c 128,-1,12
 1089 107 1089 107 1104.5 107 c 128,-1,13
 1120 107 1120 107 1130 92 c 128,-1,14
 1140 77 1140 77 1140 65 c 128,-1,15
 1140 53 1140 53 1134 42.5 c 128,-1,16
 1128 32 1128 32 1115 22 c 0,17,18
 1084 0 1084 0 1038 0 c 128,-1,19
 992 0 992 0 958.5 2.5 c 128,-1,20
 925 5 925 5 896 8 c 2,21,-1
 838 12 l 1,22,23
 810 15 810 15 777 15 c 256,24,25
 744 15 744 15 716 12 c 1,26,-1
 658 8 l 1,27,28
 507 -6 507 -6 479 3.5 c 128,-1,29
 451 13 451 13 438 22 c 1,30,31
 413 42 413 42 413 59.5 c 128,-1,32
 413 77 413 77 423 92 c 128,-1,33
 433 107 433 107 449 107 c 128,-1,34
 465 107 465 107 475.5 105.5 c 128,-1,35
 486 104 486 104 496 102 c 0,36,37
 528 98 528 98 555.5 98 c 128,-1,38
 583 98 583 98 605 111 c 128,-1,39
 627 124 627 124 639 152 c 0,40,41
 659 199 659 199 659 330 c 2,42,-1
 659 671 l 1,43,-1
 121 1443 l 2,44,45
 96 1478 96 1478 35 1478 c 1,46,-1
 -20 1471 l 1,47,48
 -39 1471 -39 1471 -49 1488.5 c 128,-1,49
 -59 1506 -59 1506 -59 1524 c 128,-1,50
 -59 1542 -59 1542 -36 1558.5 c 128,-1,51
 -13 1575 -13 1575 35 1575 c 1,52,-1
 235 1561 l 1,53,-1
 504 1575 l 1,54,55
 607 1575 607 1575 607 1522 c 0,56,57
 607 1492 607 1492 593.5 1482 c 128,-1,58
 580 1472 580 1472 569 1472 c 1,59,-1
 492 1480 l 1,60,61
 428 1480 428 1480 428 1444 c 0,62,63
 428 1415 428 1415 472 1342 c 1,64,-1
 823 827 l 1,65,-1
 1127 1300 l 1,66,67
 1196 1403 1196 1403 1196 1442 c 128,-1,68
 1196 1481 1196 1481 1133 1481 c 1,69,-1
 1056 1472 l 1,70,71
 1039 1472 1039 1472 1029 1489.5 c 128,-1,72
 1019 1507 1019 1507 1019 1525 c 128,-1,73
 1019 1543 1019 1543 1042.5 1559 c 128,-1,74
 1066 1575 1066 1575 1127.5 1575 c 128,-1,75
 1189 1575 1189 1575 1246 1568 c 128,-1,76
 1303 1561 1303 1561 1341 1561 c 1,77,-1
 1507 1575 l 1,78,79
 1590 1575 1590 1575 1590 1532 c 0,80,81
 1590 1503 1590 1503 1575 1492 c 128,-1,82
 1560 1481 1560 1481 1551 1481 c 2,0,-1
EndSplineSet
EndChar

StartChar: Z
Encoding: 90 90 80
Width: 1537
GlyphClass: 2
Flags: W
LayerCount: 2
Fore
SplineSet
190 0 m 2,0,1
 112 0 112 0 112 45 c 0,2,3
 112 65 112 65 145 110 c 2,4,-1
 1084 1431 l 1,5,-1
 678 1431 l 2,6,7
 534 1431 534 1431 472.5 1407 c 128,-1,8
 411 1383 411 1383 375 1360.5 c 128,-1,9
 339 1338 339 1338 309 1314 c 0,10,11
 258 1272 258 1272 231 1239 c 128,-1,12
 204 1206 204 1206 194.5 1198.5 c 128,-1,13
 185 1191 185 1191 174 1191 c 0,14,15
 152 1191 152 1191 152 1217.5 c 128,-1,16
 152 1244 152 1244 161.5 1277.5 c 128,-1,17
 171 1311 171 1311 185 1355 c 0,18,19
 221 1468 221 1468 232.5 1536 c 128,-1,20
 244 1604 244 1604 254.5 1614.5 c 128,-1,21
 265 1625 265 1625 276 1625 c 0,22,23
 298 1625 298 1625 327 1583 c 1,24,25
 349 1561 349 1561 438 1561 c 2,26,-1
 1366 1561 l 2,27,28
 1426 1561 1426 1561 1426 1528 c 0,29,30
 1426 1498 1426 1498 1401 1464 c 2,31,-1
 451 127 l 1,32,-1
 931 129 l 2,33,34
 1062 129 1062 129 1145 176 c 0,35,36
 1219 219 1219 219 1374 382 c 0,37,38
 1405 416 1405 416 1420 416 c 0,39,40
 1461 416 1461 416 1461 379 c 0,41,42
 1461 354 1461 354 1431 296 c 1,43,-1
 1432 296 l 1,44,45
 1372 169 1372 169 1332 0 c 1,46,-1
 190 0 l 2,0,1
EndSplineSet
EndChar

StartChar: bracketleft
Encoding: 91 91 81
Width: 855
GlyphClass: 2
Flags: W
LayerCount: 2
Fore
SplineSet
551 -191 m 1,0,-1
 685 -181 l 1,1,2
 704 -181 704 -181 714 -196.5 c 128,-1,3
 724 -212 724 -212 724 -223.5 c 128,-1,4
 724 -235 724 -235 718 -245.5 c 128,-1,5
 712 -256 712 -256 699 -266 c 0,6,7
 668 -288 668 -288 620 -288 c 2,8,-1
 251 -288 l 2,9,10
 225 -288 225 -288 214.5 -274.5 c 128,-1,11
 204 -261 204 -261 204 -226 c 2,12,-1
 204 1669 l 2,13,14
 204 1730 204 1730 259 1730 c 2,15,-1
 620 1730 l 2,16,17
 694 1730 694 1730 718 1688 c 0,18,19
 724 1677 724 1677 724 1665.5 c 128,-1,20
 724 1654 724 1654 714 1638.5 c 128,-1,21
 704 1623 704 1623 685 1623 c 1,22,-1
 551 1633 l 1,23,24
 452 1633 452 1633 442 1613 c 0,25,26
 439 1606 439 1606 439 1596 c 2,27,-1
 439 -154 l 2,28,29
 439 -175 439 -175 454 -181 c 0,30,31
 479 -191 479 -191 551 -191 c 1,0,-1
EndSplineSet
EndChar

StartChar: asciicircum
Encoding: 94 94 84
Width: 1141
GlyphClass: 2
Flags: W
LayerCount: 2
Fore
SplineSet
535 1588 m 1,0,-1
 601 1588 l 1,1,-1
 1004 982 l 1,2,-1
 821 982 l 1,3,-1
 564 1362 l 1,4,-1
 313 982 l 1,5,-1
 136 982 l 1,6,-1
 535 1588 l 1,0,-1
EndSplineSet
EndChar

StartChar: underscore
Encoding: 95 95 85
Width: 1359
GlyphClass: 2
Flags: W
LayerCount: 2
Fore
SplineSet
1379 -174 m 2,0,1
 1414 -174 1414 -174 1436.5 -193 c 128,-1,2
 1459 -212 1459 -212 1459 -247.5 c 128,-1,3
 1459 -283 1459 -283 1437.5 -302.5 c 128,-1,4
 1416 -322 1416 -322 1381 -322 c 2,5,-1
 -22 -322 l 2,6,7
 -57 -322 -57 -322 -78.5 -302.5 c 128,-1,8
 -100 -283 -100 -283 -100 -247.5 c 128,-1,9
 -100 -212 -100 -212 -77.5 -193 c 128,-1,10
 -55 -174 -55 -174 -20 -174 c 2,11,-1
 1379 -174 l 2,0,1
EndSplineSet
EndChar

StartChar: grave
Encoding: 96 96 86
Width: 644
GlyphClass: 2
Flags: W
LayerCount: 2
Fore
SplineSet
453 1211 m 128,-1,1
 445 1201 445 1201 432 1202 c 1,2,3
 414 1202 414 1202 384 1220 c 2,4,-1
 149 1355 l 2,5,6
 67 1402 67 1402 45 1432 c 1,7,8
 -2 1500 -2 1500 25 1554 c 0,9,10
 57 1618 57 1618 153 1596 c 1,11,12
 215 1583 215 1583 293 1476 c 2,13,-1
 446 1268 l 2,14,15
 463 1245 463 1245 462 1233 c 128,-1,0
 461 1221 461 1221 453 1211 c 128,-1,1
EndSplineSet
EndChar

StartChar: a
Encoding: 97 97 87
Width: 1351
GlyphClass: 2
Flags: W
LayerCount: 2
Fore
SplineSet
966 -6 m 1,0,1
 908 -6 908 -6 897 99 c 1,2,3
 810 12 810 12 664 -16 c 0,4,5
 619 -24 619 -24 543 -24 c 128,-1,6
 467 -24 467 -24 387 -1 c 128,-1,7
 307 22 307 22 254 64 c 0,8,9
 147 149 147 149 147 301 c 0,10,11
 147 466 147 466 286 553 c 0,12,13
 405 627 405 627 584 627 c 0,14,15
 755 627 755 627 895 553 c 1,16,-1
 895 667 l 2,17,18
 895 864 895 864 712 900 c 0,19,20
 656 911 656 911 603.5 911 c 128,-1,21
 551 911 551 911 515 906.5 c 128,-1,22
 479 902 479 902 446 888 c 0,23,24
 377 859 377 859 315 775 c 0,25,26
 268 711 268 711 239 711 c 128,-1,27
 210 711 210 711 210 741 c 0,28,29
 210 759 210 759 222 799 c 0,30,31
 248 881 248 881 248 1010 c 0,32,33
 248 1060 248 1060 286 1060 c 0,34,35
 326 1060 326 1060 355 1042 c 0,36,37
 395 1017 395 1017 401 1017 c 1,38,39
 545 1053 545 1053 669 1053 c 128,-1,40
 793 1053 793 1053 887.5 1020.5 c 128,-1,41
 982 988 982 988 1036 932 c 0,42,43
 1128 837 1128 837 1128 643 c 2,44,-1
 1128 354 l 2,45,46
 1128 175 1128 175 1146 137.5 c 128,-1,47
 1164 100 1164 100 1185.5 93.5 c 128,-1,48
 1207 87 1207 87 1239 87 c 1,49,-1
 1296 95 l 1,50,51
 1313 95 1313 95 1323.5 80.5 c 128,-1,52
 1334 66 1334 66 1334 55.5 c 128,-1,53
 1334 45 1334 45 1329.5 34 c 128,-1,54
 1325 23 1325 23 1314 14 c 0,55,56
 1286 -9 1286 -9 1234 -9 c 1,57,-1
 1080 0 l 1,58,-1
 966 -6 l 1,0,1
895 427 m 1,59,60
 777 501 777 501 643 501 c 0,61,62
 456 501 456 501 400 394 c 0,63,64
 383 362 383 362 383 323 c 0,65,66
 383 220 383 220 451.5 168.5 c 128,-1,67
 520 117 520 117 644 117 c 0,68,69
 796 117 796 117 895 237 c 1,70,-1
 895 427 l 1,59,60
EndSplineSet
EndChar

StartChar: b
Encoding: 98 98 88
Width: 1365
GlyphClass: 2
Flags: W
LayerCount: 2
Fore
SplineSet
146 -31 m 0,0,1
 111 -31 111 -31 111 2 c 0,2,3
 111 23 111 23 137 43.5 c 128,-1,4
 163 64 163 64 172 78.5 c 128,-1,5
 181 93 181 93 186 120 c 0,6,7
 195 167 195 167 195 300 c 2,8,-1
 195 1348 l 2,9,10
 195 1521 195 1521 171 1561.5 c 128,-1,11
 147 1602 147 1602 114 1615 c 128,-1,12
 81 1628 81 1628 43 1632 c 0,13,14
 -31 1638 -31 1638 -31 1682 c 0,15,16
 -31 1696 -31 1696 -15 1712 c 128,-1,17
 1 1728 1 1728 28 1728 c 128,-1,18
 55 1728 55 1728 76 1726 c 2,19,-1
 117 1722 l 2,20,21
 180 1716 180 1716 210 1716 c 0,22,23
 284 1716 284 1716 320.5 1723 c 128,-1,24
 357 1730 357 1730 373 1730 c 128,-1,25
 389 1730 389 1730 402 1726.5 c 128,-1,26
 415 1723 415 1723 422 1710 c 0,27,28
 433 1686 433 1686 433 1600 c 2,29,-1
 433 955 l 1,30,31
 549 1053 549 1053 741 1053 c 0,32,33
 986 1053 986 1053 1134 910 c 1,34,35
 1285 766 1285 766 1285 531 c 0,36,37
 1285 299 1285 299 1126 138 c 0,38,39
 966 -24 966 -24 724 -24 c 0,40,41
 638 -24 638 -24 560 -4 c 2,42,-1
 448 25 l 2,43,44
 413 34 413 34 389 34 c 128,-1,45
 365 34 365 34 336 25 c 2,46,-1
 266 2 l 1,47,48
 170 -31 170 -31 146 -31 c 0,0,1
433 257 m 1,49,50
 497 126 497 126 672 126 c 0,51,52
 845 126 845 126 940 218 c 1,53,54
 1035 308 1035 308 1035 472 c 0,55,56
 1035 689 1035 689 930 800 c 0,57,58
 834 902 834 902 671 902 c 0,59,60
 557 902 557 902 476 828 c 0,61,62
 449 802 449 802 433 766 c 1,63,-1
 433 257 l 1,49,50
EndSplineSet
EndChar

StartChar: c
Encoding: 99 99 89
Width: 1174
GlyphClass: 2
Flags: W
LayerCount: 2
Fore
SplineSet
1104 739 m 0,0,1
 1104 709 1104 709 1075 709 c 0,2,3
 1049 709 1049 709 1008.5 760 c 128,-1,4
 968 811 968 811 928 837.5 c 128,-1,5
 888 864 888 864 845 878 c 0,6,7
 778 901 778 901 688.5 901 c 128,-1,8
 599 901 599 901 542.5 881.5 c 128,-1,9
 486 862 486 862 442 822 c 0,10,11
 348 734 348 734 348 574 c 0,12,13
 348 371 348 371 462 245 c 0,14,15
 570 126 570 126 728 126 c 0,16,17
 903 126 903 126 990 249 c 0,18,19
 1016 287 1016 287 1041.5 289.5 c 128,-1,20
 1067 292 1067 292 1082 277 c 128,-1,21
 1097 262 1097 262 1097 240 c 128,-1,22
 1097 218 1097 218 1078 185.5 c 128,-1,23
 1059 153 1059 153 1026 122.5 c 128,-1,24
 993 92 993 92 950 65.5 c 128,-1,25
 907 39 907 39 859 19 c 0,26,27
 655 -66 655 -66 440 16 c 0,28,29
 230 96 230 96 143 296 c 0,30,31
 100 396 100 396 100 489.5 c 128,-1,32
 100 583 100 583 120 649 c 128,-1,33
 140 715 140 715 176.5 775 c 128,-1,34
 213 835 213 835 265.5 886 c 128,-1,35
 318 937 318 937 383 974 c 0,36,37
 522 1053 522 1053 686 1053 c 0,38,39
 802 1053 802 1053 881 1016 c 0,40,41
 896 1009 896 1009 909 1009 c 128,-1,42
 922 1009 922 1009 939 1016 c 128,-1,43
 956 1023 956 1023 974 1031 c 2,44,-1
 1006 1046 l 2,45,46
 1022 1053 1022 1053 1033 1053 c 0,47,48
 1066 1053 1066 1053 1066 1013.5 c 128,-1,49
 1066 974 1066 974 1066.5 943.5 c 128,-1,50
 1067 913 1067 913 1070 886 c 0,51,52
 1076 832 1076 832 1094 784 c 0,53,54
 1104 757 1104 757 1104 739 c 0,0,1
EndSplineSet
EndChar

StartChar: d
Encoding: 100 100 90
Width: 1342
GlyphClass: 2
Flags: W
LayerCount: 2
Fore
SplineSet
914 54 m 1,0,1
 789 -23 789 -23 651 -23 c 128,-1,2
 513 -23 513 -23 408.5 16 c 128,-1,3
 304 55 304 55 231 126 c 0,4,5
 80 271 80 271 80 517 c 0,6,7
 80 741 80 741 238 896 c 0,8,9
 399 1053 399 1053 634 1053 c 0,10,11
 787 1053 787 1053 905 997 c 1,12,-1
 905 1350 l 2,13,14
 905 1520 905 1520 880.5 1561.5 c 128,-1,15
 856 1603 856 1603 823 1615.5 c 128,-1,16
 790 1628 790 1628 752 1632 c 0,17,18
 680 1638 680 1638 680 1682 c 0,19,20
 680 1696 680 1696 695.5 1712 c 128,-1,21
 711 1728 711 1728 738 1728 c 128,-1,22
 765 1728 765 1728 786 1726 c 128,-1,23
 807 1724 807 1724 828 1722 c 0,24,25
 891 1716 891 1716 920.5 1716 c 128,-1,26
 950 1716 950 1716 973 1718 c 2,27,-1
 1035 1725 l 2,28,29
 1046 1726 1046 1726 1056.5 1728 c 128,-1,30
 1067 1730 1067 1730 1083.5 1730 c 128,-1,31
 1100 1730 1100 1730 1112 1726.5 c 128,-1,32
 1124 1723 1124 1723 1131 1710 c 0,33,34
 1142 1688 1142 1688 1142 1600 c 2,35,-1
 1142 354 l 2,36,37
 1142 180 1142 180 1155.5 141 c 128,-1,38
 1169 102 1169 102 1189.5 90 c 128,-1,39
 1210 78 1210 78 1246 78 c 1,40,-1
 1303 85 l 1,41,42
 1319 85 1319 85 1329.5 76 c 128,-1,43
 1340 67 1340 67 1340 56.5 c 128,-1,44
 1340 46 1340 46 1335.5 34.5 c 128,-1,45
 1331 23 1331 23 1320 14 c 0,46,47
 1292 -9 1292 -9 1258.5 -9 c 128,-1,48
 1225 -9 1225 -9 1204 -8 c 2,49,-1
 1160 -4 l 1,50,51
 1137 -3 1137 -3 1117.5 -1.5 c 128,-1,52
 1098 0 1098 0 1087 0 c 2,53,-1
 977 -6 l 1,54,55
 933 -6 933 -6 914 54 c 1,0,1
905 201 m 1,56,-1
 905 788 l 1,57,58
 818 901 818 901 649 901 c 0,59,60
 494 901 494 901 407 810 c 0,61,62
 322 722 322 722 322 567 c 0,63,64
 322 365 322 365 427 243 c 0,65,66
 528 126 528 126 676.5 126 c 128,-1,67
 825 126 825 126 905 201 c 1,56,-1
EndSplineSet
EndChar

StartChar: e
Encoding: 101 101 91
Width: 1220
GlyphClass: 2
Flags: W
LayerCount: 2
Fore
SplineSet
145.5 288 m 128,-1,1
 100 388 100 388 100 504 c 128,-1,2
 100 620 100 620 141 717 c 128,-1,3
 182 814 182 814 257 888 c 0,4,5
 423 1053 423 1053 669 1053 c 0,6,7
 833 1053 833 1053 956 968 c 0,8,9
 1045 907 1045 907 1104 808 c 1,10,11
 1145 736 1145 736 1145 716.5 c 128,-1,12
 1145 697 1145 697 1143.5 686.5 c 128,-1,13
 1142 676 1142 676 1137 666 c 0,14,15
 1126 642 1126 642 1095 631 c 0,16,17
 840 538 840 538 528 464 c 2,18,-1
 353 422 l 1,19,20
 387 276 387 276 504 196 c 0,21,22
 607 126 607 126 747 126 c 0,23,24
 868 126 868 126 969 204 c 0,25,26
 1001 228 1001 228 1019 254 c 0,27,28
 1050 300 1050 300 1085 300 c 0,29,30
 1107 300 1107 300 1123 264 c 0,31,32
 1127 255 1127 255 1127 247 c 0,33,34
 1127 209 1127 209 1088 158 c 0,35,36
 1019 67 1019 67 911 21.5 c 128,-1,37
 803 -24 803 -24 679.5 -24 c 128,-1,38
 556 -24 556 -24 451.5 12.5 c 128,-1,39
 347 49 347 49 269 118.5 c 128,-1,0
 191 188 191 188 145.5 288 c 128,-1,1
339 548 m 1,40,-1
 624 622 l 1,41,42
 879 690 879 690 890 708 c 0,43,44
 893 714 893 714 893 731.5 c 128,-1,45
 893 749 893 749 879 780.5 c 128,-1,46
 865 812 865 812 836 839 c 0,47,48
 769 901 769 901 662 901 c 0,49,50
 557 901 557 901 464 841 c 0,51,52
 338 759 338 759 338 583 c 2,53,-1
 338 566 l 2,54,55
 338 557 338 557 339 548 c 1,40,-1
EndSplineSet
EndChar

StartChar: f
Encoding: 102 102 92
Width: 854
GlyphClass: 2
Flags: W
LayerCount: 2
Fore
SplineSet
194 -15 m 0,0,1
 93 -15 93 -15 93 46 c 0,2,3
 93 62 93 62 103.5 75.5 c 128,-1,4
 114 89 114 89 131 89 c 1,5,-1
 181 82 l 1,6,7
 263 82 263 82 280 230 c 0,8,9
 286 282 286 282 286 357 c 2,10,-1
 286 902 l 1,11,12
 222 900 222 900 191.5 900.5 c 128,-1,13
 161 901 161 901 141 909.5 c 128,-1,14
 121 918 121 918 110 930 c 0,15,16
 90 952 90 952 90 980 c 128,-1,17
 90 1008 90 1008 108 1030.5 c 128,-1,18
 126 1053 126 1053 152 1053 c 128,-1,19
 178 1053 178 1053 194 1052 c 2,20,-1
 257 1050 l 2,21,22
 273 1050 273 1050 286 1049 c 1,23,-1
 286 1140 l 2,24,25
 286 1615 286 1615 556 1724 c 0,26,27
 639 1757 639 1757 735.5 1757 c 128,-1,28
 832 1757 832 1757 946 1730 c 1,29,-1
 946 1440 l 2,30,31
 946 1404 946 1404 918 1404 c 0,32,33
 904 1404 904 1404 895.5 1411.5 c 128,-1,34
 887 1419 887 1419 873.5 1461 c 128,-1,35
 860 1503 860 1503 838.5 1540 c 128,-1,36
 817 1577 817 1577 795 1598 c 0,37,38
 755 1638 755 1638 713 1638 c 128,-1,39
 671 1638 671 1638 636.5 1619.5 c 128,-1,40
 602 1601 602 1601 576 1561 c 0,41,42
 522 1476 522 1476 522 1306 c 2,43,-1
 522 1047 l 1,44,-1
 736 1053 l 1,45,46
 807 1053 807 1053 820 1004 c 0,47,48
 824 991 824 991 824 980 c 128,-1,49
 824 969 824 969 818.5 955 c 128,-1,50
 813 941 813 941 800 929 c 0,51,52
 769 902 769 902 711 902 c 1,53,-1
 522 906 l 1,54,-1
 522 357 l 2,55,56
 522 188 522 188 550 130 c 0,57,58
 574 82 574 82 643 82 c 1,59,-1
 712 90 l 1,60,61
 729 90 729 90 739 76 c 128,-1,62
 749 62 749 62 749 49 c 128,-1,63
 749 36 749 36 740.5 25 c 128,-1,64
 732 14 732 14 717 5 c 0,65,66
 671 -22 671 -22 578 -12 c 0,67,68
 555 -10 555 -10 532 -8 c 0,69,70
 417 5 417 5 360 0 c 128,-1,71
 303 -5 303 -5 279 -7.5 c 128,-1,72
 255 -10 255 -10 235 -12.5 c 128,-1,73
 215 -15 215 -15 194 -15 c 0,0,1
EndSplineSet
EndChar

StartChar: g
Encoding: 103 103 93
Width: 1276
GlyphClass: 2
Flags: W
LayerCount: 2
Fore
SplineSet
332 -33 m 1,0,1
 199 28 199 28 199 127 c 0,2,3
 199 175 199 175 240.5 222 c 128,-1,4
 282 269 282 269 363 297 c 1,5,6
 187 376 187 376 140 540 c 0,7,8
 126 590 126 590 126 662.5 c 128,-1,9
 126 735 126 735 166 810.5 c 128,-1,10
 206 886 206 886 278 940 c 0,11,12
 429 1053 429 1053 674 1053 c 0,13,14
 787 1053 787 1053 889 1016 c 1,15,16
 1027 1018 1027 1018 1104 1068 c 1,17,-1
 1140 1090 l 2,18,19
 1179 1114 1179 1114 1210.5 1114 c 128,-1,20
 1242 1114 1242 1114 1255.5 1098 c 128,-1,21
 1269 1082 1269 1082 1269 1060 c 0,22,23
 1269 1010 1269 1010 1204 976 c 128,-1,24
 1139 942 1139 942 1021 938 c 1,25,26
 1143 844 1143 844 1143 699 c 0,27,28
 1143 508 1143 508 1004 380 c 256,29,30
 865 252 865 252 647 246 c 1,31,32
 635 247 635 247 624 247 c 128,-1,33
 613 247 613 247 580 247 c 128,-1,34
 547 247 547 247 508.5 240.5 c 128,-1,35
 470 234 470 234 446 224 c 0,36,37
 400 203 400 203 400 178 c 0,38,39
 400 147 400 147 438 134 c 0,40,41
 519 106 519 106 684 95.5 c 128,-1,42
 849 85 849 85 946.5 61.5 c 128,-1,43
 1044 38 1044 38 1105 2 c 0,44,45
 1220 -66 1220 -66 1220 -190 c 0,46,47
 1220 -336 1220 -336 1066 -425 c 0,48,49
 908 -516 908 -516 641 -516 c 0,50,51
 366 -516 366 -516 229 -436 c 1,52,53
 113 -367 113 -367 113 -257 c 0,54,55
 113 -149 113 -149 231 -78 c 0,56,57
 273 -52 273 -52 332 -33 c 1,0,1
361 707 m 0,58,59
 361 387 361 387 667 387 c 0,60,61
 905 387 905 387 905 573 c 0,62,63
 905 740 905 740 812 827 c 0,64,65
 734 901 734 901 608 901 c 0,66,67
 433 901 433 901 380 794 c 1,68,69
 361 758 361 758 361 707 c 0,58,59
333 -223 m 0,70,71
 333 -378 333 -378 723 -378 c 0,72,73
 892 -378 892 -378 946.5 -357 c 128,-1,74
 1001 -336 1001 -336 1017.5 -314 c 128,-1,75
 1034 -292 1034 -292 1034 -263.5 c 128,-1,76
 1034 -235 1034 -235 1011 -205 c 128,-1,77
 988 -175 988 -175 928 -149 c 0,78,79
 792 -91 792 -91 491 -80 c 1,80,81
 413 -103 413 -103 373 -142.5 c 128,-1,82
 333 -182 333 -182 333 -223 c 0,70,71
EndSplineSet
EndChar

StartChar: h
Encoding: 104 104 94
Width: 1534
GlyphClass: 2
Flags: W
LayerCount: 2
Fore
SplineSet
644 -15 m 1,0,-1
 428 0 l 1,1,2
 364 0 364 0 302.5 -7.5 c 128,-1,3
 241 -15 241 -15 214.5 -15 c 128,-1,4
 188 -15 188 -15 168.5 -8.5 c 128,-1,5
 149 -2 149 -2 138 7 c 0,6,7
 119 23 119 23 119 42.5 c 128,-1,8
 119 62 119 62 129.5 75.5 c 128,-1,9
 140 89 140 89 157 89 c 1,10,-1
 207 82 l 1,11,12
 263 82 263 82 287 137 c 0,13,14
 312 195 312 195 312 342 c 2,15,-1
 312 1351 l 2,16,17
 312 1520 312 1520 287.5 1561.5 c 128,-1,18
 263 1603 263 1603 230 1615.5 c 128,-1,19
 197 1628 197 1628 160 1632 c 0,20,21
 87 1638 87 1638 87 1682 c 0,22,23
 87 1696 87 1696 102.5 1712 c 128,-1,24
 118 1728 118 1728 145 1728 c 128,-1,25
 172 1728 172 1728 192 1726 c 2,26,-1
 234 1722 l 2,27,28
 298 1716 298 1716 327.5 1716 c 128,-1,29
 357 1716 357 1716 380 1718 c 2,30,-1
 442 1725 l 1,31,32
 470 1730 470 1730 488.5 1730 c 128,-1,33
 507 1730 507 1730 519.5 1726.5 c 128,-1,34
 532 1723 532 1723 538 1710 c 0,35,36
 549 1688 549 1688 549 1600 c 2,37,-1
 549 874 l 1,38,39
 715 1053 715 1053 937 1053 c 0,40,41
 1190 1053 1190 1053 1263 853 c 0,42,43
 1289 782 1289 782 1289 685 c 2,44,-1
 1289 342 l 2,45,46
 1289 183 1289 183 1307.5 141.5 c 128,-1,47
 1326 100 1326 100 1344 91 c 128,-1,48
 1362 82 1362 82 1386 82 c 1,49,-1
 1439 89 l 1,50,51
 1456 89 1456 89 1465.5 75 c 128,-1,52
 1475 61 1475 61 1475 49 c 128,-1,53
 1475 37 1475 37 1471 26.5 c 128,-1,54
 1467 16 1467 16 1456 7 c 0,55,56
 1420 -22 1420 -22 1328 -12 c 0,57,58
 1213 0 1213 0 1179 0 c 1,59,-1
 968 -15 l 1,60,61
 882 -15 882 -15 866 26 c 0,62,63
 862 37 862 37 862 49.5 c 128,-1,64
 862 62 862 62 872.5 75.5 c 128,-1,65
 883 89 883 89 901 89 c 1,66,-1
 954 82 l 1,67,68
 1013 82 1013 82 1033 135.5 c 128,-1,69
 1053 189 1053 189 1053 342 c 2,70,-1
 1053 627 l 2,71,72
 1053 735 1053 735 1022 785.5 c 128,-1,73
 991 836 991 836 950.5 859 c 128,-1,74
 910 882 910 882 856.5 882 c 128,-1,75
 803 882 803 882 761 868.5 c 128,-1,76
 719 855 719 855 681 832 c 0,77,78
 606 785 606 785 549 711 c 1,79,-1
 549 342 l 2,80,81
 549 176 549 176 569.5 136.5 c 128,-1,82
 590 97 590 97 611 89.5 c 128,-1,83
 632 82 632 82 661 82 c 1,84,-1
 711 89 l 1,85,86
 728 89 728 89 738.5 75.5 c 128,-1,87
 749 62 749 62 749 46 c 0,88,89
 749 -15 749 -15 644 -15 c 1,0,-1
EndSplineSet
EndChar

StartChar: i
Encoding: 105 105 95
Width: 807
GlyphClass: 2
Flags: W
LayerCount: 2
Fore
SplineSet
467.5 1246.5 m 128,-1,1
 439 1233 439 1233 401.5 1233 c 128,-1,2
 364 1233 364 1233 335.5 1246.5 c 128,-1,3
 307 1260 307 1260 288 1282 c 0,4,5
 253 1324 253 1324 253 1372 c 128,-1,6
 253 1420 253 1420 264.5 1448.5 c 128,-1,7
 276 1477 276 1477 296 1498 c 0,8,9
 339 1543 339 1543 392 1543 c 128,-1,10
 445 1543 445 1543 473.5 1529.5 c 128,-1,11
 502 1516 502 1516 520 1494 c 0,12,13
 558 1449 558 1449 558 1403 c 128,-1,14
 558 1357 558 1357 547 1330 c 128,-1,15
 536 1303 536 1303 516 1281.5 c 128,-1,0
 496 1260 496 1260 467.5 1246.5 c 128,-1,1
641 -15 m 1,16,-1
 426 0 l 1,17,18
 362 0 362 0 300.5 -7.5 c 128,-1,19
 239 -15 239 -15 212.5 -15 c 128,-1,20
 186 -15 186 -15 166.5 -8.5 c 128,-1,21
 147 -2 147 -2 136 7 c 0,22,23
 117 23 117 23 117 42.5 c 128,-1,24
 117 62 117 62 127.5 75.5 c 128,-1,25
 138 89 138 89 155 89 c 1,26,-1
 204 82 l 1,27,28
 287 82 287 82 304 230 c 0,29,30
 310 282 310 282 310 357 c 2,31,-1
 310 651 l 2,32,33
 310 793 310 793 284 846 c 0,34,35
 276 863 276 863 263.5 880.5 c 128,-1,36
 251 898 251 898 224 908 c 128,-1,37
 197 918 197 918 170 925.5 c 128,-1,38
 143 933 143 933 123.5 943 c 128,-1,39
 104 953 104 953 104 966.5 c 128,-1,40
 104 980 104 980 107 989 c 128,-1,41
 110 998 110 998 117 1006 c 0,42,43
 134 1025 134 1025 169 1025 c 1,44,-1
 316 1013 l 1,45,-1
 467 1025 l 1,46,47
 508 1025 508 1025 522 1009 c 0,48,49
 547 979 547 979 547 897 c 2,50,-1
 547 357 l 2,51,52
 547 189 547 189 567 145.5 c 128,-1,53
 587 102 587 102 608 92 c 128,-1,54
 629 82 629 82 659 82 c 1,55,-1
 708 89 l 1,56,57
 726 89 726 89 736 75.5 c 128,-1,58
 746 62 746 62 746 46 c 0,59,60
 746 -15 746 -15 641 -15 c 1,16,-1
EndSplineSet
EndChar

StartChar: j
Encoding: 106 106 96
Width: 773
GlyphClass: 2
Flags: W
LayerCount: 2
Fore
SplineSet
511.5 1246.5 m 128,-1,1
 483 1233 483 1233 445.5 1233 c 128,-1,2
 408 1233 408 1233 379.5 1246.5 c 128,-1,3
 351 1260 351 1260 332 1282 c 0,4,5
 297 1324 297 1324 297 1372 c 128,-1,6
 297 1420 297 1420 308.5 1448.5 c 128,-1,7
 320 1477 320 1477 340 1498 c 0,8,9
 383 1543 383 1543 436 1543 c 128,-1,10
 489 1543 489 1543 517.5 1529.5 c 128,-1,11
 546 1516 546 1516 564 1494 c 0,12,13
 602 1449 602 1449 602 1403 c 128,-1,14
 602 1357 602 1357 591 1330 c 128,-1,15
 580 1303 580 1303 560 1281.5 c 128,-1,0
 540 1260 540 1260 511.5 1246.5 c 128,-1,1
-74 -226 m 2,16,17
 -74 -194 -74 -194 -47 -194 c 0,18,19
 -19 -194 -19 -194 6 -240 c 1,20,21
 46 -323 46 -323 78 -349 c 0,22,23
 127 -388 127 -388 170 -388 c 128,-1,24
 213 -388 213 -388 244.5 -371 c 128,-1,25
 276 -354 276 -354 300 -302 c 0,26,27
 349 -191 349 -191 349 104 c 2,28,-1
 349 636 l 2,29,30
 349 814 349 814 306 878 c 1,31,32
 287 904 287 904 235 918.5 c 128,-1,33
 183 933 183 933 163 943 c 128,-1,34
 143 953 143 953 143 966.5 c 128,-1,35
 143 980 143 980 146 989 c 128,-1,36
 149 998 149 998 156 1006 c 0,37,38
 174 1025 174 1025 198.5 1025 c 128,-1,39
 223 1025 223 1025 237 1023 c 128,-1,40
 251 1021 251 1021 268 1019 c 0,41,42
 317 1013 317 1013 356 1013 c 1,43,-1
 525 1025 l 1,44,45
 563 1025 563 1025 572 1009 c 0,46,47
 587 982 587 982 587 897 c 2,48,-1
 587 104 l 2,49,50
 587 -215 587 -215 457 -374 c 0,51,52
 340 -516 340 -516 129 -516 c 0,53,54
 40 -516 40 -516 -74 -488 c 1,55,-1
 -74 -226 l 2,16,17
EndSplineSet
EndChar

StartChar: k
Encoding: 107 107 97
Width: 1425
GlyphClass: 2
Flags: W
LayerCount: 2
Fore
SplineSet
438 0 m 1,0,-1
 225 -15 l 1,1,2
 139 -15 139 -15 123 26 c 0,3,4
 119 37 119 37 119 49.5 c 128,-1,5
 119 62 119 62 129 75.5 c 128,-1,6
 139 89 139 89 157 89 c 1,7,-1
 210 82 l 1,8,9
 289 82 289 82 306 220 c 0,10,11
 312 270 312 270 312 342 c 2,12,-1
 312 1348 l 2,13,14
 312 1519 312 1519 288 1560.5 c 128,-1,15
 264 1602 264 1602 231 1615 c 128,-1,16
 198 1628 198 1628 160 1632 c 0,17,18
 87 1638 87 1638 87 1682 c 0,19,20
 87 1696 87 1696 102.5 1712 c 128,-1,21
 118 1728 118 1728 145 1728 c 128,-1,22
 172 1728 172 1728 193 1726 c 128,-1,23
 214 1724 214 1724 235 1722 c 0,24,25
 298 1716 298 1716 332 1716 c 1,26,-1
 485 1730 l 1,27,28
 527 1730 527 1730 536 1713 c 0,29,30
 549 1688 549 1688 549 1600 c 2,31,-1
 549 597 l 1,32,33
 728 659 728 659 872 752 c 1,34,35
 1018 845 1018 845 1018 888 c 128,-1,36
 1018 931 1018 931 942 931 c 1,37,-1
 883 924 l 1,38,39
 867 924 867 924 856.5 938.5 c 128,-1,40
 846 953 846 953 846 963.5 c 128,-1,41
 846 974 846 974 849.5 985 c 128,-1,42
 853 996 853 996 863 1006 c 0,43,44
 886 1029 886 1029 942 1029 c 128,-1,45
 998 1029 998 1029 1054 1021 c 128,-1,46
 1110 1013 1110 1013 1160 1013 c 128,-1,47
 1210 1013 1210 1013 1249.5 1021 c 128,-1,48
 1289 1029 1289 1029 1336 1029 c 0,49,50
 1425 1029 1425 1029 1425 965 c 0,51,52
 1425 953 1425 953 1414.5 938.5 c 128,-1,53
 1404 924 1404 924 1387 924 c 1,54,-1
 1331 931 l 1,55,56
 1288 931 1288 931 1204 857 c 0,57,58
 999 677 999 677 792 574 c 1,59,-1
 1175 213 l 1,60,61
 1299 98 1299 98 1392 98 c 1,62,-1
 1437 105 l 1,63,64
 1460 105 1460 105 1472 69 c 0,65,66
 1475 60 1475 60 1475 52.5 c 128,-1,67
 1475 45 1475 45 1471 34 c 128,-1,68
 1467 23 1467 23 1458 14 c 0,69,70
 1435 -9 1435 -9 1404 -9 c 128,-1,71
 1373 -9 1373 -9 1352.5 -7.5 c 128,-1,72
 1332 -6 1332 -6 1311.5 -4.5 c 128,-1,73
 1291 -3 1291 -3 1272.5 -1.5 c 128,-1,74
 1254 0 1254 0 1242 0 c 2,75,-1
 1120 -9 l 1,76,77
 1083 -9 1083 -9 1056.5 8 c 128,-1,78
 1030 25 1030 25 994 56 c 128,-1,79
 958 87 958 87 900 144 c 2,80,-1
 756 286 l 1,81,-1
 549 499 l 1,82,-1
 549 321 l 2,83,84
 549 192 549 192 573 137 c 128,-1,85
 597 82 597 82 646 82 c 1,86,-1
 699 89 l 1,87,88
 715 89 715 89 725 75 c 128,-1,89
 735 61 735 61 735 49 c 128,-1,90
 735 37 735 37 730.5 26.5 c 128,-1,91
 726 16 726 16 715 7 c 0,92,93
 679 -22 679 -22 586 -12 c 2,94,-1
 492 -2 l 2,95,96
 468 0 468 0 438 0 c 1,0,-1
EndSplineSet
EndChar

StartChar: l
Encoding: 108 108 98
Width: 787
GlyphClass: 2
Flags: W
LayerCount: 2
Fore
SplineSet
634 82 m 1,0,-1
 686 89 l 1,1,2
 703 89 703 89 713 75 c 128,-1,3
 723 61 723 61 723 49 c 128,-1,4
 723 37 723 37 718.5 26.5 c 128,-1,5
 714 16 714 16 703 7 c 0,6,7
 667 -23 667 -23 574 -12 c 2,8,-1
 481 -2 l 2,9,10
 457 0 457 0 409.5 0 c 128,-1,11
 362 0 362 0 305 -7.5 c 128,-1,12
 248 -15 248 -15 215 -15 c 128,-1,13
 182 -15 182 -15 161.5 -8.5 c 128,-1,14
 141 -2 141 -2 130 7 c 0,15,16
 110 22 110 22 110 42 c 128,-1,17
 110 62 110 62 120.5 75.5 c 128,-1,18
 131 89 131 89 148 89 c 1,19,-1
 201 82 l 1,20,21
 260 82 260 82 280 136 c 1,22,23
 300 186 300 186 300 342 c 2,24,-1
 300 1348 l 2,25,26
 300 1520 300 1520 275.5 1561 c 128,-1,27
 251 1602 251 1602 218 1615 c 128,-1,28
 185 1628 185 1628 148 1632 c 0,29,30
 74 1638 74 1638 74 1682 c 0,31,32
 74 1696 74 1696 89.5 1712 c 128,-1,33
 105 1728 105 1728 132 1728 c 128,-1,34
 159 1728 159 1728 179 1726 c 2,35,-1
 220 1722 l 2,36,37
 285 1716 285 1716 320 1716 c 1,38,-1
 473 1730 l 1,39,40
 511 1730 511 1730 521 1713 c 0,41,42
 537 1683 537 1683 537 1600 c 2,43,-1
 537 342 l 2,44,45
 537 182 537 182 555 141 c 128,-1,46
 573 100 573 100 591 91 c 128,-1,47
 609 82 609 82 634 82 c 1,0,-1
EndSplineSet
EndChar

StartChar: m
Encoding: 109 109 99
Width: 2278
GlyphClass: 2
Flags: W
LayerCount: 2
Fore
SplineSet
208 -15 m 0,0,1
 107 -15 107 -15 107 46 c 0,2,3
 107 62 107 62 117.5 75.5 c 128,-1,4
 128 89 128 89 145 89 c 1,5,-1
 195 82 l 1,6,7
 277 82 277 82 294 228 c 0,8,9
 300 281 300 281 300 357 c 2,10,-1
 300 651 l 2,11,12
 300 841 300 841 256 899 c 0,13,14
 241 919 241 919 213.5 927 c 128,-1,15
 186 935 186 935 159.5 941 c 128,-1,16
 133 947 133 947 113.5 955 c 128,-1,17
 94 963 94 963 94 980 c 0,18,19
 94 1025 94 1025 159 1025 c 1,20,-1
 306 1013 l 1,21,-1
 457 1025 l 1,22,23
 498 1025 498 1025 510 1010 c 0,24,25
 534 982 534 982 536 908 c 1,26,27
 715 1053 715 1053 910 1053 c 0,28,29
 1029 1053 1029 1053 1114.5 1006 c 128,-1,30
 1200 959 1200 959 1244 876 c 1,31,32
 1370 998 1370 998 1540 1039 c 0,33,34
 1598 1053 1598 1053 1671 1053 c 128,-1,35
 1744 1053 1744 1053 1813.5 1028 c 128,-1,36
 1883 1003 1883 1003 1932 957 c 0,37,38
 2033 861 2033 861 2033 705 c 2,39,-1
 2033 357 l 2,40,41
 2033 198 2033 198 2051 151.5 c 128,-1,42
 2069 105 2069 105 2087.5 93.5 c 128,-1,43
 2106 82 2106 82 2130 82 c 1,44,-1
 2182 89 l 1,45,46
 2198 89 2198 89 2208 75 c 128,-1,47
 2218 61 2218 61 2218 49 c 128,-1,48
 2218 37 2218 37 2213.5 26.5 c 128,-1,49
 2209 16 2209 16 2198 7 c 0,50,51
 2164 -23 2164 -23 2070 -12 c 2,52,-1
 1977 -2 l 2,53,54
 1953 0 1953 0 1923 0 c 1,55,-1
 1712 -15 l 1,56,57
 1605 -15 1605 -15 1605 46 c 0,58,59
 1605 62 1605 62 1616 75.5 c 128,-1,60
 1627 89 1627 89 1644 89 c 1,61,-1
 1696 82 l 1,62,63
 1755 82 1755 82 1776 144 c 0,64,65
 1795 200 1795 200 1795 357 c 2,66,-1
 1795 665 l 2,67,68
 1795 771 1795 771 1742 830.5 c 128,-1,69
 1689 890 1689 890 1602 890 c 0,70,71
 1439 890 1439 890 1278 741 c 1,72,73
 1285 697 1285 697 1285 664 c 2,74,-1
 1285 357 l 2,75,76
 1285 197 1285 197 1303.5 151 c 128,-1,77
 1322 105 1322 105 1340 93.5 c 128,-1,78
 1358 82 1358 82 1382 82 c 1,79,-1
 1435 89 l 1,80,81
 1452 89 1452 89 1461.5 75 c 128,-1,82
 1471 61 1471 61 1471 49 c 128,-1,83
 1471 37 1471 37 1466.5 26.5 c 128,-1,84
 1462 16 1462 16 1451 7 c 0,85,86
 1415 -22 1415 -22 1323 -12 c 2,87,-1
 1230 -2 l 2,88,89
 1205 0 1205 0 1175 0 c 1,90,-1
 964 -15 l 1,91,92
 878 -15 878 -15 862 26 c 0,93,94
 858 37 858 37 858 49.5 c 128,-1,95
 858 62 858 62 868.5 75.5 c 128,-1,96
 879 89 879 89 897 89 c 1,97,-1
 949 82 l 1,98,99
 1009 82 1009 82 1029 142 c 0,100,101
 1048 199 1048 199 1048 357 c 2,102,-1
 1048 665 l 2,103,104
 1048 771 1048 771 994.5 830.5 c 128,-1,105
 941 890 941 890 846 890 c 0,106,107
 698 890 698 890 536 746 c 1,108,-1
 536 357 l 2,109,110
 536 188 536 188 556.5 145 c 128,-1,111
 577 102 577 102 598.5 92 c 128,-1,112
 620 82 620 82 649 82 c 1,113,-1
 699 89 l 1,114,115
 716 89 716 89 725.5 75.5 c 128,-1,116
 735 62 735 62 735 46 c 0,117,118
 735 -15 735 -15 631 -15 c 0,119,120
 579 -15 579 -15 526.5 -7.5 c 128,-1,121
 474 0 474 0 425 0 c 128,-1,122
 376 0 376 0 346.5 -2.5 c 128,-1,123
 317 -5 317 -5 293 -7.5 c 128,-1,124
 269 -10 269 -10 249 -12.5 c 128,-1,125
 229 -15 229 -15 208 -15 c 0,0,1
EndSplineSet
EndChar

StartChar: n
Encoding: 110 110 100
Width: 1522
GlyphClass: 2
Flags: W
LayerCount: 2
Fore
SplineSet
632 -15 m 1,0,-1
 416 0 l 1,1,2
 352 0 352 0 290.5 -7.5 c 128,-1,3
 229 -15 229 -15 202.5 -15 c 128,-1,4
 176 -15 176 -15 156.5 -8.5 c 128,-1,5
 137 -2 137 -2 126 7 c 0,6,7
 107 23 107 23 107 42.5 c 128,-1,8
 107 62 107 62 118 75.5 c 128,-1,9
 129 89 129 89 145 89 c 1,10,-1
 195 82 l 1,11,12
 251 82 251 82 275 137 c 0,13,14
 300 195 300 195 300 342 c 2,15,-1
 300 651 l 2,16,17
 300 818 300 818 256 878 c 0,18,19
 237 903 237 903 185 918.5 c 128,-1,20
 133 934 133 934 113.5 943.5 c 128,-1,21
 94 953 94 953 94 966.5 c 128,-1,22
 94 980 94 980 97 989 c 128,-1,23
 100 998 100 998 107 1006 c 0,24,25
 124 1025 124 1025 159 1025 c 1,26,-1
 306 1013 l 1,27,-1
 457 1025 l 1,28,29
 500 1025 500 1025 512 1010 c 1,30,31
 537 982 537 982 537 901 c 2,32,-1
 537 874 l 1,33,34
 703 1053 703 1053 925 1053 c 0,35,36
 1178 1053 1178 1053 1251 853 c 0,37,38
 1277 782 1277 782 1277 685 c 2,39,-1
 1277 342 l 2,40,41
 1277 183 1277 183 1295.5 141.5 c 128,-1,42
 1314 100 1314 100 1332 91 c 128,-1,43
 1350 82 1350 82 1374 82 c 1,44,-1
 1427 89 l 1,45,46
 1444 89 1444 89 1453.5 75 c 128,-1,47
 1463 61 1463 61 1463 49 c 128,-1,48
 1463 37 1463 37 1459 26.5 c 128,-1,49
 1455 16 1455 16 1444 7 c 0,50,51
 1408 -22 1408 -22 1316 -12 c 0,52,53
 1201 0 1201 0 1167 0 c 1,54,-1
 956 -15 l 1,55,56
 870 -15 870 -15 854 26 c 0,57,58
 850 37 850 37 850 49.5 c 128,-1,59
 850 62 850 62 860.5 75.5 c 128,-1,60
 871 89 871 89 889 89 c 1,61,-1
 942 82 l 1,62,63
 1001 82 1001 82 1021 135.5 c 128,-1,64
 1041 189 1041 189 1041 342 c 2,65,-1
 1041 607 l 2,66,67
 1041 790 1041 790 938 856 c 0,68,69
 898 882 898 882 844.5 882 c 128,-1,70
 791 882 791 882 749 868.5 c 128,-1,71
 707 855 707 855 669 832 c 0,72,73
 594 785 594 785 537 711 c 1,74,-1
 537 342 l 2,75,76
 537 176 537 176 557.5 136.5 c 128,-1,77
 578 97 578 97 599 89.5 c 128,-1,78
 620 82 620 82 649 82 c 1,79,-1
 699 89 l 1,80,81
 716 89 716 89 726.5 75.5 c 128,-1,82
 737 62 737 62 737 46 c 0,83,84
 737 -15 737 -15 632 -15 c 1,0,-1
EndSplineSet
EndChar

StartChar: o
Encoding: 111 111 101
Width: 1341
GlyphClass: 2
Flags: W
LayerCount: 2
Fore
SplineSet
100 538 m 0,0,1
 100 624 100 624 144.5 722 c 128,-1,2
 189 820 189 820 266 894 c 0,3,4
 433 1053 433 1053 673 1053 c 0,5,6
 951 1053 951 1053 1104 887 c 0,7,8
 1241 738 1241 738 1241 532 c 0,9,10
 1241 289 1241 289 1096 137 c 0,11,12
 943 -24 943 -24 677 -24 c 0,13,14
 293 -24 293 -24 154 266 c 0,15,16
 100 379 100 379 100 538 c 0,0,1
370 730 m 0,17,18
 349 673 349 673 349 579 c 128,-1,19
 349 485 349 485 380.5 398 c 128,-1,20
 412 311 412 311 464 251 c 0,21,22
 573 127 573 127 723 127 c 0,23,24
 907 127 907 127 968 288 c 0,25,26
 989 343 989 343 989 444 c 128,-1,27
 989 545 989 545 956 635.5 c 128,-1,28
 923 726 923 726 870 785 c 0,29,30
 766 901 766 901 617 901 c 0,31,32
 432 901 432 901 370 730 c 0,17,18
EndSplineSet
EndChar

StartChar: p
Encoding: 112 112 102
Width: 1361
GlyphClass: 2
Flags: W
LayerCount: 2
Fore
SplineSet
46 -411 m 1,0,-1
 95 -419 l 1,1,2
 153 -419 153 -419 176 -368 c 1,3,4
 200 -312 200 -312 200 -169 c 2,5,-1
 200 647 l 2,6,7
 200 864 200 864 131 900 c 0,8,9
 108 913 108 913 75 922 c 128,-1,10
 42 931 42 931 27 937 c 0,11,12
 -6 950 -6 950 -6 973 c 0,13,14
 -6 1005 -6 1005 26 1020 c 0,15,16
 39 1025 39 1025 63.5 1025 c 128,-1,17
 88 1025 88 1025 120.5 1019 c 128,-1,18
 153 1013 153 1013 198 1013 c 128,-1,19
 243 1013 243 1013 278.5 1021 c 128,-1,20
 314 1029 314 1029 342.5 1029 c 128,-1,21
 371 1029 371 1029 383 1027 c 128,-1,22
 395 1025 395 1025 404 1019 c 0,23,24
 424 1007 424 1007 433 968 c 1,25,26
 559 1053 559 1053 703.5 1053 c 128,-1,27
 848 1053 848 1053 952.5 1016 c 128,-1,28
 1057 979 1057 979 1130 910 c 0,29,30
 1281 766 1281 766 1281 515 c 0,31,32
 1281 291 1281 291 1122 134 c 0,33,34
 962 -24 962 -24 726 -24 c 0,35,36
 551 -24 551 -24 438 46 c 1,37,-1
 438 -169 l 2,38,39
 438 -331 438 -331 457.5 -368 c 128,-1,40
 477 -405 477 -405 498.5 -412 c 128,-1,41
 520 -419 520 -419 550 -419 c 1,42,-1
 599 -411 l 1,43,44
 616 -411 616 -411 626.5 -424.5 c 128,-1,45
 637 -438 637 -438 637 -451 c 128,-1,46
 637 -464 637 -464 632.5 -475 c 128,-1,47
 628 -486 628 -486 616 -495 c 0,48,49
 590 -516 590 -516 532 -516 c 1,50,-1
 316 -510 l 1,51,-1
 108 -516 l 1,52,53
 27 -516 27 -516 11 -474 c 0,54,55
 7 -463 7 -463 7 -450.5 c 128,-1,56
 7 -438 7 -438 18 -424.5 c 128,-1,57
 29 -411 29 -411 46 -411 c 1,0,-1
438 288 m 1,58,59
 495 168 495 168 631 136 c 0,60,61
 671 126 671 126 730 126 c 128,-1,62
 789 126 789 126 850 150.5 c 128,-1,63
 911 175 911 175 953 219 c 0,64,65
 1039 309 1039 309 1039 464 c 0,66,67
 1039 682 1039 682 940 795 c 0,68,69
 845 902 845 902 682 902 c 0,70,71
 582 902 582 902 490 846 c 0,72,73
 461 828 461 828 438 806 c 1,74,-1
 438 288 l 1,58,59
EndSplineSet
EndChar

StartChar: q
Encoding: 113 113 103
Width: 1330
GlyphClass: 2
Flags: W
LayerCount: 2
Fore
SplineSet
942 73 m 1,0,1
 811 -23 811 -23 662 -23 c 128,-1,2
 513 -23 513 -23 408.5 16 c 128,-1,3
 304 55 304 55 231 126 c 0,4,5
 80 271 80 271 80 517 c 0,6,7
 80 741 80 741 238 896 c 0,8,9
 399 1053 399 1053 621.5 1053 c 128,-1,10
 844 1053 844 1053 979 952 c 1,11,12
 1170 1053 1170 1053 1230 1053 c 0,13,14
 1265 1053 1265 1053 1265 1022 c 0,15,16
 1265 1008 1265 1008 1258.5 1002.5 c 128,-1,17
 1252 997 1252 997 1243 991 c 128,-1,18
 1234 985 1234 985 1222.5 973 c 128,-1,19
 1211 961 1211 961 1202 932 c 0,20,21
 1180 863 1180 863 1180 723 c 2,22,-1
 1180 -179 l 2,23,24
 1180 -341 1180 -341 1199.5 -378 c 128,-1,25
 1219 -415 1219 -415 1240.5 -422 c 128,-1,26
 1262 -429 1262 -429 1292 -429 c 1,27,28
 1292 -429 1292 -429 1341 -421 c 1,29,30
 1358 -421 1358 -421 1368.5 -434.5 c 128,-1,31
 1379 -448 1379 -448 1379 -461 c 128,-1,32
 1379 -474 1379 -474 1374.5 -485 c 128,-1,33
 1370 -496 1370 -496 1358 -505 c 0,34,35
 1332 -526 1332 -526 1274 -526 c 1,36,-1
 1058 -520 l 1,37,-1
 850 -526 l 1,38,39
 769 -526 769 -526 753 -484 c 0,40,41
 749 -473 749 -473 749 -460.5 c 128,-1,42
 749 -448 749 -448 760 -434.5 c 128,-1,43
 771 -421 771 -421 788 -421 c 1,44,-1
 837 -429 l 1,45,46
 895 -429 895 -429 918 -378 c 0,47,48
 942 -326 942 -326 942 -179 c 2,49,-1
 942 73 l 1,0,1
343.5 705 m 128,-1,51
 322 643 322 643 322 553 c 128,-1,52
 322 463 322 463 351.5 381.5 c 128,-1,53
 381 300 381 300 432 243 c 0,54,55
 537 126 537 126 700 126 c 0,56,57
 845 126 845 126 942 241 c 1,58,-1
 942 733 l 1,59,60
 881 855 881 855 732 892 c 0,61,62
 689 902 689 902 630 902 c 128,-1,63
 571 902 571 902 510 878.5 c 128,-1,64
 449 855 449 855 407 811 c 128,-1,50
 365 767 365 767 343.5 705 c 128,-1,51
EndSplineSet
EndChar

StartChar: r
Encoding: 114 114 104
Width: 1149
GlyphClass: 2
Flags: W
LayerCount: 2
Fore
SplineSet
208 -15 m 0,0,1
 107 -15 107 -15 107 46 c 0,2,3
 107 62 107 62 117.5 75.5 c 128,-1,4
 128 89 128 89 145 89 c 1,5,-1
 195 82 l 1,6,7
 252 82 252 82 275 136 c 0,8,9
 300 194 300 194 300 342 c 2,10,-1
 300 647 l 2,11,12
 300 793 300 793 276 845 c 1,13,14
 252 894 252 894 219 906 c 128,-1,15
 186 918 186 918 159.5 925.5 c 128,-1,16
 133 933 133 933 113.5 943 c 128,-1,17
 94 953 94 953 94 966.5 c 128,-1,18
 94 980 94 980 97 989 c 128,-1,19
 100 998 100 998 107 1006 c 0,20,21
 124 1025 124 1025 159 1025 c 1,22,-1
 306 1013 l 1,23,-1
 457 1025 l 1,24,25
 536 1025 536 1025 536 921 c 2,26,-1
 536 851 l 1,27,28
 630 995 630 995 782 1038 c 0,29,30
 832 1053 832 1053 886 1053 c 0,31,32
 1072 1053 1072 1053 1072 934 c 2,33,-1
 1070 687 l 2,34,35
 1070 673 1070 673 1061.5 663.5 c 128,-1,36
 1053 654 1053 654 1042 654 c 0,37,38
 1016 654 1016 654 1004 700 c 128,-1,39
 992 746 992 746 970 778.5 c 128,-1,40
 948 811 948 811 920 830 c 1,41,42
 868 863 868 863 809.5 863 c 128,-1,43
 751 863 751 863 711 844 c 128,-1,44
 671 825 671 825 637 796 c 0,45,46
 571 738 571 738 536 664 c 1,47,-1
 536 342 l 2,48,49
 536 176 536 176 564 124 c 0,50,51
 587 82 587 82 657 82 c 1,52,-1
 726 90 l 1,53,54
 743 90 743 90 753 76 c 128,-1,55
 763 62 763 62 763 49 c 128,-1,56
 763 36 763 36 754.5 25 c 128,-1,57
 746 14 746 14 732 5 c 0,58,59
 687 -23 687 -23 592 -12 c 0,60,61
 569 -10 569 -10 546 -8 c 0,62,63
 431 5 431 5 374 0 c 128,-1,64
 317 -5 317 -5 293 -7.5 c 128,-1,65
 269 -10 269 -10 249 -12.5 c 128,-1,66
 229 -15 229 -15 208 -15 c 0,0,1
EndSplineSet
EndChar

StartChar: s
Encoding: 115 115 105
Width: 1196
GlyphClass: 2
Flags: W
LayerCount: 2
Fore
SplineSet
998 1053 m 0,0,1
 1031 1053 1031 1053 1031 1010 c 0,2,3
 1031 895 1031 895 1039 827 c 128,-1,4
 1047 759 1047 759 1047 744 c 0,5,6
 1047 716 1047 716 1019 716 c 0,7,8
 996 716 996 716 975 758 c 1,9,10
 849 934 849 934 610 934 c 0,11,12
 498 934 498 934 444.5 901 c 128,-1,13
 391 868 391 868 391 828 c 128,-1,14
 391 788 391 788 403 762.5 c 128,-1,15
 415 737 415 737 447 715 c 0,16,17
 508 673 508 673 653 638.5 c 128,-1,18
 798 604 798 604 882 572 c 128,-1,19
 966 540 966 540 1018 500 c 0,20,21
 1119 422 1119 422 1119 292 c 0,22,23
 1119 169 1119 169 1023 84 c 0,24,25
 902 -24 902 -24 634 -24 c 0,26,27
 515 -24 515 -24 402 2 c 1,28,29
 206 49 206 49 140 95 c 1,30,-1
 140 345 l 2,31,32
 140 356 140 356 148 364.5 c 128,-1,33
 156 373 156 373 170 373 c 0,34,35
 195 373 195 373 211 328 c 128,-1,36
 227 283 227 283 269.5 239.5 c 128,-1,37
 312 196 312 196 373 164 c 0,38,39
 503 94 503 94 668 94 c 0,40,41
 780 94 780 94 820.5 114.5 c 128,-1,42
 861 135 861 135 877 162 c 128,-1,43
 893 189 893 189 893 223 c 128,-1,44
 893 257 893 257 877.5 279.5 c 128,-1,45
 862 302 862 302 826 324 c 0,46,47
 754 368 754 368 610.5 404 c 128,-1,48
 467 440 467 440 385.5 478 c 128,-1,49
 304 516 304 516 255 560 c 0,50,51
 166 641 166 641 166 759 c 0,52,53
 166 869 166 869 276 955 c 0,54,55
 403 1053 403 1053 615 1053 c 0,56,57
 763 1053 763 1053 878 1008 c 0,58,59
 900 1000 900 1000 912.5 1000 c 128,-1,60
 925 1000 925 1000 934 1008 c 2,61,-1
 953 1026 l 2,62,63
 981 1053 981 1053 998 1053 c 0,0,1
EndSplineSet
EndChar

StartChar: t
Encoding: 116 116 106
Width: 1015
GlyphClass: 2
Flags: W
LayerCount: 2
Fore
SplineSet
803 1038 m 0,0,1
 932 1038 932 1038 932 971 c 0,2,3
 932 899 932 899 811 899 c 2,4,-1
 495 899 l 1,5,-1
 495 339 l 2,6,7
 495 188 495 188 588 140 c 0,8,9
 620 123 620 123 661 123 c 0,10,11
 760 123 760 123 836 224 c 0,12,13
 869 268 869 268 916 268 c 0,14,15
 931 268 931 268 941 254.5 c 128,-1,16
 951 241 951 241 951 228 c 0,17,18
 951 187 951 187 913 136 c 0,19,20
 794 -24 794 -24 595 -24 c 0,21,22
 347 -24 347 -24 281 142 c 0,23,24
 257 202 257 202 257 289 c 2,25,-1
 257 899 l 1,26,-1
 157 899 l 2,27,28
 52 899 52 899 52 964 c 0,29,30
 52 990 52 990 77.5 1009.5 c 128,-1,31
 103 1029 103 1029 148.5 1039.5 c 128,-1,32
 194 1050 194 1050 233.5 1078 c 128,-1,33
 273 1106 273 1106 300 1150 c 0,34,35
 349 1227 349 1227 374 1396 c 1,36,37
 391 1502 391 1502 443 1502 c 128,-1,38
 495 1502 495 1502 495 1396 c 2,39,-1
 495 1031 l 1,40,-1
 598 1034 l 2,41,42
 718 1038 718 1038 803 1038 c 0,0,1
EndSplineSet
EndChar

StartChar: u
Encoding: 117 117 107
Width: 1409
GlyphClass: 2
Flags: W
LayerCount: 2
Fore
SplineSet
978 110 m 1,0,1
 837 -24 837 -24 658 -24 c 0,2,3
 485 -24 485 -24 372 75 c 0,4,5
 258 176 258 176 258 330 c 2,6,-1
 258 676 l 2,7,8
 258 844 258 844 244.5 880 c 128,-1,9
 231 916 231 916 210.5 925.5 c 128,-1,10
 190 935 190 935 158.5 935 c 128,-1,11
 127 935 127 935 116 931.5 c 128,-1,12
 105 928 105 928 93 928 c 128,-1,13
 81 928 81 928 70.5 942 c 128,-1,14
 60 956 60 956 60 966.5 c 128,-1,15
 60 977 60 977 64.5 988.5 c 128,-1,16
 69 1000 69 1000 80 1010 c 1,17,18
 108 1032 108 1032 141.5 1032 c 128,-1,19
 175 1032 175 1032 197 1030.5 c 128,-1,20
 219 1029 219 1029 241 1027.5 c 128,-1,21
 263 1026 263 1026 282.5 1024.5 c 128,-1,22
 302 1023 302 1023 313 1023 c 2,23,-1
 424 1029 l 1,24,25
 483 1029 483 1029 492 938 c 0,26,27
 496 905 496 905 496 857 c 2,28,-1
 496 370 l 2,29,30
 496 197 496 197 625 152 c 0,31,32
 665 138 665 138 713 138 c 0,33,34
 845 138 845 138 977 272 c 1,35,-1
 977 675 l 2,36,37
 977 845 977 845 963.5 880.5 c 128,-1,38
 950 916 950 916 929.5 925.5 c 128,-1,39
 909 935 909 935 877.5 935 c 128,-1,40
 846 935 846 935 835 931.5 c 128,-1,41
 824 928 824 928 812 928 c 128,-1,42
 800 928 800 928 790 942 c 128,-1,43
 780 956 780 956 780 966.5 c 128,-1,44
 780 977 780 977 784.5 988.5 c 128,-1,45
 789 1000 789 1000 800 1010 c 0,46,47
 826 1032 826 1032 860 1032 c 128,-1,48
 894 1032 894 1032 916 1030 c 2,49,-1
 960 1028 l 2,50,51
 983 1026 983 1026 1002.5 1024.5 c 128,-1,52
 1022 1023 1022 1023 1033 1023 c 2,53,-1
 1143 1029 l 1,54,55
 1185 1029 1185 1029 1196 1006 c 1,56,57
 1215 970 1215 970 1215 876 c 2,58,-1
 1215 354 l 2,59,60
 1215 181 1215 181 1228 145 c 128,-1,61
 1241 109 1241 109 1262 98.5 c 128,-1,62
 1283 88 1283 88 1315 88 c 128,-1,63
 1347 88 1347 88 1357 91.5 c 128,-1,64
 1367 95 1367 95 1379.5 95 c 128,-1,65
 1392 95 1392 95 1402.5 81 c 128,-1,66
 1413 67 1413 67 1413 56.5 c 128,-1,67
 1413 46 1413 46 1408.5 34.5 c 128,-1,68
 1404 23 1404 23 1392 14 c 0,69,70
 1365 -9 1365 -9 1331 -9 c 128,-1,71
 1297 -9 1297 -9 1275 -7.5 c 128,-1,72
 1253 -6 1253 -6 1231 -4.5 c 128,-1,73
 1209 -3 1209 -3 1190 -1.5 c 128,-1,74
 1171 0 1171 0 1159 0 c 2,75,-1
 1049 -6 l 1,76,77
 987 -6 987 -6 978 110 c 1,0,1
EndSplineSet
EndChar

StartChar: v
Encoding: 118 118 108
Width: 1366
GlyphClass: 2
Flags: W
LayerCount: 2
Fore
SplineSet
1363 925 m 1,0,-1
 1307 932 l 1,1,2
 1267 932 1267 932 1237 898 c 1,3,4
 1182 839 1182 839 1131 733 c 2,5,-1
 787 32 l 1,6,7
 757 -35 757 -35 724.5 -35 c 128,-1,8
 692 -35 692 -35 659 23 c 2,9,-1
 200 823 l 1,10,11
 149 908 149 908 126 920 c 128,-1,12
 103 932 103 932 84 932 c 1,13,-1
 27 925 l 1,14,15
 10 925 10 925 -0.5 939 c 128,-1,16
 -11 953 -11 953 -11 970 c 128,-1,17
 -11 987 -11 987 13.5 1008 c 128,-1,18
 38 1029 38 1029 89 1029 c 128,-1,19
 140 1029 140 1029 190.5 1021 c 128,-1,20
 241 1013 241 1013 297 1013 c 1,21,-1
 555 1029 l 1,22,23
 627 1029 627 1029 648 986 c 0,24,25
 653 975 653 975 653 964 c 128,-1,26
 653 953 653 953 643.5 939 c 128,-1,27
 634 925 634 925 615 925 c 1,28,-1
 539 934 l 1,29,30
 459 934 459 934 459 884 c 0,31,32
 459 833 459 833 498 770 c 1,33,34
 554 666 554 666 615.5 568 c 128,-1,35
 677 470 677 470 734 366 c 0,36,37
 758 324 758 324 775 324 c 0,38,39
 785 324 785 324 802 362 c 1,40,-1
 959 691 l 1,41,42
 1011 803 1011 803 1016 836 c 128,-1,43
 1021 869 1021 869 1021 884 c 0,44,45
 1021 934 1021 934 951 934 c 1,46,-1
 859 925 l 1,47,48
 841 925 841 925 831 939 c 128,-1,49
 821 953 821 953 821 971 c 128,-1,50
 821 989 821 989 845 1009 c 128,-1,51
 869 1029 869 1029 924 1029 c 128,-1,52
 979 1029 979 1029 1034 1021 c 128,-1,53
 1089 1013 1089 1013 1136.5 1013 c 128,-1,54
 1184 1013 1184 1013 1227.5 1021 c 128,-1,55
 1271 1029 1271 1029 1313.5 1029 c 128,-1,56
 1356 1029 1356 1029 1378 1008 c 128,-1,57
 1400 987 1400 987 1400 970 c 128,-1,58
 1400 953 1400 953 1389.5 939 c 128,-1,59
 1379 925 1379 925 1363 925 c 1,0,-1
EndSplineSet
EndChar

StartChar: w
Encoding: 119 119 109
Width: 2047
GlyphClass: 2
Flags: W
LayerCount: 2
Fore
SplineSet
2059 925 m 1,0,-1
 2003 932 l 1,1,2
 1958 932 1958 932 1926 894 c 0,3,4
 1865 823 1865 823 1770 633 c 1,5,-1
 1460 22 l 1,6,7
 1398 -89 1398 -89 1338 23 c 2,8,-1
 1044 578 l 1,9,-1
 789 22 l 2,10,11
 775 -7 775 -7 748.5 -21 c 128,-1,12
 722 -35 722 -35 704 -35 c 0,13,14
 676 -35 676 -35 646 23 c 1,15,-1
 262 731 l 1,16,17
 167 903 167 903 120 924 c 0,18,19
 104 932 104 932 89 932 c 1,20,-1
 33 925 l 1,21,22
 16 925 16 925 5.5 939 c 128,-1,23
 -5 953 -5 953 -5 970 c 128,-1,24
 -5 987 -5 987 19 1008 c 128,-1,25
 43 1029 43 1029 82 1029 c 0,26,27
 141 1029 141 1029 187 1023 c 2,28,-1
 215 1019 l 2,29,30
 252 1013 252 1013 296 1013 c 128,-1,31
 340 1013 340 1013 390 1021 c 128,-1,32
 440 1029 440 1029 482.5 1029 c 128,-1,33
 525 1029 525 1029 544 1022.5 c 128,-1,34
 563 1016 563 1016 574 1006 c 0,35,36
 595 988 595 988 595 971 c 0,37,38
 595 925 595 925 558 925 c 1,39,-1
 480 934 l 1,40,41
 458 934 458 934 451.5 926.5 c 128,-1,42
 445 919 445 919 445 904 c 0,43,44
 445 876 445 876 490 798 c 1,45,-1
 742 343 l 2,46,47
 753 323 753 323 757.5 315.5 c 128,-1,48
 762 308 762 308 770 308 c 0,49,50
 782 308 782 308 803 351 c 1,51,-1
 979 738 l 1,52,53
 916 860 916 860 887 890.5 c 128,-1,54
 858 921 858 921 842 926.5 c 128,-1,55
 826 932 826 932 810 932 c 1,56,57
 810 932 810 932 754 925 c 1,58,59
 737 925 737 925 726.5 939 c 128,-1,60
 716 953 716 953 716 970 c 128,-1,61
 716 987 716 987 740.5 1008 c 128,-1,62
 765 1029 765 1029 803.5 1029 c 128,-1,63
 842 1029 842 1029 860 1027 c 128,-1,64
 878 1025 878 1025 900 1023 c 2,65,-1
 927 1020 l 2,66,67
 947 1018 947 1018 965.5 1015.5 c 128,-1,68
 984 1013 984 1013 1006 1013 c 0,69,70
 1042 1013 1042 1013 1088 1019 c 2,71,-1
 1114 1022 l 1,72,73
 1255 1037 1255 1037 1285.5 1026.5 c 128,-1,74
 1316 1016 1316 1016 1328 1006 c 0,75,76
 1349 987 1349 987 1349 970 c 128,-1,77
 1349 953 1349 953 1339.5 939 c 128,-1,78
 1330 925 1330 925 1312 925 c 1,79,-1
 1234 934 l 1,80,81
 1174 934 1174 934 1174 883 c 0,82,83
 1174 862 1174 862 1185 843 c 2,84,-1
 1210 798 l 1,85,-1
 1428 350 l 2,86,87
 1448 308 1448 308 1462 308 c 0,88,89
 1474 308 1474 308 1496 351 c 1,90,-1
 1655 687 l 1,91,92
 1710 797 1710 797 1714 831.5 c 128,-1,93
 1718 866 1718 866 1718 884 c 0,94,95
 1718 934 1718 934 1647 934 c 1,96,-1
 1555 925 l 1,97,98
 1540 925 1540 925 1529 939 c 128,-1,99
 1518 953 1518 953 1518 965 c 128,-1,100
 1518 977 1518 977 1523.5 988.5 c 128,-1,101
 1529 1000 1529 1000 1541 1009 c 0,102,103
 1568 1029 1568 1029 1615 1029 c 1,104,-1
 1852 1013 l 1,105,106
 1877 1013 1877 1013 1910 1018 c 0,107,108
 1973 1029 1973 1029 2009 1029 c 128,-1,109
 2045 1029 2045 1029 2071 1009.5 c 128,-1,110
 2097 990 2097 990 2097 971.5 c 128,-1,111
 2097 953 2097 953 2086.5 939 c 128,-1,112
 2076 925 2076 925 2059 925 c 1,0,-1
EndSplineSet
EndChar

StartChar: x
Encoding: 120 120 110
Width: 1369
GlyphClass: 2
Flags: W
LayerCount: 2
Fore
SplineSet
458 -16 m 1,0,-1
 256 0 l 1,1,2
 212 0 212 0 170.5 -8 c 128,-1,3
 129 -16 129 -16 89 -16 c 128,-1,4
 49 -16 49 -16 26.5 4.5 c 128,-1,5
 4 25 4 25 4 42.5 c 128,-1,6
 4 60 4 60 14.5 74 c 128,-1,7
 25 88 25 88 43 88 c 1,8,-1
 98 81 l 1,9,10
 152 81 152 81 275 217 c 1,11,-1
 540 501 l 1,12,-1
 253 844 l 1,13,14
 200 903 200 903 174 915 c 0,15,16
 140 932 140 932 100 932 c 1,17,-1
 44 925 l 1,18,19
 26 925 26 925 15.5 939 c 128,-1,20
 5 953 5 953 5 970 c 128,-1,21
 5 987 5 987 29 1008 c 128,-1,22
 53 1029 53 1029 92.5 1029 c 128,-1,23
 132 1029 132 1029 154 1027 c 2,24,-1
 200 1023 l 1,25,-1
 227 1020 l 2,26,27
 247 1018 247 1018 266 1015.5 c 128,-1,28
 285 1013 285 1013 326.5 1013 c 128,-1,29
 368 1013 368 1013 439.5 1021 c 128,-1,30
 511 1029 511 1029 560.5 1029 c 128,-1,31
 610 1029 610 1029 629 1022.5 c 128,-1,32
 648 1016 648 1016 659 1006 c 0,33,34
 679 988 679 988 679 970 c 0,35,36
 679 925 679 925 642 925 c 1,37,-1
 565 934 l 1,38,39
 514 934 514 934 514 907 c 0,40,41
 514 896 514 896 524 886 c 2,42,-1
 755 622 l 1,43,-1
 938 809 l 2,44,45
 985 856 985 856 992 871 c 128,-1,46
 999 886 999 886 999 899 c 256,47,48
 999 912 999 912 989 923 c 128,-1,49
 979 934 979 934 959 934 c 1,50,-1
 873 925 l 1,51,52
 848 925 848 925 838 954 c 0,53,54
 835 961 835 961 835 969 c 128,-1,55
 835 977 835 977 841 988.5 c 128,-1,56
 847 1000 847 1000 860 1009 c 0,57,58
 890 1029 890 1029 943 1029 c 128,-1,59
 996 1029 996 1029 1044 1021 c 128,-1,60
 1092 1013 1092 1013 1133 1013 c 128,-1,61
 1174 1013 1174 1013 1215.5 1021 c 128,-1,62
 1257 1029 1257 1029 1298 1029 c 128,-1,63
 1339 1029 1339 1029 1361.5 1008 c 128,-1,64
 1384 987 1384 987 1384 970 c 128,-1,65
 1384 953 1384 953 1373.5 939 c 128,-1,66
 1363 925 1363 925 1345 925 c 1,67,-1
 1290 932 l 1,68,69
 1257 932 1257 932 1227 912 c 0,70,71
 1176 877 1176 877 1093 792 c 2,72,-1
 838 527 l 1,73,-1
 1136 185 l 2,74,75
 1213 97 1213 97 1256 84 c 0,76,77
 1272 80 1272 80 1289 80 c 1,78,-1
 1345 87 l 1,79,80
 1363 87 1363 87 1373.5 73 c 128,-1,81
 1384 59 1384 59 1384 41.5 c 128,-1,82
 1384 24 1384 24 1360 3.5 c 128,-1,83
 1336 -17 1336 -17 1286 -17 c 256,84,85
 1236 -17 1236 -17 1187 -8.5 c 128,-1,86
 1138 0 1138 0 1080.5 0 c 128,-1,87
 1023 0 1023 0 952 -8.5 c 128,-1,88
 881 -17 881 -17 830 -17 c 128,-1,89
 779 -17 779 -17 760 -10.5 c 128,-1,90
 741 -4 741 -4 730 6 c 0,91,92
 710 23 710 23 710 41 c 0,93,94
 710 87 710 87 748 87 c 0,95,96
 755 87 755 87 760 85.5 c 128,-1,97
 765 84 765 84 772 82 c 0,98,99
 795 78 795 78 835 78 c 128,-1,100
 875 78 875 78 875 105 c 0,101,102
 875 128 875 128 819 193 c 2,103,-1
 632 406 l 1,104,-1
 524 279 l 1,105,106
 407 162 407 162 407 120.5 c 128,-1,107
 407 79 407 79 446 79 c 1,108,-1
 531 88 l 1,109,110
 556 88 556 88 566 59 c 0,111,112
 569 52 569 52 569 38 c 128,-1,113
 569 24 569 24 544 4 c 128,-1,114
 519 -16 519 -16 458 -16 c 1,0,-1
EndSplineSet
EndChar

StartChar: y
Encoding: 121 121 111
Width: 1349
GlyphClass: 2
Flags: W
LayerCount: 2
Fore
SplineSet
1332 925 m 1,0,-1
 1276 933 l 1,1,2
 1208 933 1208 933 1134 776 c 1,3,-1
 728 -136 l 1,4,5
 580 -443 580 -443 438 -494 c 0,6,7
 397 -508 397 -508 350.5 -508 c 128,-1,8
 304 -508 304 -508 259.5 -494 c 128,-1,9
 215 -480 215 -480 184 -456 c 0,10,11
 121 -406 121 -406 121 -335 c 0,12,13
 121 -279 121 -279 163 -252 c 0,14,15
 175 -245 175 -245 197 -245 c 0,16,17
 246 -245 246 -245 278 -304 c 0,18,19
 309 -360 309 -360 348 -370 c 0,20,21
 362 -373 362 -373 384 -373 c 128,-1,22
 406 -373 406 -373 431.5 -360.5 c 128,-1,23
 457 -348 457 -348 488 -312 c 0,24,25
 550 -241 550 -241 643 -52 c 1,26,-1
 643 -51 l 1,27,-1
 265 731 l 1,28,29
 179 903 179 903 118 926 c 0,30,31
 101 932 101 932 85 932 c 1,32,-1
 29 925 l 1,33,34
 12 925 12 925 1.5 939 c 128,-1,35
 -9 953 -9 953 -9 970 c 128,-1,36
 -9 987 -9 987 15 1008 c 128,-1,37
 39 1029 39 1029 89 1029 c 1,38,-1
 288 1013 l 1,39,40
 347 1013 347 1013 417 1021 c 128,-1,41
 487 1029 487 1029 536 1029 c 128,-1,42
 585 1029 585 1029 604 1022.5 c 128,-1,43
 623 1016 623 1016 634 1006 c 0,44,45
 655 988 655 988 655 971 c 0,46,47
 655 925 655 925 617 925 c 1,48,-1
 541 934 l 1,49,50
 473 934 473 934 473 883 c 0,51,52
 473 864 473 864 488 828 c 2,53,-1
 755 228 l 1,54,55
 966 759 966 759 979 789.5 c 128,-1,56
 992 820 992 820 998 838 c 0,57,58
 1011 874 1011 874 1011 894 c 0,59,60
 1011 934 1011 934 953 934 c 1,61,-1
 870 925 l 1,62,63
 853 925 853 925 842.5 939 c 128,-1,64
 832 953 832 953 832 971 c 128,-1,65
 832 989 832 989 855 1009 c 128,-1,66
 878 1029 878 1029 930.5 1029 c 128,-1,67
 983 1029 983 1029 1031.5 1021 c 128,-1,68
 1080 1013 1080 1013 1121 1013 c 128,-1,69
 1162 1013 1162 1013 1198.5 1021 c 128,-1,70
 1235 1029 1235 1029 1279.5 1029 c 128,-1,71
 1324 1029 1324 1029 1347 1008 c 128,-1,72
 1370 987 1370 987 1370 970 c 128,-1,73
 1370 953 1370 953 1359 939 c 128,-1,74
 1348 925 1348 925 1332 925 c 1,0,-1
EndSplineSet
EndChar

StartChar: z
Encoding: 122 122 112
Width: 1194
GlyphClass: 2
Flags: W
LayerCount: 2
Fore
SplineSet
1133 368 m 0,0,1
 1162 368 1162 368 1162 338 c 0,2,3
 1162 312 1162 312 1138.5 264.5 c 128,-1,4
 1115 217 1115 217 1103 189 c 128,-1,5
 1091 161 1091 161 1082 133 c 0,6,7
 1063 79 1063 79 1050 0 c 1,8,-1
 155 0 l 2,9,10
 114 0 114 0 101 12 c 128,-1,11
 88 24 88 24 85 37 c 128,-1,12
 82 50 82 50 81.5 57.5 c 128,-1,13
 81 65 81 65 84 74 c 0,14,15
 90 93 90 93 116 125 c 2,16,-1
 773 912 l 1,17,-1
 517 912 l 2,18,19
 429 912 429 912 385 888 c 0,20,21
 309 848 309 848 246 764 c 0,22,23
 169 662 169 662 139 662 c 0,24,25
 125 662 125 662 115.5 671.5 c 128,-1,26
 106 681 106 681 113 704.5 c 128,-1,27
 120 728 120 728 130.5 770.5 c 128,-1,28
 141 813 141 813 149 856 c 0,29,30
 166 947 166 947 166 1001 c 128,-1,31
 166 1055 166 1055 203 1055 c 0,32,33
 210 1055 210 1055 222 1048 c 2,34,-1
 250 1034 l 1,35,36
 289 1013 289 1013 305 1013 c 2,37,-1
 1012 1013 l 2,38,39
 1056 1013 1056 1013 1074.5 1005 c 128,-1,40
 1093 997 1093 997 1097 982 c 0,41,42
 1107 943 1107 943 1085 917 c 2,43,-1
 412 102 l 1,44,-1
 709 102 l 2,45,46
 836 102 836 102 916 158 c 0,47,48
 957 186 957 186 995 229 c 2,49,-1
 1081 329 l 2,50,51
 1101 352 1101 352 1110.5 360 c 128,-1,52
 1120 368 1120 368 1133 368 c 0,0,1
EndSplineSet
EndChar

StartChar: braceleft
Encoding: 123 123 113
Width: 809
GlyphClass: 2
Flags: W
LayerCount: 2
Fore
SplineSet
703 -197 m 1,0,1
 737 -197 737 -197 737 -223 c 0,2,3
 737 -259 737 -259 674 -272 c 0,4,5
 655 -275 655 -275 619.5 -275 c 128,-1,6
 584 -275 584 -275 535 -245.5 c 128,-1,7
 486 -216 486 -216 445 -158 c 0,8,9
 357 -32 357 -32 332 192 c 1,10,11
 292 498 292 498 249 592 c 0,12,13
 221 655 221 655 178 673 c 0,14,15
 158 682 158 682 130 688 c 0,16,17
 82 700 82 700 82 727 c 256,18,19
 82 754 82 754 120 763 c 128,-1,20
 158 772 158 772 178.5 780.5 c 128,-1,21
 199 789 199 789 216.5 808.5 c 128,-1,22
 234 828 234 828 249 861.5 c 128,-1,23
 264 895 264 895 278 948 c 0,24,25
 305 1058 305 1058 325 1218.5 c 128,-1,26
 345 1379 345 1379 374.5 1466.5 c 128,-1,27
 404 1554 404 1554 445 1612 c 0,28,29
 527 1730 527 1730 635 1730 c 0,30,31
 700 1730 700 1730 728 1698 c 0,32,33
 737 1689 737 1689 737 1678 c 0,34,35
 737 1651 737 1651 703 1651 c 1,36,-1
 645 1660 l 1,37,38
 604 1660 604 1660 588 1618 c 0,39,40
 570 1572 570 1572 570 1419.5 c 128,-1,41
 570 1267 570 1267 553.5 1139 c 128,-1,42
 537 1011 537 1011 506 926 c 0,43,44
 450 769 450 769 333 727 c 1,45,46
 451 682 451 682 506 527 c 0,47,48
 570 350 570 350 570 6 c 0,49,50
 570 -118 570 -118 583.5 -152.5 c 128,-1,51
 597 -187 597 -187 611 -196 c 128,-1,52
 625 -205 625 -205 645 -205 c 1,53,-1
 703 -197 l 1,0,1
EndSplineSet
EndChar

StartChar: bar
Encoding: 124 124 114
Width: 860
GlyphClass: 2
Flags: W
LayerCount: 2
Fore
SplineSet
346 1653 m 2,0,1
 346 1688 346 1688 371 1709 c 128,-1,2
 396 1730 396 1730 431.5 1730 c 128,-1,3
 467 1730 467 1730 490.5 1708 c 128,-1,4
 514 1686 514 1686 514 1651 c 2,5,-1
 514 -207 l 2,6,7
 514 -261 514 -261 462 -282 c 0,8,9
 448 -288 448 -288 422 -288 c 128,-1,10
 396 -288 396 -288 371 -264 c 128,-1,11
 346 -240 346 -240 346 -204 c 2,12,-1
 346 1653 l 2,0,1
EndSplineSet
EndChar

StartChar: asciitilde
Encoding: 126 126 116
Width: 1437
GlyphClass: 2
Flags: W
LayerCount: 2
Fore
SplineSet
440 697 m 0,0,1
 322 697 322 697 227 476 c 1,2,-1
 95 541 l 1,3,4
 142 670 142 670 238 762 c 0,5,6
 336 856 336 856 445 856 c 0,7,8
 577 856 577 856 763 719 c 0,9,10
 899 619 899 619 967 608 c 0,11,12
 991 604 991 604 1015.5 604 c 128,-1,13
 1040 604 1040 604 1065 615 c 128,-1,14
 1090 626 1090 626 1115 652 c 0,15,16
 1170 708 1170 708 1211 823 c 1,17,-1
 1342 761 l 1,18,19
 1230 446 1230 446 1001 446 c 0,20,21
 876 446 876 446 695 580 c 1,22,23
 590 655 590 655 554 672 c 0,24,25
 500 697 500 697 440 697 c 0,0,1
EndSplineSet
EndChar

StartChar: cent
Encoding: 162 162 119
Width: 1216
GlyphClass: 2
Flags: W
LayerCount: 2
Fore
SplineSet
677 -288 m 0,0,1
 620 -288 620 -288 620 -207 c 2,2,-1
 620 -21 l 1,3,4
 395 0 395 0 257 136 c 0,5,6
 108 283 108 283 108 515 c 0,7,8
 108 713 108 713 247 866 c 0,9,10
 393 1026 393 1026 620 1049 c 1,11,-1
 620 1211 l 2,12,13
 620 1291 620 1291 671 1291 c 0,14,15
 703 1291 703 1291 716 1271.5 c 128,-1,16
 729 1252 729 1252 729 1212 c 2,17,-1
 729 1052 l 1,18,19
 795 1048 795 1048 851 1032 c 1,20,-1
 916 1012 l 2,21,22
 926 1009 926 1009 938 1009 c 128,-1,23
 950 1009 950 1009 967 1016 c 128,-1,24
 984 1023 984 1023 1002 1031 c 2,25,-1
 1035 1046 l 2,26,27
 1051 1053 1051 1053 1061 1053 c 0,28,29
 1095 1053 1095 1053 1095 1013.5 c 128,-1,30
 1095 974 1095 974 1095.5 943.5 c 128,-1,31
 1096 913 1096 913 1099 886 c 0,32,33
 1105 836 1105 836 1118.5 796.5 c 128,-1,34
 1132 757 1132 757 1132 744 c 128,-1,35
 1132 731 1132 731 1126.5 725.5 c 128,-1,36
 1121 720 1121 720 1114 716 c 1,37,38
 1097 709 1097 709 1084 709 c 0,39,40
 1057 709 1057 709 1013.5 764 c 128,-1,41
 970 819 970 819 935 848.5 c 128,-1,42
 900 878 900 878 868 893 c 0,43,44
 824 913 824 913 729 918 c 1,45,-1
 729 136 l 1,46,47
 747 134 747 134 778.5 134 c 128,-1,48
 810 134 810 134 846 139 c 128,-1,49
 882 144 882 144 913 157 c 0,50,51
 974 183 974 183 1018 249 c 1,52,53
 1057 300 1057 300 1093 300 c 0,54,55
 1110 300 1110 300 1122 264 c 0,56,57
 1125 255 1125 255 1125 237.5 c 128,-1,58
 1125 220 1125 220 1108 190 c 128,-1,59
 1091 160 1091 160 1062 131 c 128,-1,60
 1033 102 1033 102 994.5 76 c 128,-1,61
 956 50 956 50 912 30 c 0,62,63
 819 -14 819 -14 729 -22 c 1,64,-1
 729 -210 l 2,65,66
 729 -288 729 -288 677 -288 c 0,0,1
620 912 m 1,67,68
 356 858 356 858 356 543 c 0,69,70
 356 252 356 252 620 159 c 1,71,-1
 620 912 l 1,67,68
EndSplineSet
EndChar

StartChar: sterling
Encoding: 163 163 120
Width: 1367
GlyphClass: 2
Flags: W
LayerCount: 2
Fore
SplineSet
151 13 m 1,0,1
 121 -20 121 -20 107 -20 c 128,-1,2
 93 -20 93 -20 85.5 -16 c 128,-1,3
 78 -12 78 -12 72 -5 c 0,4,5
 57 11 57 11 57 26.5 c 128,-1,6
 57 42 57 42 66.5 61 c 128,-1,7
 76 80 76 80 98 103 c 0,8,9
 147 154 147 154 221 194 c 1,10,11
 338 255 338 255 359 284 c 0,12,13
 405 345 405 345 405 454 c 128,-1,14
 405 563 405 563 347 718 c 1,15,-1
 215 718 l 2,16,17
 170 718 170 718 143.5 737 c 128,-1,18
 117 756 117 756 117 783.5 c 128,-1,19
 117 811 117 811 139 829 c 128,-1,20
 161 847 161 847 208 847 c 2,21,-1
 293 847 l 1,22,23
 228 1010 228 1010 228 1126.5 c 128,-1,24
 228 1243 228 1243 264.5 1324 c 128,-1,25
 301 1405 301 1405 364 1464 c 0,26,27
 495 1587 495 1587 684 1587 c 0,28,29
 780 1587 780 1587 842.5 1567.5 c 128,-1,30
 905 1548 905 1548 938 1535 c 0,31,32
 992 1513 992 1513 1004 1512 c 1,33,34
 1024 1512 1024 1512 1059 1548 c 1,35,36
 1108 1601 1108 1601 1127 1601 c 0,37,38
 1161 1601 1161 1601 1158.5 1553.5 c 128,-1,39
 1156 1506 1156 1506 1162.5 1458 c 128,-1,40
 1169 1410 1169 1410 1178.5 1363.5 c 128,-1,41
 1188 1317 1188 1317 1197.5 1275 c 128,-1,42
 1207 1233 1207 1233 1210 1206 c 0,43,44
 1215 1160 1215 1160 1180 1160 c 0,45,46
 1169 1160 1169 1160 1145 1184 c 1,47,48
 1061 1309 1061 1309 933 1384 c 1,49,50
 809 1458 809 1458 695 1458 c 0,51,52
 530 1458 530 1458 476 1333 c 0,53,54
 458 1291 458 1291 458 1243 c 128,-1,55
 458 1195 458 1195 461.5 1155 c 128,-1,56
 465 1115 465 1115 476 1070 c 0,57,58
 498 979 498 979 559 847 c 1,59,-1
 976 847 l 2,60,61
 1046 847 1046 847 1076 812 c 0,62,63
 1087 799 1087 799 1087 780.5 c 128,-1,64
 1087 762 1087 762 1078 750.5 c 128,-1,65
 1069 739 1069 739 1055 732 c 0,66,67
 1027 718 1027 718 987 718 c 2,68,-1
 608 718 l 1,69,70
 640 611 640 611 640 546 c 128,-1,71
 640 481 640 481 630 446 c 128,-1,72
 620 411 620 411 603 379 c 0,73,74
 570 316 570 316 514 267 c 1,75,76
 654 257 654 257 707.5 240.5 c 128,-1,77
 761 224 761 224 812.5 202 c 128,-1,78
 864 180 864 180 904.5 164.5 c 128,-1,79
 945 149 945 149 976 140 c 0,80,81
 1035 123 1035 123 1079 123 c 0,82,83
 1159 123 1159 123 1214 178 c 0,84,85
 1245 209 1245 209 1260.5 209 c 128,-1,86
 1276 209 1276 209 1285.5 203 c 128,-1,87
 1295 197 1295 197 1303 188 c 0,88,89
 1322 167 1322 167 1322 144.5 c 128,-1,90
 1322 122 1322 122 1289.5 89.5 c 128,-1,91
 1257 57 1257 57 1206 32 c 0,92,93
 1090 -24 1090 -24 987 -24 c 0,94,95
 800 -24 800 -24 621 33 c 0,96,97
 440 90 440 90 352 90 c 0,98,99
 227 90 227 90 151 12 c 1,100,-1
 151 13 l 1,0,1
EndSplineSet
EndChar

StartChar: currency
Encoding: 164 164 121
Width: 1451
GlyphClass: 2
Flags: W
LayerCount: 2
Fore
SplineSet
988 314 m 1,0,1
 873 232 873 232 719.5 232 c 128,-1,2
 566 232 566 232 456 307 c 1,3,-1
 245 87 l 1,4,-1
 136 196 l 1,5,-1
 356 408 l 1,6,7
 290 506 290 506 290 639 c 128,-1,8
 290 772 290 772 359 873 c 1,9,-1
 136 1087 l 1,10,-1
 245 1196 l 1,11,-1
 459 974 l 1,12,13
 574 1053 574 1053 726 1053 c 128,-1,14
 878 1053 878 1053 990 972 c 1,15,-1
 1206 1196 l 1,16,-1
 1315 1087 l 1,17,-1
 1087 868 l 1,18,19
 1147 767 1147 767 1147 642 c 0,20,21
 1147 516 1147 516 1084 417 c 1,22,-1
 1315 196 l 1,23,-1
 1206 87 l 1,24,-1
 988 314 l 1,0,1
441 642 m 0,25,26
 441 580 441 580 461.5 527.5 c 128,-1,27
 482 475 482 475 518 437 c 0,28,29
 596 356 596 356 720 356 c 0,30,31
 846 356 846 356 920 432 c 0,32,33
 998 511 998 511 998 643 c 0,34,35
 998 765 998 765 918 846 c 0,36,37
 839 927 839 927 717 927 c 0,38,39
 594 927 594 927 517 846 c 0,40,41
 441 766 441 766 441 642 c 0,25,26
EndSplineSet
EndChar

StartChar: yen
Encoding: 165 165 122
Width: 1539
GlyphClass: 2
Flags: W
LayerCount: 2
Fore
SplineSet
1002 76 m 1,0,-1
 1097 87 l 1,1,2
 1115 87 1115 87 1125 76 c 128,-1,3
 1135 65 1135 65 1135 49.5 c 128,-1,4
 1135 34 1135 34 1110 17 c 128,-1,5
 1085 0 1085 0 1036 0 c 128,-1,6
 987 0 987 0 953.5 2.5 c 128,-1,7
 920 5 920 5 890 8 c 2,8,-1
 833 12 l 1,9,10
 805 15 805 15 772 15 c 256,11,12
 739 15 739 15 710 12 c 2,13,-1
 652 8 l 1,14,15
 564 0 564 0 512 0 c 128,-1,16
 460 0 460 0 435 17 c 128,-1,17
 410 34 410 34 410 49.5 c 128,-1,18
 410 65 410 65 420 76 c 128,-1,19
 430 87 430 87 448 87 c 1,20,-1
 544 76 l 1,21,22
 610 76 610 76 634 140 c 0,23,24
 655 196 655 196 655 329 c 2,25,-1
 655 374 l 1,26,-1
 253 374 l 2,27,28
 218 374 218 374 196.5 384 c 128,-1,29
 175 394 175 394 175 422 c 128,-1,30
 175 450 175 450 181 460 c 128,-1,31
 187 470 187 470 198 475 c 0,32,33
 212 482 212 482 256 482 c 2,34,-1
 655 482 l 1,35,-1
 655 736 l 1,36,-1
 253 736 l 2,37,38
 218 736 218 736 196.5 746.5 c 128,-1,39
 175 757 175 757 175 785 c 128,-1,40
 175 813 175 813 181 822.5 c 128,-1,41
 187 832 187 832 198 837 c 0,42,43
 214 845 214 845 256 845 c 2,44,-1
 579 845 l 1,45,-1
 123 1422 l 2,46,47
 108 1442 108 1442 90.5 1450 c 128,-1,48
 73 1458 73 1458 37 1458 c 1,49,-1
 -18 1449 l 1,50,51
 -37 1449 -37 1449 -47 1462.5 c 128,-1,52
 -57 1476 -57 1476 -57 1493.5 c 128,-1,53
 -57 1511 -57 1511 -33.5 1532 c 128,-1,54
 -10 1553 -10 1553 37 1553 c 1,55,-1
 237 1539 l 1,56,-1
 505 1553 l 1,57,58
 555 1553 555 1553 581 1534 c 128,-1,59
 607 1515 607 1515 607 1490 c 0,60,61
 607 1450 607 1450 569 1450 c 1,62,-1
 493 1460 l 1,63,64
 458 1460 458 1460 443.5 1448.5 c 128,-1,65
 429 1437 429 1437 429 1426 c 128,-1,66
 429 1415 429 1415 431.5 1408 c 128,-1,67
 434 1401 434 1401 439 1392.5 c 128,-1,68
 444 1384 444 1384 452 1372 c 2,69,-1
 473 1342 l 1,70,-1
 840 896 l 1,71,-1
 1172 1294 l 2,72,73
 1258 1397 1258 1397 1258 1423 c 0,74,75
 1258 1461 1258 1461 1193 1461 c 1,76,-1
 1117 1450 l 1,77,78
 1100 1450 1100 1450 1089.5 1463 c 128,-1,79
 1079 1476 1079 1476 1079 1494 c 128,-1,80
 1079 1512 1079 1512 1103 1532.5 c 128,-1,81
 1127 1553 1127 1553 1170 1553 c 128,-1,82
 1213 1553 1213 1553 1241 1551 c 128,-1,83
 1269 1549 1269 1549 1292 1546 c 0,84,85
 1344 1539 1344 1539 1372 1539 c 0,86,87
 1426 1539 1426 1539 1462.5 1546 c 128,-1,88
 1499 1553 1499 1553 1534 1553 c 128,-1,89
 1569 1553 1569 1553 1594 1534 c 128,-1,90
 1619 1515 1619 1515 1619 1496 c 0,91,92
 1619 1449 1619 1449 1580 1449 c 0,93,94
 1569 1449 1569 1449 1556.5 1453.5 c 128,-1,95
 1544 1458 1544 1458 1514 1458 c 0,96,97
 1464 1458 1464 1458 1434 1422 c 2,98,-1
 952 845 l 1,99,-1
 1317 845 l 2,100,101
 1377 845 1377 845 1391 818 c 0,102,103
 1397 807 1397 807 1397 781 c 0,104,105
 1397 736 1397 736 1318 736 c 2,106,-1
 889 736 l 1,107,-1
 889 482 l 1,108,-1
 1317 482 l 2,109,110
 1378 482 1378 482 1391 456 c 0,111,112
 1397 445 1397 445 1397 418.5 c 128,-1,113
 1397 392 1397 392 1376.5 383 c 128,-1,114
 1356 374 1356 374 1318 374 c 2,115,-1
 889 374 l 1,116,-1
 889 329 l 2,117,118
 889 195 889 195 906 151.5 c 128,-1,119
 923 108 923 108 945 92 c 128,-1,120
 967 76 967 76 1002 76 c 1,0,-1
EndSplineSet
EndChar

StartChar: brokenbar
Encoding: 166 166 123
Width: 855
GlyphClass: 2
Flags: W
LayerCount: 2
Fore
SplineSet
486.5 896.5 m 128,-1,1
 462 874 462 874 435 874 c 128,-1,2
 408 874 408 874 394 879.5 c 128,-1,3
 380 885 380 885 368 894 c 1,4,5
 343 916 343 916 343 946 c 2,6,-1
 343 1659 l 2,7,8
 343 1692 343 1692 367 1711 c 128,-1,9
 391 1730 391 1730 426.5 1730 c 128,-1,10
 462 1730 462 1730 486.5 1707.5 c 128,-1,11
 511 1685 511 1685 511 1656 c 2,12,-1
 511 948 l 2,13,0
 511 919 511 919 486.5 896.5 c 128,-1,1
343 507 m 2,14,15
 343 537 343 537 362 553 c 0,16,17
 392 578 392 578 427 578 c 128,-1,18
 462 578 462 578 486.5 556 c 128,-1,19
 511 534 511 534 511 505 c 2,20,-1
 511 -214 l 2,21,22
 511 -243 511 -243 486.5 -265.5 c 128,-1,23
 462 -288 462 -288 426.5 -288 c 128,-1,24
 391 -288 391 -288 367 -269 c 128,-1,25
 343 -250 343 -250 343 -216 c 2,26,-1
 343 507 l 2,14,15
EndSplineSet
EndChar

StartChar: section
Encoding: 167 167 124
Width: 1119
GlyphClass: 2
Flags: W
LayerCount: 2
Fore
SplineSet
469 -288 m 0,0,1
 336 -288 336 -288 180 -208 c 1,2,-1
 180 38 l 1,3,4
 182 84 182 84 208 84 c 0,5,6
 240 84 240 84 249 42 c 0,7,8
 272 -66 272 -66 341.5 -128 c 128,-1,9
 411 -190 411 -190 520 -190 c 0,10,11
 617 -190 617 -190 683 -144 c 0,12,13
 753 -94 753 -94 753 -13 c 0,14,15
 753 117 753 117 507 234 c 0,16,17
 212 373 212 373 148 527 c 0,18,19
 125 581 125 581 125 635 c 128,-1,20
 125 689 125 689 141.5 731 c 128,-1,21
 158 773 158 773 186 810 c 0,22,23
 235 876 235 876 321 929 c 1,24,25
 155 1052 155 1052 155 1237 c 0,26,27
 155 1371 155 1371 276 1474 c 0,28,29
 409 1587 409 1587 622 1587 c 0,30,31
 782 1587 782 1587 908 1529 c 1,32,-1
 908 1281 l 1,33,34
 906 1235 906 1235 880 1235 c 0,35,36
 849 1235 849 1235 840 1278 c 0,37,38
 820 1378 820 1378 759.5 1433.5 c 128,-1,39
 699 1489 699 1489 599 1489 c 0,40,41
 508 1489 508 1489 438 1437 c 0,42,43
 365 1383 365 1383 365 1320 c 0,44,45
 365 1186 365 1186 610 1066 c 0,46,47
 832 957 832 957 914 863 c 0,48,49
 993 772 993 772 993 644 c 0,50,51
 993 525 993 525 870 420 c 0,52,53
 835 390 835 390 798 368 c 1,54,55
 961 247 961 247 961 84 c 0,56,57
 961 -68 961 -68 840 -173 c 0,58,59
 707 -288 707 -288 469 -288 c 0,0,1
404 876 m 1,60,61
 300 819 300 819 300 742 c 0,62,63
 300 612 300 612 647 457 c 0,64,65
 664 449 664 449 682 440 c 2,66,-1
 714 422 l 1,67,68
 819 477 819 477 819 558 c 0,69,70
 819 685 819 685 472 843 c 0,71,72
 435 859 435 859 404 876 c 1,60,61
EndSplineSet
EndChar

StartChar: dieresis
Encoding: 168 168 125
Width: 971
GlyphClass: 2
Flags: W
LayerCount: 2
Fore
SplineSet
796.5 1245.5 m 128,-1,1
 768 1232 768 1232 730.5 1232 c 128,-1,2
 693 1232 693 1232 664.5 1245.5 c 128,-1,3
 636 1259 636 1259 618 1281 c 0,4,5
 583 1324 583 1324 583 1371.5 c 128,-1,6
 583 1419 583 1419 594 1447.5 c 128,-1,7
 605 1476 605 1476 626 1497 c 0,8,9
 669 1542 669 1542 721.5 1542 c 128,-1,10
 774 1542 774 1542 802.5 1528.5 c 128,-1,11
 831 1515 831 1515 850 1493 c 0,12,13
 887 1448 887 1448 887 1402 c 128,-1,14
 887 1356 887 1356 876 1329 c 128,-1,15
 865 1302 865 1302 845 1280.5 c 128,-1,0
 825 1259 825 1259 796.5 1245.5 c 128,-1,1
312.5 1245.5 m 128,-1,17
 284 1232 284 1232 246.5 1232 c 128,-1,18
 209 1232 209 1232 180.5 1245.5 c 128,-1,19
 152 1259 152 1259 134 1281 c 0,20,21
 98 1323 98 1323 98 1371 c 128,-1,22
 98 1419 98 1419 109 1447.5 c 128,-1,23
 120 1476 120 1476 140 1497 c 0,24,25
 184 1542 184 1542 237 1542 c 128,-1,26
 290 1542 290 1542 318.5 1528.5 c 128,-1,27
 347 1515 347 1515 366 1493 c 0,28,29
 402 1450 402 1450 402 1403 c 128,-1,30
 402 1356 402 1356 391 1329 c 128,-1,31
 380 1302 380 1302 360.5 1280.5 c 128,-1,16
 341 1259 341 1259 312.5 1245.5 c 128,-1,17
EndSplineSet
EndChar

StartChar: copyright
Encoding: 169 169 126
Width: 1907
GlyphClass: 2
Flags: W
LayerCount: 2
Fore
SplineSet
117 778 m 0,0,1
 117 885 117 885 144 985.5 c 128,-1,2
 171 1086 171 1086 222 1175.5 c 128,-1,3
 273 1265 273 1265 347 1340.5 c 128,-1,4
 421 1416 421 1416 514 1471 c 0,5,6
 712 1587 712 1587 960 1587 c 0,7,8
 1300 1587 1300 1587 1541 1365 c 0,9,10
 1699 1220 1699 1220 1760 1008 c 0,11,12
 1790 901 1790 901 1790 782.5 c 128,-1,13
 1790 664 1790 664 1758.5 559 c 128,-1,14
 1727 454 1727 454 1671 365 c 128,-1,15
 1615 276 1615 276 1537.5 204 c 128,-1,16
 1460 132 1460 132 1368 82 c 0,17,18
 1174 -24 1174 -24 959 -24 c 0,19,20
 728 -24 728 -24 532 86 c 0,21,22
 342 193 342 193 230 376 c 1,23,24
 117 563 117 563 117 778 c 0,0,1
258 778 m 0,25,26
 258 683 258 683 283.5 596 c 128,-1,27
 309 509 309 509 355 433.5 c 128,-1,28
 401 358 401 358 466 296 c 128,-1,29
 531 234 531 234 611 190 c 0,30,31
 780 97 780 97 975 97 c 0,32,33
 1153 97 1153 97 1309 184 c 1,34,35
 1551 317 1551 317 1626 588 c 0,36,37
 1651 679 1651 679 1651 781.5 c 128,-1,38
 1651 884 1651 884 1623.5 974.5 c 128,-1,39
 1596 1065 1596 1065 1548 1141 c 128,-1,40
 1500 1217 1500 1217 1434 1277.5 c 128,-1,41
 1368 1338 1368 1338 1290 1380 c 0,42,43
 1130 1466 1130 1466 953 1466 c 0,44,45
 658 1466 658 1466 458 1267 c 0,46,47
 258 1069 258 1069 258 778 c 0,25,26
1342 959 m 0,48,49
 1342 931 1342 931 1317 931 c 0,50,51
 1295 931 1295 931 1259 974.5 c 128,-1,52
 1223 1018 1223 1018 1194 1044 c 128,-1,53
 1165 1070 1165 1070 1132 1086 c 0,54,55
 1068 1117 1068 1117 992.5 1117 c 128,-1,56
 917 1117 917 1117 872 1096 c 128,-1,57
 827 1075 827 1075 793 1038 c 0,58,59
 720 960 720 960 720 853 c 128,-1,60
 720 746 720 746 744 670 c 128,-1,61
 768 594 768 594 811 545 c 0,62,63
 895 449 895 449 1043 449 c 0,64,65
 1182 449 1182 449 1248 553 c 1,66,67
 1277 593 1277 593 1316 593 c 0,68,69
 1326 593 1326 593 1336 577.5 c 128,-1,70
 1346 562 1346 562 1346 552 c 0,71,72
 1346 515 1346 515 1298.5 455.5 c 128,-1,73
 1251 396 1251 396 1158.5 353 c 128,-1,74
 1066 310 1066 310 955.5 310 c 128,-1,75
 845 310 845 310 757 346.5 c 128,-1,76
 669 383 669 383 608 445 c 0,77,78
 480 574 480 574 480 767 c 0,79,80
 480 961 480 961 610 1096 c 0,81,82
 742 1234 742 1234 944 1234 c 0,83,84
 1035 1234 1035 1234 1121 1210 c 1,85,86
 1141 1210 1141 1210 1155.5 1203 c 128,-1,87
 1170 1196 1170 1196 1179 1196 c 0,88,89
 1193 1196 1193 1196 1217 1211 c 0,90,91
 1263 1239 1263 1239 1278 1239 c 0,92,93
 1309 1239 1309 1239 1309 1202 c 128,-1,94
 1309 1165 1309 1165 1309.5 1138 c 128,-1,95
 1310 1111 1310 1111 1312 1088 c 0,96,97
 1315 1049 1315 1049 1328.5 1011 c 128,-1,98
 1342 973 1342 973 1342 959 c 0,48,49
EndSplineSet
EndChar

StartChar: ordfeminine
Encoding: 170 170 127
Width: 1193
GlyphClass: 2
Flags: W
LayerCount: 2
Fore
SplineSet
725 835 m 1,0,1
 630 755 630 755 480.5 755 c 128,-1,2
 331 755 331 755 249.5 821.5 c 128,-1,3
 168 888 168 888 168 1000 c 0,4,5
 168 1124 168 1124 269 1188 c 0,6,7
 356 1244 356 1244 488.5 1244 c 128,-1,8
 621 1244 621 1244 723 1197 c 1,9,-1
 723 1285 l 2,10,11
 723 1494 723 1494 516 1494 c 0,12,13
 452 1494 452 1494 400.5 1466 c 128,-1,14
 349 1438 349 1438 297 1369 c 1,15,16
 266 1325 266 1325 254 1320.5 c 128,-1,17
 242 1316 242 1316 233.5 1316 c 128,-1,18
 225 1316 225 1316 217 1324.5 c 128,-1,19
 209 1333 209 1333 208 1343 c 1,20,21
 208 1356 208 1356 218 1387 c 0,22,23
 239 1447 239 1447 239 1552 c 0,24,25
 239 1578 239 1578 250 1585 c 128,-1,26
 261 1592 261 1592 270 1592 c 256,27,28
 279 1592 279 1592 291 1587 c 2,29,-1
 340 1566 l 2,30,31
 352 1561 352 1561 359 1561 c 0,32,33
 360 1561 360 1561 390 1569 c 0,34,35
 459 1587 459 1587 562 1587 c 128,-1,36
 665 1587 665 1587 740 1561.5 c 128,-1,37
 815 1536 815 1536 858 1492 c 1,38,39
 936 1415 936 1415 936 1266 c 2,40,-1
 936 1053 l 2,41,42
 936 916 936 916 949.5 882.5 c 128,-1,43
 963 849 963 849 978 841.5 c 128,-1,44
 993 834 993 834 1014 834 c 1,45,-1
 1066 843 l 1,46,47
 1080 843 1080 843 1090.5 832.5 c 128,-1,48
 1101 822 1101 822 1101 807.5 c 128,-1,49
 1101 793 1101 793 1083 777.5 c 128,-1,50
 1065 762 1065 762 1018 762 c 1,51,-1
 888 769 l 1,52,-1
 780 764 l 1,53,54
 733 764 733 764 725 835 c 1,0,1
723 1128 m 1,55,56
 638 1173 638 1173 548 1173 c 0,57,58
 429 1173 429 1173 386 1076 c 0,59,60
 374 1048 374 1048 374 1014 c 128,-1,61
 374 980 374 980 385.5 947.5 c 128,-1,62
 397 915 397 915 420 890 c 0,63,64
 468 838 468 838 558 838 c 128,-1,65
 648 838 648 838 723 905 c 1,66,-1
 723 1128 l 1,55,56
EndSplineSet
EndChar

StartChar: logicalnot
Encoding: 172 172 129
Width: 1285
GlyphClass: 2
Flags: W
LayerCount: 2
Fore
SplineSet
140 729 m 1,0,-1
 1145 729 l 1,1,-1
 1145 254 l 1,2,-1
 992 254 l 1,3,-1
 992 580 l 1,4,-1
 140 580 l 1,5,-1
 140 729 l 1,0,-1
EndSplineSet
EndChar

StartChar: registered
Encoding: 174 174 131
Width: 1373
GlyphClass: 2
Flags: W
LayerCount: 2
Fore
SplineSet
668 639 m 0,0,1
 571 639 571 639 466.5 682 c 128,-1,2
 362 725 362 725 285 799 c 0,3,4
 119 959 119 959 119 1184 c 0,5,6
 119 1406 119 1406 275 1564 c 0,7,8
 440 1730 440 1730 691 1730 c 0,9,10
 917 1730 917 1730 1080 1580 c 0,11,12
 1253 1422 1253 1422 1253 1183 c 0,13,14
 1253 952 1253 952 1082 794 c 0,15,16
 914 639 914 639 668 639 c 0,0,1
688 744 m 0,17,18
 779 744 779 744 857 775.5 c 128,-1,19
 935 807 935 807 994 864 c 0,20,21
 1125 991 1125 991 1125 1181 c 0,22,23
 1125 1370 1125 1370 989 1496 c 0,24,25
 858 1618 858 1618 680 1618 c 0,26,27
 492 1618 492 1618 364 1491 c 0,28,29
 236 1365 236 1365 236 1180 c 0,30,31
 236 998 236 998 368.5 871 c 128,-1,32
 501 744 501 744 688 744 c 0,17,18
454 1402 m 1,33,34
 434 1398 434 1398 425 1398 c 128,-1,35
 416 1398 416 1398 409 1405 c 128,-1,36
 402 1412 402 1412 402 1420 c 0,37,38
 402 1449 402 1449 445 1449 c 1,39,-1
 574 1442 l 1,40,-1
 722 1451 l 1,41,42
 818 1451 818 1451 877 1408 c 0,43,44
 932 1369 932 1369 932 1319.5 c 128,-1,45
 932 1270 932 1270 916.5 1241.5 c 128,-1,46
 901 1213 901 1213 876 1193 c 0,47,48
 826 1153 826 1153 754 1149 c 1,49,50
 823 1110 823 1110 874 1027 c 0,51,52
 897 990 897 990 907 978 c 128,-1,53
 917 966 917 966 927 966 c 1,54,-1
 956 971 l 1,55,56
 975 971 975 971 975 954 c 128,-1,57
 975 937 975 937 957 926 c 128,-1,58
 939 915 939 915 897 915 c 128,-1,59
 855 915 855 915 802.5 954.5 c 128,-1,60
 750 994 750 994 719 1044 c 128,-1,61
 688 1094 688 1094 666.5 1114 c 128,-1,62
 645 1134 645 1134 620 1145 c 1,63,-1
 620 1066 l 2,64,65
 620 967 620 967 648 967 c 1,66,-1
 676 971 l 1,67,68
 699 971 699 971 699 950 c 0,69,70
 699 920 699 920 658 920 c 1,71,-1
 551 927 l 1,72,-1
 445 920 l 1,73,74
 402 920 402 920 402 950 c 0,75,76
 402 971 402 971 425 971 c 1,77,-1
 454 967 l 1,78,79
 483 967 483 967 483 1066 c 2,80,-1
 483 1305 l 2,81,82
 483 1402 483 1402 454 1402 c 1,33,34
620 1219 m 1,83,84
 663 1202 663 1202 694.5 1202 c 128,-1,85
 726 1202 726 1202 742 1207 c 128,-1,86
 758 1212 758 1212 770 1222 c 0,87,88
 797 1246 797 1246 797 1279 c 128,-1,89
 797 1312 797 1312 785.5 1329 c 128,-1,90
 774 1346 774 1346 756 1357 c 0,91,92
 722 1379 722 1379 671 1379 c 128,-1,93
 620 1379 620 1379 620 1338 c 2,94,-1
 620 1219 l 1,83,84
EndSplineSet
EndChar

StartChar: macron
Encoding: 175 175 132
Width: 876
GlyphClass: 2
Flags: W
LayerCount: 2
Fore
SplineSet
98 1455 m 1,0,-1
 790 1455 l 1,1,-1
 790 1316 l 1,2,-1
 98 1316 l 1,3,-1
 98 1455 l 1,0,-1
EndSplineSet
EndChar

StartChar: degree
Encoding: 176 176 133
Width: 855
GlyphClass: 2
Flags: W
LayerCount: 2
Fore
SplineSet
428 1021 m 0,0,1
 364 1021 364 1021 311.5 1041.5 c 128,-1,2
 259 1062 259 1062 222 1099 c 0,3,4
 143 1176 143 1176 143 1304 c 0,5,6
 143 1424 143 1424 218 1503 c 0,7,8
 298 1587 298 1587 436 1587 c 0,9,10
 559 1587 559 1587 635.5 1510.5 c 128,-1,11
 712 1434 712 1434 712 1304 c 0,12,13
 712 1177 712 1177 632 1099 c 0,14,15
 553 1021 553 1021 428 1021 c 0,0,1
541 1180.5 m 128,-1,17
 581 1224 581 1224 581 1304 c 0,18,19
 581 1418 581 1418 492 1458 c 0,20,21
 463 1470 463 1470 427.5 1470 c 128,-1,22
 392 1470 392 1470 363.5 1457.5 c 128,-1,23
 335 1445 335 1445 316 1422 c 0,24,25
 277 1376 277 1376 277 1322 c 128,-1,26
 277 1268 277 1268 287.5 1237.5 c 128,-1,27
 298 1207 298 1207 318 1184 c 0,28,29
 359 1137 359 1137 430 1137 c 128,-1,16
 501 1137 501 1137 541 1180.5 c 128,-1,17
EndSplineSet
EndChar

StartChar: plusminus
Encoding: 177 177 134
Width: 1285
GlyphClass: 2
Flags: W
LayerCount: 2
Fore
SplineSet
566 880 m 1,0,-1
 140 880 l 1,1,-1
 140 1029 l 1,2,-1
 566 1029 l 1,3,-1
 566 1468 l 1,4,-1
 718 1468 l 1,5,-1
 718 1029 l 1,6,-1
 1145 1029 l 1,7,-1
 1145 880 l 1,8,-1
 718 880 l 1,9,-1
 718 463 l 1,10,-1
 566 463 l 1,11,-1
 566 880 l 1,0,-1
140 322 m 1,12,-1
 1145 322 l 1,13,-1
 1145 173 l 1,14,-1
 140 173 l 1,15,-1
 140 322 l 1,12,-1
EndSplineSet
EndChar

StartChar: twosuperior
Encoding: 178 178 135
Width: 860
GlyphClass: 2
Flags: W
LayerCount: 2
Fore
SplineSet
139 639 m 2,0,1
 104 639 104 639 104 674.5 c 128,-1,2
 104 710 104 710 114 749.5 c 128,-1,3
 124 789 124 789 153 838 c 0,4,5
 216 944 216 944 371 1080 c 0,6,7
 476 1173 476 1173 508 1217 c 0,8,9
 559 1288 559 1288 559 1346.5 c 128,-1,10
 559 1405 559 1405 520 1446.5 c 128,-1,11
 481 1488 481 1488 407 1488 c 0,12,13
 313 1488 313 1488 240 1390 c 0,14,15
 215 1358 215 1358 204 1326 c 0,16,17
 183 1268 183 1268 151 1268 c 0,18,19
 140 1268 140 1268 125.5 1277.5 c 128,-1,20
 111 1287 111 1287 111 1313 c 2,21,-1
 111 1481 l 1,22,23
 199 1554 199 1554 356 1580 c 0,24,25
 401 1587 401 1587 460 1587 c 128,-1,26
 519 1587 519 1587 580 1569.5 c 128,-1,27
 641 1552 641 1552 682 1521 c 0,28,29
 766 1459 766 1459 766 1359 c 0,30,31
 766 1255 766 1255 620 1129 c 0,32,33
 573 1088 573 1088 496 1028 c 1,34,35
 346 914 346 914 282 802 c 1,36,-1
 458 802 l 2,37,38
 563 802 563 802 601 812 c 0,39,40
 667 828 667 828 711 874 c 1,41,42
 739 900 739 900 757 900 c 0,43,44
 765 900 765 900 776 893.5 c 128,-1,45
 787 887 787 887 787 876 c 128,-1,46
 787 865 787 865 778 840 c 2,47,-1
 733 714 l 2,48,49
 720 676 720 676 711 639 c 1,50,-1
 139 639 l 2,0,1
EndSplineSet
EndChar

StartChar: threesuperior
Encoding: 179 179 136
Width: 860
GlyphClass: 2
Flags: W
LayerCount: 2
Fore
SplineSet
135 708 m 1,0,-1
 135 876 l 2,1,2
 135 903 135 903 149.5 912.5 c 128,-1,3
 164 922 164 922 175.5 922 c 128,-1,4
 187 922 187 922 201.5 910 c 128,-1,5
 216 898 216 898 223 875 c 0,6,7
 244 807 244 807 299.5 767 c 128,-1,8
 355 727 355 727 412 727 c 128,-1,9
 469 727 469 727 500 740 c 128,-1,10
 531 753 531 753 552 775 c 0,11,12
 594 819 594 819 594 873.5 c 128,-1,13
 594 928 594 928 581 969 c 128,-1,14
 568 1010 568 1010 544 1041 c 0,15,16
 490 1109 490 1109 406 1109 c 1,17,-1
 331 1095 l 1,18,19
 298 1095 298 1095 298 1125 c 0,20,21
 298 1152 298 1152 386 1187 c 1,22,23
 497 1235 497 1235 531 1315 c 0,24,25
 542 1341 542 1341 542 1381.5 c 128,-1,26
 542 1422 542 1422 507 1453.5 c 128,-1,27
 472 1485 472 1485 410 1485 c 128,-1,28
 348 1485 348 1485 304.5 1444 c 128,-1,29
 261 1403 261 1403 238 1335 c 0,30,31
 231 1315 231 1315 216 1301.5 c 128,-1,32
 201 1288 201 1288 190 1288 c 256,33,34
 179 1288 179 1288 164.5 1297.5 c 128,-1,35
 150 1307 150 1307 150 1334 c 2,36,-1
 150 1502 l 1,37,38
 276 1587 276 1587 449 1587 c 0,39,40
 576 1587 576 1587 660 1534 c 0,41,42
 747 1479 747 1479 747 1386 c 0,43,44
 747 1295 747 1295 636 1218 c 0,45,46
 603 1195 603 1195 566 1178 c 1,47,48
 719 1144 719 1144 774 1020 c 0,49,50
 793 979 793 979 793 920 c 128,-1,51
 793 861 793 861 766 804.5 c 128,-1,52
 739 748 739 748 689 708 c 0,53,54
 584 624 584 624 423.5 624 c 128,-1,55
 263 624 263 624 135 708 c 1,0,-1
EndSplineSet
EndChar

StartChar: acute
Encoding: 180 180 137
Width: 644
GlyphClass: 2
Flags: W
LayerCount: 2
Fore
SplineSet
276 1220 m 2,0,1
 224 1190 224 1190 207 1211 c 0,2,3
 193 1229 193 1229 199.5 1243 c 128,-1,4
 206 1257 206 1257 214 1268 c 2,5,-1
 367 1476 l 2,6,7
 423 1552 423 1552 455 1572 c 0,8,9
 499 1600 499 1600 542.5 1601.5 c 128,-1,10
 586 1603 586 1603 614 1580.5 c 128,-1,11
 642 1558 642 1558 643.5 1529.5 c 128,-1,12
 645 1501 645 1501 640.5 1482 c 128,-1,13
 636 1463 636 1463 622 1443 c 0,14,15
 593 1402 593 1402 511 1355 c 2,16,-1
 276 1220 l 2,0,1
EndSplineSet
EndChar

StartChar: mu
Encoding: 181 181 138
AltUni2: 0003bc.ffffffff.0
Width: 1532
GlyphClass: 2
Flags: W
LayerCount: 2
Fore
SplineSet
516 -317 m 1,0,1
 580 -372 580 -372 580 -433 c 0,2,3
 580 -472 580 -472 556 -492 c 0,4,5
 515 -526 515 -526 473 -526 c 128,-1,6
 431 -526 431 -526 394 -506.5 c 128,-1,7
 357 -487 357 -487 328 -434 c 0,8,9
 263 -317 263 -317 263 -39 c 2,10,-1
 263 676 l 2,11,12
 263 849 263 849 249.5 889.5 c 128,-1,13
 236 930 236 930 215.5 943 c 128,-1,14
 195 956 195 956 159 956 c 1,15,-1
 131 952 l 1,16,17
 119 949 119 949 102.5 949 c 128,-1,18
 86 949 86 949 75.5 957.5 c 128,-1,19
 65 966 65 966 65 978 c 0,20,21
 65 1032 65 1032 164 1032 c 0,22,23
 180 1032 180 1032 202 1030.5 c 128,-1,24
 224 1029 224 1029 246 1027.5 c 128,-1,25
 268 1026 268 1026 287.5 1024.5 c 128,-1,26
 307 1023 307 1023 318 1023 c 2,27,-1
 429 1029 l 1,28,29
 471 1029 471 1029 483 1007 c 0,30,31
 501 971 501 971 501 877 c 2,32,-1
 501 376 l 2,33,34
 501 257 501 257 580 178 c 0,35,36
 661 97 661 97 775 97 c 128,-1,37
 889 97 889 97 982 168 c 1,38,-1
 982 675 l 2,39,40
 982 849 982 849 968.5 890 c 128,-1,41
 955 931 955 931 934.5 943.5 c 128,-1,42
 914 956 914 956 878 956 c 1,43,-1
 850 952 l 1,44,45
 838 949 838 949 821.5 949 c 128,-1,46
 805 949 805 949 795 957.5 c 128,-1,47
 785 966 785 966 785 978 c 0,48,49
 785 1032 785 1032 883 1032 c 0,50,51
 899 1032 899 1032 921 1030 c 1,52,-1
 966 1028 l 1,53,54
 988 1026 988 1026 1007.5 1024.5 c 128,-1,55
 1027 1023 1027 1023 1038 1023 c 2,56,-1
 1148 1029 l 1,57,58
 1190 1029 1190 1029 1201 1006 c 1,59,60
 1220 970 1220 970 1220 876 c 2,61,-1
 1220 354 l 2,62,63
 1220 178 1220 178 1233 138.5 c 128,-1,64
 1246 99 1246 99 1267 86 c 128,-1,65
 1288 73 1288 73 1324 73 c 1,66,-1
 1352 78 l 2,67,68
 1364 81 1364 81 1380.5 81 c 128,-1,69
 1397 81 1397 81 1407.5 72 c 128,-1,70
 1418 63 1418 63 1418 47 c 128,-1,71
 1418 31 1418 31 1397.5 14 c 128,-1,72
 1377 -3 1377 -3 1339.5 -3 c 128,-1,73
 1302 -3 1302 -3 1280 -1.5 c 128,-1,74
 1258 0 1258 0 1236 1.5 c 128,-1,75
 1214 3 1214 3 1195 4.5 c 128,-1,76
 1176 6 1176 6 1164 6 c 2,77,-1
 1054 0 l 1,78,79
 1005 0 1005 0 992 59 c 1,80,81
 873 -24 873 -24 722.5 -24 c 128,-1,82
 572 -24 572 -24 456 56 c 1,83,84
 419 -62 419 -62 419 -164 c 0,85,86
 419 -216 419 -216 439.5 -243 c 128,-1,87
 460 -270 460 -270 478 -285 c 2,88,-1
 517 -317 l 1,89,-1
 516 -317 l 1,0,1
EndSplineSet
EndChar

StartChar: paragraph
Encoding: 182 182 139
Width: 1537
GlyphClass: 2
Flags: W
LayerCount: 2
Fore
SplineSet
483 -3 m 1,0,1
 384 -3 384 -3 384 50 c 0,2,3
 384 62 384 62 394 71.5 c 128,-1,4
 404 81 404 81 420 81 c 1,5,-1
 498 72 l 1,6,7
 565 72 565 72 586 120 c 1,8,9
 609 176 609 176 609 353 c 2,10,-1
 609 787 l 1,11,12
 540 772 540 772 461.5 772 c 128,-1,13
 383 772 383 772 295.5 799.5 c 128,-1,14
 208 827 208 827 143 880 c 0,15,16
 3 993 3 993 3 1187 c 0,17,18
 3 1346 3 1346 118 1454 c 1,19,20
 251 1577 251 1577 486 1577 c 0,21,22
 609 1577 609 1577 637 1571 c 128,-1,23
 665 1565 665 1565 691 1563 c 128,-1,24
 717 1561 717 1561 747 1560 c 0,25,26
 797 1557 797 1557 840 1557 c 1,27,-1
 840 0 l 1,28,29
 822 0 822 0 792 1 c 2,30,-1
 729 3 l 2,31,32
 697 4 697 4 669 5 c 128,-1,33
 641 6 641 6 628 6 c 2,34,-1
 483 -3 l 1,0,1
1452 1488 m 1,35,-1
 1387 1494 l 1,36,37
 1293 1494 1293 1494 1280 1352 c 0,38,39
 1275 1305 1275 1305 1275 1244 c 2,40,-1
 1275 0 l 1,41,-1
 1045 0 l 1,42,-1
 1045 1557 l 1,43,44
 1079 1557 1079 1557 1124 1560 c 2,45,-1
 1310 1570 l 2,46,47
 1357 1572 1357 1572 1390.5 1572 c 128,-1,48
 1424 1572 1424 1572 1442 1567 c 128,-1,49
 1460 1562 1460 1562 1470 1554 c 1,50,51
 1490 1541 1490 1541 1490 1520 c 0,52,53
 1490 1488 1490 1488 1452 1488 c 1,35,-1
EndSplineSet
EndChar

StartChar: cedilla
Encoding: 184 184 141
Width: 670
GlyphClass: 2
Flags: W
LayerCount: 2
Fore
SplineSet
373 29 m 1,0,-1
 326 -157 l 1,1,-1
 342 -157 l 2,2,3
 497 -157 497 -157 562 -252 c 0,4,5
 582 -282 582 -282 582 -319.5 c 128,-1,6
 582 -357 582 -357 559 -394.5 c 128,-1,7
 536 -432 536 -432 498 -461 c 0,8,9
 411 -526 411 -526 310 -526 c 0,10,11
 176 -526 176 -526 104 -466 c 0,12,13
 78 -445 78 -445 78 -419.5 c 128,-1,14
 78 -394 78 -394 93 -375.5 c 128,-1,15
 108 -357 108 -357 132 -357 c 0,16,17
 175 -357 175 -357 212 -392 c 0,18,19
 269 -448 269 -448 356 -448 c 0,20,21
 392 -448 392 -448 409 -424 c 0,22,23
 437 -386 437 -386 437 -341 c 128,-1,24
 437 -296 437 -296 403.5 -266.5 c 128,-1,25
 370 -237 370 -237 325 -237 c 0,26,27
 254 -237 254 -237 205 -256 c 1,28,-1
 268 46 l 1,29,-1
 373 29 l 1,0,-1
EndSplineSet
EndChar

StartChar: onesuperior
Encoding: 185 185 142
Width: 689
GlyphClass: 2
Flags: W
LayerCount: 2
Fore
SplineSet
355 649 m 1,0,-1
 160 639 l 1,1,2
 128 639 128 639 111.5 656.5 c 128,-1,3
 95 674 95 674 95 688 c 128,-1,4
 95 702 95 702 103.5 716.5 c 128,-1,5
 112 731 112 731 129 731 c 1,6,7
 129 731 129 731 194 724 c 1,8,9
 254 724 254 724 254 875 c 2,10,-1
 254 1211 l 2,11,12
 254 1358 254 1358 201 1358 c 1,13,-1
 107 1338 l 1,14,15
 96 1338 96 1338 87.5 1352 c 128,-1,16
 79 1366 79 1366 79 1377.5 c 128,-1,17
 79 1389 79 1389 94 1405 c 128,-1,18
 109 1421 109 1421 161.5 1437.5 c 128,-1,19
 214 1454 214 1454 259 1481 c 128,-1,20
 304 1508 304 1508 336 1532 c 2,21,-1
 390 1574 l 2,22,23
 411 1591 411 1591 426 1591 c 0,24,25
 466 1591 466 1591 466 1567 c 1,26,-1
 458 1390 l 1,27,-1
 458 875 l 2,28,29
 458 724 458 724 519 724 c 1,30,-1
 574 731 l 1,31,32
 591 731 591 731 599.5 716.5 c 128,-1,33
 608 702 608 702 608 688 c 128,-1,34
 608 674 608 674 591.5 656.5 c 128,-1,35
 575 639 575 639 542 639 c 1,36,-1
 355 649 l 1,0,-1
EndSplineSet
EndChar

StartChar: ordmasculine
Encoding: 186 186 143
Width: 1193
GlyphClass: 2
Flags: W
LayerCount: 2
Fore
SplineSet
592 745 m 0,0,1
 475 745 475 745 389 784 c 128,-1,2
 303 823 303 823 250 884 c 0,3,4
 151 998 151 998 151 1165 c 0,5,6
 151 1338 151 1338 280 1462 c 0,7,8
 411 1587 411 1587 598 1587 c 0,9,10
 812 1587 812 1587 934 1458 c 0,11,12
 1042 1344 1042 1344 1042 1180 c 0,13,14
 1042 990 1042 990 929 871 c 0,15,16
 809 745 809 745 592 745 c 0,0,1
545 869.5 m 128,-1,18
 592 840 592 840 634.5 840 c 128,-1,19
 677 840 677 840 707 855 c 128,-1,20
 737 870 737 870 759 900 c 0,21,22
 806 966 806 966 806 1080.5 c 128,-1,23
 806 1195 806 1195 785 1271 c 128,-1,24
 764 1347 764 1347 730 1396 c 0,25,26
 662 1491 662 1491 558 1491 c 0,27,28
 430 1491 430 1491 392 1336 c 0,29,30
 381 1289 381 1289 381 1218 c 128,-1,31
 381 1147 381 1147 403 1075 c 128,-1,32
 425 1003 425 1003 461.5 951 c 128,-1,17
 498 899 498 899 545 869.5 c 128,-1,18
EndSplineSet
EndChar

StartChar: onequarter
Encoding: 188 188 145
Width: 2043
GlyphClass: 2
Flags: W
LayerCount: 2
Fore
SplineSet
397.5 -8 m 128,-1,1
 381 8 381 8 381 31 c 128,-1,2
 381 54 381 54 398.5 81.5 c 128,-1,3
 416 109 416 109 454 158 c 2,4,-1
 1496 1495 l 1,5,6
 1556 1574 1556 1574 1584 1584 c 0,7,8
 1594 1587 1594 1587 1613 1587 c 128,-1,9
 1632 1587 1632 1587 1650.5 1571.5 c 128,-1,10
 1669 1556 1669 1556 1669 1535 c 0,11,12
 1669 1499 1669 1499 1618 1433 c 2,13,-1
 539 47 l 1,14,15
 485 -24 485 -24 449.5 -24 c 128,-1,0
 414 -24 414 -24 397.5 -8 c 128,-1,1
1482 86 m 1,16,17
 1547 86 1547 86 1547 216 c 2,18,-1
 1547 258 l 1,19,-1
 1171 258 l 2,20,21
 1142 258 1142 258 1131 272 c 1,22,23
 1114 291 1114 291 1114 304 c 0,24,25
 1114 330 1114 330 1145 364 c 1,26,-1
 1633 924 l 2,27,28
 1669 965 1669 965 1692 967 c 0,29,30
 1746 970 1746 970 1746 915 c 2,31,-1
 1746 377 l 1,32,-1
 1802 377 l 2,33,34
 1868 377 1868 377 1935 422 c 0,35,36
 1941 426 1941 426 1948 426 c 0,37,38
 1969 426 1969 426 1969 408 c 128,-1,39
 1969 390 1969 390 1928 285 c 1,40,41
 1916 258 1916 258 1883 258 c 2,42,-1
 1746 258 l 1,43,-1
 1746 216 l 2,44,45
 1746 145 1746 145 1759.5 115.5 c 128,-1,46
 1773 86 1773 86 1807 86 c 1,47,-1
 1861 93 l 1,48,49
 1878 93 1878 93 1887 78 c 128,-1,50
 1896 63 1896 63 1896 49.5 c 128,-1,51
 1896 36 1896 36 1879.5 18 c 128,-1,52
 1863 0 1863 0 1831 0 c 1,53,-1
 1643 10 l 1,54,-1
 1458 0 l 1,55,56
 1426 0 1426 0 1409.5 18 c 128,-1,57
 1393 36 1393 36 1393 49.5 c 128,-1,58
 1393 63 1393 63 1401.5 78 c 128,-1,59
 1410 93 1410 93 1427 93 c 1,60,-1
 1482 86 l 1,16,17
1547 377 m 1,61,-1
 1547 673 l 1,62,-1
 1289 377 l 1,63,-1
 1547 377 l 1,61,-1
377 649 m 1,64,-1
 182 639 l 1,65,66
 150 639 150 639 133.5 656.5 c 128,-1,67
 117 674 117 674 117 688 c 128,-1,68
 117 702 117 702 125.5 716.5 c 128,-1,69
 134 731 134 731 151 731 c 1,70,-1
 216 724 l 1,71,72
 276 724 276 724 276 875 c 2,73,-1
 276 1211 l 2,74,75
 276 1358 276 1358 223 1358 c 1,76,-1
 129 1338 l 1,77,78
 118 1338 118 1338 109.5 1352 c 128,-1,79
 101 1366 101 1366 101 1377.5 c 128,-1,80
 101 1389 101 1389 116 1405 c 128,-1,81
 131 1421 131 1421 183.5 1437.5 c 128,-1,82
 236 1454 236 1454 281 1481 c 128,-1,83
 326 1508 326 1508 358 1532 c 2,84,-1
 412 1574 l 2,85,86
 433 1591 433 1591 448 1591 c 0,87,88
 488 1591 488 1591 488 1567 c 1,89,-1
 480 1390 l 1,90,-1
 480 875 l 2,91,92
 480 724 480 724 541 724 c 1,93,-1
 596 731 l 1,94,95
 613 731 613 731 621.5 716.5 c 128,-1,96
 630 702 630 702 630 688 c 128,-1,97
 630 674 630 674 613.5 656.5 c 128,-1,98
 597 639 597 639 564 639 c 1,99,-1
 377 649 l 1,64,-1
EndSplineSet
EndChar

StartChar: onehalf
Encoding: 189 189 146
Width: 2059
GlyphClass: 2
Flags: W
LayerCount: 2
Fore
SplineSet
398 -8 m 128,-1,1
 382 8 382 8 382 31 c 128,-1,2
 382 54 382 54 399 81.5 c 128,-1,3
 416 109 416 109 454 158 c 2,4,-1
 1496 1495 l 1,5,6
 1556 1574 1556 1574 1584 1584 c 0,7,8
 1595 1587 1595 1587 1614 1587 c 128,-1,9
 1633 1587 1633 1587 1651 1571.5 c 128,-1,10
 1669 1556 1669 1556 1669 1535 c 0,11,12
 1669 1499 1669 1499 1618 1433 c 2,13,-1
 539 47 l 1,14,15
 485 -24 485 -24 449.5 -24 c 128,-1,0
 414 -24 414 -24 398 -8 c 128,-1,1
377 649 m 1,16,-1
 182 639 l 1,17,18
 150 639 150 639 133.5 656.5 c 128,-1,19
 117 674 117 674 117 688 c 128,-1,20
 117 702 117 702 125.5 716.5 c 128,-1,21
 134 731 134 731 151 731 c 1,22,-1
 216 724 l 1,23,24
 276 724 276 724 276 875 c 2,25,-1
 276 1211 l 2,26,27
 276 1358 276 1358 223 1358 c 1,28,-1
 129 1338 l 1,29,30
 118 1338 118 1338 109.5 1352 c 128,-1,31
 101 1366 101 1366 101 1377.5 c 128,-1,32
 101 1389 101 1389 116 1405 c 128,-1,33
 131 1421 131 1421 183.5 1437.5 c 128,-1,34
 236 1454 236 1454 281 1481 c 128,-1,35
 326 1508 326 1508 358 1532 c 2,36,-1
 412 1574 l 2,37,38
 433 1591 433 1591 448 1591 c 0,39,40
 488 1591 488 1591 488 1567 c 1,41,-1
 480 1390 l 1,42,-1
 480 875 l 2,43,44
 480 724 480 724 541 724 c 1,45,-1
 596 731 l 1,46,47
 613 731 613 731 621.5 716.5 c 128,-1,48
 630 702 630 702 630 688 c 128,-1,49
 630 674 630 674 613.5 656.5 c 128,-1,50
 597 639 597 639 564 639 c 1,51,-1
 377 649 l 1,16,-1
1346 -2 m 2,52,53
 1311 -2 1311 -2 1311 33.5 c 128,-1,54
 1311 69 1311 69 1321 108.5 c 128,-1,55
 1331 148 1331 148 1360 196 c 0,56,57
 1423 303 1423 303 1578 439 c 0,58,59
 1683 532 1683 532 1715 576 c 0,60,61
 1766 647 1766 647 1766 705.5 c 128,-1,62
 1766 764 1766 764 1727 805.5 c 128,-1,63
 1688 847 1688 847 1614 847 c 0,64,65
 1520 847 1520 847 1446 750 c 0,66,67
 1422 717 1422 717 1410 685 c 0,68,69
 1390 627 1390 627 1358 627 c 0,70,71
 1347 627 1347 627 1332.5 636.5 c 128,-1,72
 1318 646 1318 646 1318 672 c 2,73,-1
 1318 840 l 1,74,75
 1406 913 1406 913 1562 938 c 0,76,77
 1608 946 1608 946 1667 946 c 128,-1,78
 1726 946 1726 946 1787 928.5 c 128,-1,79
 1848 911 1848 911 1890 880 c 0,80,81
 1973 818 1973 818 1973 718 c 0,82,83
 1973 614 1973 614 1828 488 c 0,84,85
 1780 447 1780 447 1702 388 c 0,86,87
 1553 273 1553 273 1489 161 c 1,88,-1
 1665 161 l 2,89,90
 1770 161 1770 161 1808 170 c 0,91,92
 1874 187 1874 187 1918 233 c 1,93,94
 1946 259 1946 259 1964 259 c 0,95,96
 1972 259 1972 259 1983 252.5 c 128,-1,97
 1994 246 1994 246 1994 235 c 128,-1,98
 1994 224 1994 224 1986 200 c 2,99,-1
 1940 72 l 2,100,101
 1927 35 1927 35 1918 -2 c 1,102,-1
 1346 -2 l 2,52,53
EndSplineSet
EndChar

StartChar: threequarters
Encoding: 190 190 147
Width: 2035
GlyphClass: 2
Flags: W
LayerCount: 2
Fore
SplineSet
442.5 -8 m 128,-1,1
 426 8 426 8 426 31 c 0,2,3
 426 67 426 67 498 158 c 2,4,-1
 1540 1495 l 1,5,6
 1600 1574 1600 1574 1628 1584 c 0,7,8
 1639 1587 1639 1587 1658 1587 c 128,-1,9
 1677 1587 1677 1587 1695.5 1571.5 c 128,-1,10
 1714 1556 1714 1556 1714 1535 c 0,11,12
 1714 1499 1714 1499 1663 1433 c 2,13,-1
 584 47 l 1,14,15
 530 -24 530 -24 494.5 -24 c 128,-1,0
 459 -24 459 -24 442.5 -8 c 128,-1,1
1474 86 m 1,16,17
 1539 86 1539 86 1539 216 c 2,18,-1
 1539 258 l 1,19,-1
 1163 258 l 2,20,21
 1134 258 1134 258 1123 272 c 1,22,23
 1106 291 1106 291 1106 304 c 0,24,25
 1106 330 1106 330 1137 364 c 1,26,-1
 1625 924 l 2,27,28
 1661 965 1661 965 1684 967 c 0,29,30
 1738 970 1738 970 1738 915 c 2,31,-1
 1738 377 l 1,32,-1
 1794 377 l 2,33,34
 1860 377 1860 377 1927 422 c 0,35,36
 1933 426 1933 426 1940 426 c 0,37,38
 1961 426 1961 426 1961 408 c 128,-1,39
 1961 390 1961 390 1920 285 c 1,40,41
 1908 258 1908 258 1875 258 c 2,42,-1
 1738 258 l 1,43,-1
 1738 216 l 2,44,45
 1738 145 1738 145 1751.5 115.5 c 128,-1,46
 1765 86 1765 86 1799 86 c 1,47,-1
 1853 93 l 1,48,49
 1870 93 1870 93 1879 78 c 128,-1,50
 1888 63 1888 63 1888 49.5 c 128,-1,51
 1888 36 1888 36 1871.5 18 c 128,-1,52
 1855 0 1855 0 1823 0 c 1,53,-1
 1635 10 l 1,54,-1
 1450 0 l 1,55,56
 1418 0 1418 0 1401.5 18 c 128,-1,57
 1385 36 1385 36 1385 49.5 c 128,-1,58
 1385 63 1385 63 1393.5 78 c 128,-1,59
 1402 93 1402 93 1419 93 c 1,60,-1
 1474 86 l 1,16,17
1539 377 m 1,61,-1
 1539 673 l 1,62,-1
 1281 377 l 1,63,-1
 1539 377 l 1,61,-1
135 708 m 1,64,-1
 135 876 l 2,65,66
 135 903 135 903 149.5 912.5 c 128,-1,67
 164 922 164 922 175.5 922 c 128,-1,68
 187 922 187 922 201.5 910 c 128,-1,69
 216 898 216 898 223 875 c 0,70,71
 244 807 244 807 299.5 767 c 128,-1,72
 355 727 355 727 412 727 c 128,-1,73
 469 727 469 727 500 740 c 128,-1,74
 531 753 531 753 552 775 c 0,75,76
 594 819 594 819 594 873.5 c 128,-1,77
 594 928 594 928 581 969 c 128,-1,78
 568 1010 568 1010 544 1041 c 0,79,80
 490 1109 490 1109 406 1109 c 1,81,-1
 331 1095 l 1,82,83
 298 1095 298 1095 298 1125 c 0,84,85
 298 1152 298 1152 386 1187 c 1,86,87
 497 1235 497 1235 531 1315 c 0,88,89
 542 1341 542 1341 542 1381.5 c 128,-1,90
 542 1422 542 1422 507 1453.5 c 128,-1,91
 472 1485 472 1485 410 1485 c 128,-1,92
 348 1485 348 1485 304.5 1444 c 128,-1,93
 261 1403 261 1403 238 1335 c 0,94,95
 231 1315 231 1315 216 1301.5 c 128,-1,96
 201 1288 201 1288 190 1288 c 256,97,98
 179 1288 179 1288 164.5 1297.5 c 128,-1,99
 150 1307 150 1307 150 1334 c 2,100,-1
 150 1502 l 1,101,102
 276 1587 276 1587 449 1587 c 0,103,104
 576 1587 576 1587 660 1534 c 0,105,106
 747 1479 747 1479 747 1386 c 0,107,108
 747 1295 747 1295 636 1218 c 0,109,110
 603 1195 603 1195 566 1178 c 1,111,112
 719 1144 719 1144 774 1020 c 0,113,114
 793 979 793 979 793 920 c 128,-1,115
 793 861 793 861 766 804.5 c 128,-1,116
 739 748 739 748 689 708 c 0,117,118
 584 624 584 624 423.5 624 c 128,-1,119
 263 624 263 624 135 708 c 1,64,-1
EndSplineSet
EndChar

StartChar: AE
Encoding: 198 198 155
Width: 2079
GlyphClass: 2
Flags: W
LayerCount: 2
Fore
SplineSet
219 0 m 1,0,-1
 11 15 l 1,1,2
 -37 15 -37 15 -83 7.5 c 128,-1,3
 -129 0 -129 0 -166 0 c 128,-1,4
 -203 0 -203 0 -221.5 19 c 128,-1,5
 -240 38 -240 38 -240 55.5 c 128,-1,6
 -240 73 -240 73 -229 88.5 c 128,-1,7
 -218 104 -218 104 -195 104 c 1,8,-1
 -148 98 l 1,9,10
 -95 98 -95 98 -48 132 c 0,11,12
 46 201 46 201 188 401 c 2,13,-1
 868 1362 l 2,14,15
 901 1409 901 1409 901 1431 c 128,-1,16
 901 1453 901 1453 877 1457 c 128,-1,17
 853 1461 853 1461 822 1461 c 1,18,-1
 772 1455 l 1,19,20
 754 1455 754 1455 744 1468 c 128,-1,21
 734 1481 734 1481 734 1493.5 c 128,-1,22
 734 1506 734 1506 738.5 1517 c 128,-1,23
 743 1528 743 1528 754 1537 c 0,24,25
 779 1559 779 1559 824 1559 c 128,-1,26
 869 1559 869 1559 901 1556.5 c 128,-1,27
 933 1554 933 1554 966 1551 c 0,28,29
 1052 1543 1052 1543 1124 1543 c 2,30,-1
 1881 1543 l 1,31,32
 1891 1464 1891 1464 1917 1377 c 2,33,-1
 1954 1254 l 2,34,35
 1964 1218 1964 1218 1964 1205 c 0,36,37
 1964 1176 1964 1176 1942 1176 c 0,38,39
 1924 1176 1924 1176 1898 1208.5 c 128,-1,40
 1872 1241 1872 1241 1838.5 1278.5 c 128,-1,41
 1805 1316 1805 1316 1762 1346 c 0,42,43
 1663 1414 1663 1414 1529 1414 c 2,44,-1
 1259 1414 l 2,45,46
 1206 1414 1206 1414 1186 1391 c 128,-1,47
 1166 1368 1166 1368 1166 1325 c 2,48,-1
 1166 916 l 2,49,50
 1166 863 1166 863 1253 863 c 2,51,-1
 1502 863 l 2,52,53
 1571 863 1571 863 1629 933 c 0,54,55
 1649 957 1649 957 1659 980.5 c 128,-1,56
 1669 1004 1669 1004 1675 1012 c 128,-1,57
 1681 1020 1681 1020 1693 1020 c 0,58,59
 1725 1020 1725 1020 1725 964 c 1,60,-1
 1717 803 l 1,61,62
 1717 758 1717 758 1721 718 c 1,63,-1
 1721 712 l 1,64,65
 1725 680 1725 680 1725 634.5 c 128,-1,66
 1725 589 1725 589 1693 589 c 0,67,68
 1681 589 1681 589 1675.5 597 c 128,-1,69
 1670 605 1670 605 1660 628.5 c 128,-1,70
 1650 652 1650 652 1629.5 674 c 128,-1,71
 1609 696 1609 696 1586 710 c 0,72,73
 1546 734 1546 734 1502 734 c 2,74,-1
 1252 734 l 2,75,76
 1211 734 1211 734 1188.5 716 c 128,-1,77
 1166 698 1166 698 1166 672 c 2,78,-1
 1166 264 l 2,79,80
 1166 129 1166 129 1259 129 c 2,81,-1
 1469 129 l 2,82,83
 1717 129 1717 129 1858 240 c 0,84,85
 1899 273 1899 273 1934 308 c 2,86,-1
 1972 346 l 2,87,88
 2005 379 2005 379 2017 381 c 128,-1,89
 2029 383 2029 383 2035 384 c 1,90,91
 2059 384 2059 384 2059 360.5 c 128,-1,92
 2059 337 2059 337 2022 272 c 0,93,94
 1952 151 1952 151 1900 0 c 1,95,-1
 1065 0 l 2,96,97
 1026 0 1026 0 996 -2 c 2,98,-1
 880 -12 l 2,99,100
 849 -15 849 -15 815.5 -15 c 128,-1,101
 782 -15 782 -15 764 -8.5 c 128,-1,102
 746 -2 746 -2 735 7 c 0,103,104
 715 23 715 23 715 42 c 128,-1,105
 715 61 715 61 725 75.5 c 128,-1,106
 735 90 735 90 753 90 c 1,107,-1
 818 83 l 1,108,109
 873 83 873 83 888 107.5 c 128,-1,110
 903 132 903 132 910 152.5 c 128,-1,111
 917 173 917 173 922 203 c 0,112,113
 930 260 930 260 930 381 c 2,114,-1
 930 466 l 1,115,-1
 477 466 l 2,116,117
 407 466 407 466 377 430 c 0,118,119
 367 418 367 418 356 402 c 2,120,-1
 209 193 l 2,121,122
 182 155 182 155 181 135 c 1,123,124
 181 98 181 98 246 98 c 1,125,-1
 297 105 l 1,126,127
 312 105 312 105 321 93 c 128,-1,128
 330 81 330 81 330 61 c 128,-1,129
 330 41 330 41 302 20.5 c 128,-1,130
 274 0 274 0 219 0 c 1,0,-1
522 564 m 2,131,-1
 930 564 l 1,132,-1
 930 1263 l 1,133,-1
 495 633 l 2,134,135
 474 604 474 604 474 584 c 128,-1,136
 474 564 474 564 522 564 c 2,131,-1
EndSplineSet
EndChar

StartChar: Ccedilla
Encoding: 199 199 156
Width: 1667
GlyphClass: 2
Flags: W
LayerCount: 2
Fore
SplineSet
1546 208 m 1,0,1
 1303 -23 1303 -23 943 -23 c 0,2,3
 935 -23 935 -23 927 -23 c 128,-1,4
 919 -23 919 -23 911 -22 c 1,5,-1
 879 -152 l 1,6,-1
 895 -152 l 2,7,8
 1050 -152 1050 -152 1115 -248 c 0,9,10
 1135 -277 1135 -277 1135 -314.5 c 128,-1,11
 1135 -352 1135 -352 1112 -389.5 c 128,-1,12
 1089 -427 1089 -427 1050 -456 c 0,13,14
 964 -521 964 -521 863 -521 c 0,15,16
 729 -521 729 -521 657 -462 c 0,17,18
 631 -440 631 -440 631 -414.5 c 128,-1,19
 631 -389 631 -389 646 -370.5 c 128,-1,20
 661 -352 661 -352 685 -352 c 0,21,22
 728 -352 728 -352 764 -388 c 1,23,24
 822 -443 822 -443 909 -443 c 0,25,26
 945 -443 945 -443 962 -420 c 0,27,28
 990 -381 990 -381 990 -336 c 128,-1,29
 990 -291 990 -291 956.5 -261.5 c 128,-1,30
 923 -232 923 -232 878 -232 c 0,31,32
 807 -232 807 -232 758 -251 c 1,33,-1
 807 -14 l 1,34,35
 480 27 480 27 286 249 c 0,36,37
 99 463 99 463 99 764 c 0,38,39
 99 1139 99 1139 338 1368 c 0,40,41
 571 1592 571 1592 932 1592 c 0,42,43
 1102 1592 1102 1592 1259 1516 c 0,44,45
 1288 1502 1288 1502 1312 1502 c 128,-1,46
 1336 1502 1336 1502 1375.5 1542 c 128,-1,47
 1415 1582 1415 1582 1429.5 1595 c 128,-1,48
 1444 1608 1444 1608 1458 1608 c 0,49,50
 1486 1608 1486 1608 1486 1563.5 c 128,-1,51
 1486 1519 1486 1519 1487.5 1489 c 128,-1,52
 1489 1459 1489 1459 1493 1430 c 0,53,54
 1501 1373 1501 1373 1518 1310 c 0,55,56
 1553 1175 1553 1175 1553 1150 c 128,-1,57
 1553 1125 1553 1125 1540 1114.5 c 128,-1,58
 1527 1104 1527 1104 1514 1104 c 0,59,60
 1482 1104 1482 1104 1468 1130 c 0,61,62
 1296 1446 1296 1446 879 1446 c 0,63,64
 775 1446 775 1446 677.5 1399.5 c 128,-1,65
 580 1353 580 1353 504 1270 c 0,66,67
 336 1088 336 1088 336 832 c 0,68,69
 336 505 336 505 540 308 c 0,70,71
 733 123 733 123 1027 123 c 0,72,73
 1259 123 1259 123 1380 314 c 0,74,75
 1426 386 1426 386 1454 498 c 0,76,77
 1470 561 1470 561 1509 561 c 0,78,79
 1546 561 1546 561 1546 497 c 2,80,-1
 1546 208 l 1,0,1
EndSplineSet
EndChar

StartChar: Eth
Encoding: 208 208 165
Width: 1838
GlyphClass: 2
Flags: W
LayerCount: 2
Fore
SplineSet
193 1477 m 1,0,-1
 143 1471 l 1,1,2
 124 1471 124 1471 114 1484 c 128,-1,3
 104 1497 104 1497 104 1510 c 128,-1,4
 104 1523 104 1523 108.5 1533.5 c 128,-1,5
 113 1544 113 1544 124 1553 c 0,6,7
 151 1575 151 1575 195.5 1575 c 128,-1,8
 240 1575 240 1575 268 1573 c 128,-1,9
 296 1571 296 1571 322 1568 c 0,10,11
 383 1561 383 1561 446.5 1561 c 128,-1,12
 510 1561 510 1561 560.5 1566 c 128,-1,13
 611 1571 611 1571 660 1576 c 0,14,15
 798 1592 798 1592 874 1592 c 0,16,17
 1337 1592 1337 1592 1576 1368 c 0,18,19
 1799 1159 1799 1159 1799 785 c 0,20,21
 1799 554 1799 554 1676 366 c 0,22,23
 1559 186 1559 186 1352 81 c 0,24,25
 1144 -24 1144 -24 891 -24 c 0,26,27
 772 -24 772 -24 684 -16 c 2,28,-1
 549 -4 l 2,29,30
 502 0 502 0 457 0 c 128,-1,31
 412 0 412 0 384.5 -2.5 c 128,-1,32
 357 -5 357 -5 329 -8 c 0,33,34
 254 -16 254 -16 212.5 -16 c 128,-1,35
 171 -16 171 -16 153 -9.5 c 128,-1,36
 135 -3 135 -3 124 6 c 0,37,38
 104 22 104 22 104 41 c 0,39,40
 104 88 104 88 143 88 c 1,41,-1
 208 82 l 1,42,43
 276 82 276 82 299 136 c 0,44,45
 320 185 320 185 320 314 c 2,46,-1
 320 716 l 1,47,-1
 197 716 l 2,48,49
 162 716 162 716 141 726 c 128,-1,50
 120 736 120 736 120 764 c 128,-1,51
 120 792 120 792 125.5 801.5 c 128,-1,52
 131 811 131 811 142 816 c 0,53,54
 156 823 156 823 200 823 c 2,55,-1
 320 823 l 1,56,-1
 320 1232 l 2,57,58
 320 1363 320 1363 301.5 1405 c 128,-1,59
 283 1447 283 1447 258 1462 c 128,-1,60
 233 1477 233 1477 193 1477 c 1,0,-1
559 269 m 2,61,62
 559 184 559 184 624 154 c 0,63,64
 689 125 689 125 863.5 125 c 128,-1,65
 1038 125 1038 125 1160 156 c 128,-1,66
 1282 187 1282 187 1367 261 c 0,67,68
 1541 412 1541 412 1541 763 c 0,69,70
 1541 1105 1541 1105 1356 1280 c 0,71,72
 1180 1446 1180 1446 851 1446 c 0,73,74
 702 1446 702 1446 650 1428 c 128,-1,75
 598 1410 598 1410 578.5 1387.5 c 128,-1,76
 559 1365 559 1365 559 1331 c 2,77,-1
 559 823 l 1,78,-1
 895 823 l 2,79,80
 956 823 956 823 969 798 c 0,81,82
 975 786 975 786 975 760 c 128,-1,83
 975 734 975 734 954 725 c 128,-1,84
 933 716 933 716 896 716 c 2,85,-1
 559 716 l 1,86,-1
 559 269 l 2,61,62
EndSplineSet
EndChar

StartChar: multiply
Encoding: 215 215 172
Width: 1193
GlyphClass: 2
Flags: W
LayerCount: 2
Fore
SplineSet
154 319 m 1,0,-1
 489 653 l 1,1,-1
 146 997 l 1,2,-1
 255 1106 l 1,3,-1
 598 762 l 1,4,-1
 933 1096 l 1,5,-1
 1039 990 l 1,6,-1
 704 656 l 1,7,-1
 1047 313 l 1,8,-1
 938 204 l 1,9,-1
 595 547 l 1,10,-1
 260 213 l 1,11,-1
 154 319 l 1,0,-1
EndSplineSet
EndChar

StartChar: Oslash
Encoding: 216 216 173
Width: 1850
GlyphClass: 2
Flags: W
LayerCount: 2
Fore
SplineSet
1235 37 m 128,-1,1
 1084 -18 1084 -18 891 -18 c 128,-1,2
 698 -18 698 -18 524 60 c 1,3,-1
 379 -155 l 2,4,5
 344 -206 344 -206 302 -206 c 0,6,7
 279 -206 279 -206 262.5 -192 c 128,-1,8
 246 -178 246 -178 246 -157 c 0,9,10
 246 -121 246 -121 280 -72 c 2,11,-1
 412 122 l 1,12,13
 264 223 264 223 183.5 383 c 128,-1,14
 103 543 103 543 103 737 c 128,-1,15
 103 931 103 931 162 1086.5 c 128,-1,16
 221 1242 221 1242 332 1356 c 0,17,18
 567 1597 567 1597 953 1597 c 0,19,20
 1169 1597 1169 1597 1344 1498 c 1,21,-1
 1481 1699 l 2,22,23
 1516 1752 1516 1752 1548 1752 c 0,24,25
 1612 1752 1612 1752 1612 1703 c 0,26,27
 1612 1667 1612 1667 1574 1614 c 1,28,-1
 1449 1428 l 1,29,30
 1666 1258 1666 1258 1730 988 c 0,31,32
 1751 900 1751 900 1751 807 c 0,33,34
 1751 609 1751 609 1683.5 455.5 c 128,-1,35
 1616 302 1616 302 1501 197 c 128,-1,0
 1386 92 1386 92 1235 37 c 128,-1,1
1225 1322 m 1,36,37
 1046 1476 1046 1476 840 1476 c 0,38,39
 620 1476 620 1476 474 1318 c 0,40,41
 324 1157 324 1157 324 911 c 0,42,43
 324 552 324 552 546 321 c 1,44,-1
 1225 1322 l 1,36,37
644 237 m 1,45,46
 823 107 823 107 1030 107 c 0,47,48
 1232 107 1232 107 1364 248 c 1,49,50
 1505 401 1505 401 1505 667 c 0,51,52
 1505 991 1505 991 1314 1228 c 1,53,-1
 644 237 l 1,45,46
EndSplineSet
EndChar

StartChar: Thorn
Encoding: 222 222 179
Width: 1518
GlyphClass: 2
Flags: W
LayerCount: 2
Fore
SplineSet
801 329 m 0,0,1
 692 329 692 329 576 358 c 1,2,3
 576 217 576 217 590.5 169.5 c 128,-1,4
 605 122 605 122 627.5 102.5 c 128,-1,5
 650 83 650 83 677 83 c 128,-1,6
 704 83 704 83 716 84.5 c 128,-1,7
 728 86 728 86 738.5 87.5 c 128,-1,8
 749 89 749 89 759.5 90.5 c 128,-1,9
 770 92 770 92 786 92 c 128,-1,10
 802 92 802 92 812 76.5 c 128,-1,11
 822 61 822 61 822 49.5 c 128,-1,12
 822 38 822 38 816 27 c 128,-1,13
 810 16 810 16 797 7 c 0,14,15
 765 -15 765 -15 719.5 -15 c 128,-1,16
 674 -15 674 -15 640 -12.5 c 128,-1,17
 606 -10 606 -10 576 -8 c 1,18,-1
 519 -2 l 2,19,20
 491 0 491 0 459 0 c 256,21,22
 427 0 427 0 401 -2 c 2,23,-1
 348 -8 l 1,24,25
 267 -15 267 -15 229.5 -15 c 128,-1,26
 192 -15 192 -15 174 -8.5 c 128,-1,27
 156 -2 156 -2 145 7 c 0,28,29
 125 23 125 23 125 42 c 0,30,31
 125 89 125 89 164 89 c 1,32,-1
 228 83 l 1,33,34
 295 83 295 83 319 144 c 0,35,36
 340 198 340 198 340 330 c 2,37,-1
 340 1228 l 2,38,39
 340 1360 340 1360 323.5 1403.5 c 128,-1,40
 307 1447 307 1447 285 1462.5 c 128,-1,41
 263 1478 263 1478 228 1478 c 1,42,-1
 164 1472 l 1,43,44
 145 1472 145 1472 135 1485.5 c 128,-1,45
 125 1499 125 1499 125 1511 c 128,-1,46
 125 1523 125 1523 129.5 1533.5 c 128,-1,47
 134 1544 134 1544 145 1554 c 0,48,49
 171 1576 171 1576 215 1576 c 128,-1,50
 259 1576 259 1576 290 1573.5 c 128,-1,51
 321 1571 321 1571 348 1568 c 2,52,-1
 401 1564 l 1,53,54
 427 1561 427 1561 459 1561 c 256,55,56
 491 1561 491 1561 519 1564 c 1,57,-1
 576 1568 l 1,58,59
 665 1576 665 1576 705 1576 c 128,-1,60
 745 1576 745 1576 764.5 1569.5 c 128,-1,61
 784 1563 784 1563 797 1554 c 0,62,63
 822 1535 822 1535 822 1517 c 128,-1,64
 822 1499 822 1499 812 1484 c 128,-1,65
 802 1469 802 1469 786 1469 c 128,-1,66
 770 1469 770 1469 759.5 1470.5 c 128,-1,67
 749 1472 749 1472 738 1474 c 0,68,69
 707 1478 707 1478 679.5 1478 c 128,-1,70
 652 1478 652 1478 630 1462 c 128,-1,71
 608 1446 608 1446 596 1414 c 0,72,73
 576 1362 576 1362 576 1228 c 2,74,-1
 576 1223 l 1,75,76
 730 1260 730 1260 863 1260 c 128,-1,77
 996 1260 996 1260 1111 1228.5 c 128,-1,78
 1226 1197 1226 1197 1305 1140 c 0,79,80
 1467 1022 1467 1022 1467 820 c 0,81,82
 1467 578 1467 578 1266 445 c 0,83,84
 1091 329 1091 329 801 329 c 0,0,1
576 520 m 1,85,86
 692 460 692 460 854 460 c 0,87,88
 1108 460 1108 460 1185 619 c 0,89,90
 1211 673 1211 673 1211 755.5 c 128,-1,91
 1211 838 1211 838 1178 910 c 128,-1,92
 1145 982 1145 982 1087 1031 c 0,93,94
 970 1130 970 1130 776 1130 c 0,95,96
 693 1130 693 1130 651 1102 c 0,97,98
 576 1053 576 1053 576 989 c 2,99,-1
 576 520 l 1,85,86
EndSplineSet
EndChar

StartChar: germandbls
Encoding: 223 223 180
Width: 1428
GlyphClass: 2
Flags: W
LayerCount: 2
Fore
SplineSet
605 46 m 0,0,1
 605 -15 605 -15 500 -15 c 0,2,3
 456 -15 456 -15 416 -7.5 c 128,-1,4
 376 0 376 0 336 0 c 0,5,6
 270 0 270 0 210 -7.5 c 128,-1,7
 150 -15 150 -15 123 -15 c 128,-1,8
 96 -15 96 -15 76.5 -8.5 c 128,-1,9
 57 -2 57 -2 46 7 c 0,10,11
 27 23 27 23 27 42.5 c 128,-1,12
 27 62 27 62 38 75.5 c 128,-1,13
 49 89 49 89 66 89 c 1,14,-1
 114 82 l 1,15,16
 172 82 172 82 194 136 c 1,17,18
 218 192 218 192 220 342 c 1,19,-1
 220 1159 l 2,20,21
 220 1594 220 1594 490 1698 c 0,22,23
 575 1730 575 1730 678.5 1730 c 128,-1,24
 782 1730 782 1730 862 1700 c 128,-1,25
 942 1670 942 1670 998 1616 c 0,26,27
 1113 1507 1113 1507 1113 1331 c 0,28,29
 1113 1214 1113 1214 1034 1108 c 1,30,31
 961 1012 961 1012 846 959 c 1,32,33
 1055 922 1055 922 1192 779 c 1,34,35
 1330 633 1330 633 1330 449 c 0,36,37
 1330 107 1330 107 1093 8 c 0,38,39
 1015 -24 1015 -24 937 -24 c 128,-1,40
 859 -24 859 -24 813.5 -6 c 128,-1,41
 768 12 768 12 734 41 c 0,42,43
 662 102 662 102 662 182 c 0,44,45
 662 200 662 200 676 210.5 c 128,-1,46
 690 221 690 221 704 221 c 0,47,48
 738 221 738 221 751.5 191.5 c 128,-1,49
 765 162 765 162 782 144.5 c 128,-1,50
 799 127 799 127 820 116 c 0,51,52
 856 98 856 98 906 98 c 0,53,54
 1082 98 1082 98 1082 390 c 0,55,56
 1082 796 1082 796 695 855 c 1,57,58
 592 866 592 866 592 908 c 128,-1,59
 592 950 592 950 640.5 962 c 128,-1,60
 689 974 689 974 729 995.5 c 128,-1,61
 769 1017 769 1017 800 1055 c 0,62,63
 870 1139 870 1139 870 1299 c 0,64,65
 870 1614 870 1614 663.5 1614 c 128,-1,66
 457 1614 457 1614 457 1304 c 2,67,-1
 457 342 l 2,68,69
 457 158 457 158 466.5 125 c 128,-1,70
 476 92 476 92 488 87 c 128,-1,71
 500 82 500 82 518 82 c 1,72,-1
 568 89 l 1,73,74
 586 89 586 89 595.5 75.5 c 128,-1,75
 605 62 605 62 605 46 c 0,0,1
EndSplineSet
EndChar

